solid IRB2400_10_m2000_rev3_01-13
   facet normal 1.135976e-032 -1.000000e+000 -1.882954e-016
      outer loop
         vertex -4.570374e+001 1.985000e+002 4.645392e+002
         vertex -8.418786e+001 1.985000e+002 3.856351e+002
         vertex -1.748213e+001 1.985000e+002 4.742567e+002
      endloop
   endfacet
   facet normal 1.135976e-032 -1.000000e+000 -1.882954e-016
      outer loop
         vertex -1.748213e+001 1.985000e+002 4.742567e+002
         vertex -8.418786e+001 1.985000e+002 3.856351e+002
         vertex -7.447038e+001 1.985000e+002 3.574135e+002
      endloop
   endfacet
   facet normal 1.135976e-032 -1.000000e+000 -1.882954e-016
      outer loop
         vertex -1.748213e+001 1.985000e+002 4.742567e+002
         vertex -7.447038e+001 1.985000e+002 3.574135e+002
         vertex 6.142200e+001 1.985000e+002 4.357726e+002
      endloop
   endfacet
   facet normal 1.135976e-032 -1.000000e+000 -1.882954e-016
      outer loop
         vertex 6.142200e+001 1.985000e+002 4.357726e+002
         vertex -7.447038e+001 1.985000e+002 3.574135e+002
         vertex 3.265536e+001 1.985000e+002 3.286469e+002
      endloop
   endfacet
   facet normal 1.135976e-032 -1.000000e+000 -1.882954e-016
      outer loop
         vertex 6.142200e+001 1.985000e+002 4.357726e+002
         vertex 3.265536e+001 1.985000e+002 3.286469e+002
         vertex 7.113949e+001 1.985000e+002 4.075510e+002
      endloop
   endfacet
   facet normal 1.135976e-032 -1.000000e+000 -1.882954e-016
      outer loop
         vertex -7.447038e+001 1.985000e+002 3.574135e+002
         vertex 4.433752e+000 1.985000e+002 3.189294e+002
         vertex 3.265536e+001 1.985000e+002 3.286469e+002
      endloop
   endfacet
   facet normal -1.357521e-016 -1.000000e+000 6.267747e-017
      outer loop
         vertex 4.709913e+001 4.140000e+002 3.890568e+002
         vertex 5.785814e+001 4.140000e+002 4.111160e+002
         vertex 4.128769e+001 4.140000e+002 4.220151e+002
      endloop
   endfacet
   facet normal -1.357521e-016 -1.000000e+000 6.267747e-017
      outer loop
         vertex 4.128769e+001 4.140000e+002 4.220151e+002
         vertex 5.785814e+001 4.140000e+002 4.111160e+002
         vertex 5.371860e+001 4.140000e+002 4.235524e+002
      endloop
   endfacet
   facet normal -1.357521e-016 -1.000000e+000 6.267747e-017
      outer loop
         vertex 4.128769e+001 4.140000e+002 4.220151e+002
         vertex 5.371860e+001 4.140000e+002 4.235524e+002
         vertex 4.720310e+001 4.140000e+002 4.349255e+002
      endloop
   endfacet
   facet normal -1.357521e-016 -1.000000e+000 6.267747e-017
      outer loop
         vertex 2.815567e+001 4.140000e+002 4.527474e+002
         vertex 1.721374e+001 4.140000e+002 4.452630e+002
         vertex 3.856861e+001 4.140000e+002 4.447868e+002
      endloop
   endfacet
   facet normal -1.357521e-016 -1.000000e+000 6.267747e-017
      outer loop
         vertex 3.856861e+001 4.140000e+002 4.447868e+002
         vertex 1.721374e+001 4.140000e+002 4.452630e+002
         vertex 4.128769e+001 4.140000e+002 4.220151e+002
      endloop
   endfacet
   facet normal -1.357521e-016 -1.000000e+000 6.267747e-017
      outer loop
         vertex 3.856861e+001 4.140000e+002 4.447868e+002
         vertex 4.128769e+001 4.140000e+002 4.220151e+002
         vertex 4.720310e+001 4.140000e+002 4.349255e+002
      endloop
   endfacet
   facet normal -1.357521e-016 -1.000000e+000 6.267747e-017
      outer loop
         vertex -3.471765e+001 4.140000e+002 4.562682e+002
         vertex -4.547666e+001 4.140000e+002 4.342090e+002
         vertex -2.236909e+001 4.140000e+002 4.606628e+002
      endloop
   endfacet
   facet normal -1.357521e-016 -1.000000e+000 6.267747e-017
      outer loop
         vertex -2.236909e+001 4.140000e+002 4.606628e+002
         vertex -4.547666e+001 4.140000e+002 4.342090e+002
         vertex -1.592729e+001 4.140000e+002 4.499207e+002
      endloop
   endfacet
   facet normal -1.357521e-016 -1.000000e+000 6.267747e-017
      outer loop
         vertex -2.236909e+001 4.140000e+002 4.606628e+002
         vertex -1.592729e+001 4.140000e+002 4.499207e+002
         vertex -9.395607e+000 4.140000e+002 4.625305e+002
      endloop
   endfacet
   facet normal -1.357521e-016 -1.000000e+000 6.267747e-017
      outer loop
         vertex -9.395607e+000 4.140000e+002 4.625305e+002
         vertex -1.592729e+001 4.140000e+002 4.499207e+002
         vertex 1.721374e+001 4.140000e+002 4.452630e+002
      endloop
   endfacet
   facet normal -1.357521e-016 -1.000000e+000 6.267747e-017
      outer loop
         vertex -9.395607e+000 4.140000e+002 4.625305e+002
         vertex 1.721374e+001 4.140000e+002 4.452630e+002
         vertex 3.691124e+000 4.140000e+002 4.617977e+002
      endloop
   endfacet
   facet normal -1.357521e-016 -1.000000e+000 6.267747e-017
      outer loop
         vertex 3.691124e+000 4.140000e+002 4.617977e+002
         vertex 1.721374e+001 4.140000e+002 4.452630e+002
         vertex 1.637497e+001 4.140000e+002 4.584932e+002
      endloop
   endfacet
   facet normal -1.357521e-016 -1.000000e+000 6.267747e-017
      outer loop
         vertex 1.721374e+001 4.140000e+002 4.452630e+002
         vertex 2.815567e+001 4.140000e+002 4.527474e+002
         vertex 1.637497e+001 4.140000e+002 4.584932e+002
      endloop
   endfacet
   facet normal -3.664165e-001 5.232329e-017 9.304509e-001
      outer loop
         vertex -3.471765e+001 4.440000e+002 4.562682e+002
         vertex -3.471765e+001 4.140000e+002 4.562682e+002
         vertex -2.236909e+001 4.440000e+002 4.606628e+002
      endloop
   endfacet
   facet normal -3.037749e-001 5.406974e-018 9.527438e-001
      outer loop
         vertex -2.236909e+001 4.440000e+002 4.606628e+002
         vertex -3.471765e+001 4.140000e+002 4.562682e+002
         vertex -2.236909e+001 4.140000e+002 4.606628e+002
      endloop
   endfacet
   facet normal -1.753216e-001 -5.480009e-017 9.845112e-001
      outer loop
         vertex -2.236909e+001 4.440000e+002 4.606628e+002
         vertex -2.236909e+001 4.140000e+002 4.606628e+002
         vertex -9.395607e+000 4.440000e+002 4.625305e+002
      endloop
   endfacet
   facet normal -1.095099e-001 -6.809083e-017 9.939857e-001
      outer loop
         vertex -9.395607e+000 4.440000e+002 4.625305e+002
         vertex -2.236909e+001 4.140000e+002 4.606628e+002
         vertex -9.395607e+000 4.140000e+002 4.625305e+002
      endloop
   endfacet
   facet normal 2.268791e-002 -9.360242e-017 9.997426e-001
      outer loop
         vertex -9.395607e+000 4.440000e+002 4.625305e+002
         vertex -9.395607e+000 4.140000e+002 4.625305e+002
         vertex 3.691124e+000 4.440000e+002 4.617977e+002
      endloop
   endfacet
   facet normal 8.907407e-002 -1.058233e-016 9.960250e-001
      outer loop
         vertex 3.691124e+000 4.440000e+002 4.617977e+002
         vertex -9.395607e+000 4.140000e+002 4.625305e+002
         vertex 3.691124e+000 4.140000e+002 4.617977e+002
      endloop
   endfacet
   facet normal 2.198026e-001 -1.287131e-016 9.755443e-001
      outer loop
         vertex 3.691124e+000 4.440000e+002 4.617977e+002
         vertex 3.691124e+000 4.140000e+002 4.617977e+002
         vertex 1.637497e+001 4.440000e+002 4.584932e+002
      endloop
   endfacet
   facet normal 2.841450e-001 -1.393821e-016 9.587813e-001
      outer loop
         vertex 1.637497e+001 4.440000e+002 4.584932e+002
         vertex 3.691124e+000 4.140000e+002 4.617977e+002
         vertex 1.637497e+001 4.140000e+002 4.584932e+002
      endloop
   endfacet
   facet normal 4.082484e-001 -1.587474e-016 9.128709e-001
      outer loop
         vertex 1.637497e+001 4.440000e+002 4.584932e+002
         vertex 1.637497e+001 4.140000e+002 4.584932e+002
         vertex 2.815567e+001 4.440000e+002 4.527474e+002
      endloop
   endfacet
   facet normal 4.680093e-001 -1.674437e-016 8.837235e-001
      outer loop
         vertex 2.815567e+001 4.440000e+002 4.527474e+002
         vertex 1.637497e+001 4.140000e+002 4.584932e+002
         vertex 2.815567e+001 4.140000e+002 4.527474e+002
      endloop
   endfacet
   facet normal 5.805929e-001 -1.825207e-016 8.141940e-001
      outer loop
         vertex 2.815567e+001 4.440000e+002 4.527474e+002
         vertex 2.815567e+001 4.140000e+002 4.527474e+002
         vertex 3.856861e+001 4.440000e+002 4.447868e+002
      endloop
   endfacet
   facet normal 6.334155e-001 -1.889014e-016 7.738119e-001
      outer loop
         vertex 3.856861e+001 4.440000e+002 4.447868e+002
         vertex 2.815567e+001 4.140000e+002 4.527474e+002
         vertex 3.856861e+001 4.140000e+002 4.447868e+002
      endloop
   endfacet
   facet normal 7.300389e-001 -1.990954e-016 6.834056e-001
      outer loop
         vertex 3.856861e+001 4.440000e+002 4.447868e+002
         vertex 3.856861e+001 4.140000e+002 4.447868e+002
         vertex 4.720310e+001 4.440000e+002 4.349255e+002
      endloop
   endfacet
   facet normal 7.738398e-001 -2.029088e-016 6.333814e-001
      outer loop
         vertex 4.720310e+001 4.440000e+002 4.349255e+002
         vertex 3.856861e+001 4.140000e+002 4.447868e+002
         vertex 4.720310e+001 4.140000e+002 4.349255e+002
      endloop
   endfacet
   facet normal 8.506925e-001 -2.078179e-016 5.256637e-001
      outer loop
         vertex 4.720310e+001 4.440000e+002 4.349255e+002
         vertex 4.720310e+001 4.140000e+002 4.349255e+002
         vertex 5.371860e+001 4.440000e+002 4.235524e+002
      endloop
   endfacet
   facet normal 8.837442e-001 -2.089136e-016 4.679703e-001
      outer loop
         vertex 5.371860e+001 4.440000e+002 4.235524e+002
         vertex 4.720310e+001 4.140000e+002 4.349255e+002
         vertex 5.371860e+001 4.140000e+002 4.235524e+002
      endloop
   endfacet
   facet normal 9.377949e-001 -2.083440e-016 3.471898e-001
      outer loop
         vertex 5.371860e+001 4.440000e+002 4.235524e+002
         vertex 5.371860e+001 4.140000e+002 4.235524e+002
         vertex 5.785814e+001 4.440000e+002 4.111160e+002
      endloop
   endfacet
   facet normal 9.587939e-001 -2.066788e-016 2.841027e-001
      outer loop
         vertex 5.785814e+001 4.440000e+002 4.111160e+002
         vertex 5.371860e+001 4.140000e+002 4.235524e+002
         vertex 5.785814e+001 4.140000e+002 4.111160e+002
      endloop
   endfacet
   facet normal -8.508596e-033 1.000000e+000 -6.267747e-017
      outer loop
         vertex 2.815567e+001 4.440000e+002 4.527474e+002
         vertex 3.856861e+001 4.440000e+002 4.447868e+002
         vertex -3.862914e+001 4.440000e+002 3.158182e+002
      endloop
   endfacet
   facet normal -8.508596e-033 1.000000e+000 -6.267747e-017
      outer loop
         vertex -3.862914e+001 4.440000e+002 3.158182e+002
         vertex 3.856861e+001 4.440000e+002 4.447868e+002
         vertex 4.720310e+001 4.440000e+002 4.349255e+002
      endloop
   endfacet
   facet normal -8.508596e-033 1.000000e+000 -6.267747e-017
      outer loop
         vertex -3.862914e+001 4.440000e+002 3.158182e+002
         vertex 4.720310e+001 4.440000e+002 4.349255e+002
         vertex -1.285857e+001 4.440000e+002 3.117809e+002
      endloop
   endfacet
   facet normal -8.508596e-033 1.000000e+000 -6.267747e-017
      outer loop
         vertex -1.285857e+001 4.440000e+002 3.117809e+002
         vertex 4.720310e+001 4.440000e+002 4.349255e+002
         vertex 5.371860e+001 4.440000e+002 4.235524e+002
      endloop
   endfacet
   facet normal -8.508596e-033 1.000000e+000 -6.267747e-017
      outer loop
         vertex -1.285857e+001 4.440000e+002 3.117809e+002
         vertex 5.371860e+001 4.440000e+002 4.235524e+002
         vertex 1.149175e-001 4.440000e+002 3.136486e+002
      endloop
   endfacet
   facet normal -8.508596e-033 1.000000e+000 -6.267747e-017
      outer loop
         vertex 1.149175e-001 4.440000e+002 3.136486e+002
         vertex 5.371860e+001 4.440000e+002 4.235524e+002
         vertex 5.785814e+001 4.440000e+002 4.111160e+002
      endloop
   endfacet
   facet normal -8.508596e-033 1.000000e+000 -6.267747e-017
      outer loop
         vertex 1.149175e-001 4.440000e+002 3.136486e+002
         vertex 5.785814e+001 4.440000e+002 4.111160e+002
         vertex 1.246348e+001 4.440000e+002 3.180432e+002
      endloop
   endfacet
   facet normal -8.508596e-033 1.000000e+000 -6.267747e-017
      outer loop
         vertex 1.637497e+001 4.440000e+002 4.584932e+002
         vertex -3.862914e+001 4.440000e+002 3.158182e+002
         vertex 3.691124e+000 4.440000e+002 4.617977e+002
      endloop
   endfacet
   facet normal -8.508596e-033 1.000000e+000 -6.267747e-017
      outer loop
         vertex 3.691124e+000 4.440000e+002 4.617977e+002
         vertex -3.862914e+001 4.440000e+002 3.158182e+002
         vertex -5.040984e+001 4.440000e+002 3.215641e+002
      endloop
   endfacet
   facet normal -8.508596e-033 1.000000e+000 -6.267747e-017
      outer loop
         vertex 3.691124e+000 4.440000e+002 4.617977e+002
         vertex -5.040984e+001 4.440000e+002 3.215641e+002
         vertex -9.395607e+000 4.440000e+002 4.625305e+002
      endloop
   endfacet
   facet normal -8.508596e-033 1.000000e+000 -6.267747e-017
      outer loop
         vertex -9.395607e+000 4.440000e+002 4.625305e+002
         vertex -5.040984e+001 4.440000e+002 3.215641e+002
         vertex -6.082278e+001 4.440000e+002 3.295246e+002
      endloop
   endfacet
   facet normal -8.508596e-033 1.000000e+000 -6.267747e-017
      outer loop
         vertex -9.395607e+000 4.440000e+002 4.625305e+002
         vertex -6.082278e+001 4.440000e+002 3.295246e+002
         vertex -2.236909e+001 4.440000e+002 4.606628e+002
      endloop
   endfacet
   facet normal -8.508596e-033 1.000000e+000 -6.267747e-017
      outer loop
         vertex -2.236909e+001 4.440000e+002 4.606628e+002
         vertex -6.082278e+001 4.440000e+002 3.295246e+002
         vertex -6.945727e+001 4.440000e+002 3.393859e+002
      endloop
   endfacet
   facet normal -8.508596e-033 1.000000e+000 -6.267747e-017
      outer loop
         vertex -2.236909e+001 4.440000e+002 4.606628e+002
         vertex -6.945727e+001 4.440000e+002 3.393859e+002
         vertex -3.471765e+001 4.440000e+002 4.562682e+002
      endloop
   endfacet
   facet normal -8.508596e-033 1.000000e+000 -6.267747e-017
      outer loop
         vertex -3.471765e+001 4.440000e+002 4.562682e+002
         vertex -6.945727e+001 4.440000e+002 3.393859e+002
         vertex -7.597276e+001 4.440000e+002 3.507590e+002
      endloop
   endfacet
   facet normal -8.508596e-033 1.000000e+000 -6.267747e-017
      outer loop
         vertex -3.471765e+001 4.440000e+002 4.562682e+002
         vertex -7.597276e+001 4.440000e+002 3.507590e+002
         vertex -8.011230e+001 4.440000e+002 3.631954e+002
      endloop
   endfacet
   facet normal -8.508596e-033 1.000000e+000 -6.267747e-017
      outer loop
         vertex -3.862914e+001 4.440000e+002 3.158182e+002
         vertex 1.637497e+001 4.440000e+002 4.584932e+002
         vertex 2.815567e+001 4.440000e+002 4.527474e+002
      endloop
   endfacet
   facet normal -8.508596e-033 1.000000e+000 -6.267747e-017
      outer loop
         vertex -1.285857e+001 4.440000e+002 3.117809e+002
         vertex -2.594530e+001 4.440000e+002 3.125137e+002
         vertex -3.862914e+001 4.440000e+002 3.158182e+002
      endloop
   endfacet
   facet normal 3.664165e-001 -5.232329e-017 -9.304509e-001
      outer loop
         vertex 1.246348e+001 4.440000e+002 3.180432e+002
         vertex 1.246348e+001 4.140000e+002 3.180432e+002
         vertex 1.149175e-001 4.440000e+002 3.136486e+002
      endloop
   endfacet
   facet normal 3.037749e-001 -5.406974e-018 -9.527438e-001
      outer loop
         vertex 1.149175e-001 4.440000e+002 3.136486e+002
         vertex 1.246348e+001 4.140000e+002 3.180432e+002
         vertex 1.149175e-001 4.140000e+002 3.136486e+002
      endloop
   endfacet
   facet normal 1.753216e-001 5.480009e-017 -9.845112e-001
      outer loop
         vertex 1.149175e-001 4.440000e+002 3.136486e+002
         vertex 1.149175e-001 4.140000e+002 3.136486e+002
         vertex -1.285857e+001 4.440000e+002 3.117809e+002
      endloop
   endfacet
   facet normal 1.095099e-001 6.809083e-017 -9.939857e-001
      outer loop
         vertex -1.285857e+001 4.440000e+002 3.117809e+002
         vertex 1.149175e-001 4.140000e+002 3.136486e+002
         vertex -1.285857e+001 4.140000e+002 3.117809e+002
      endloop
   endfacet
   facet normal -2.268791e-002 9.360242e-017 -9.997426e-001
      outer loop
         vertex -1.285857e+001 4.440000e+002 3.117809e+002
         vertex -1.285857e+001 4.140000e+002 3.117809e+002
         vertex -2.594530e+001 4.440000e+002 3.125137e+002
      endloop
   endfacet
   facet normal -8.907407e-002 1.058233e-016 -9.960250e-001
      outer loop
         vertex -2.594530e+001 4.440000e+002 3.125137e+002
         vertex -1.285857e+001 4.140000e+002 3.117809e+002
         vertex -2.594530e+001 4.140000e+002 3.125137e+002
      endloop
   endfacet
   facet normal -2.198026e-001 1.287131e-016 -9.755443e-001
      outer loop
         vertex -2.594530e+001 4.440000e+002 3.125137e+002
         vertex -2.594530e+001 4.140000e+002 3.125137e+002
         vertex -3.862914e+001 4.440000e+002 3.158182e+002
      endloop
   endfacet
   facet normal -2.841450e-001 1.393821e-016 -9.587813e-001
      outer loop
         vertex -3.862914e+001 4.440000e+002 3.158182e+002
         vertex -2.594530e+001 4.140000e+002 3.125137e+002
         vertex -3.862914e+001 4.140000e+002 3.158182e+002
      endloop
   endfacet
   facet normal -4.082484e-001 1.587474e-016 -9.128709e-001
      outer loop
         vertex -3.862914e+001 4.440000e+002 3.158182e+002
         vertex -3.862914e+001 4.140000e+002 3.158182e+002
         vertex -5.040984e+001 4.440000e+002 3.215641e+002
      endloop
   endfacet
   facet normal -4.680093e-001 1.674437e-016 -8.837235e-001
      outer loop
         vertex -5.040984e+001 4.440000e+002 3.215641e+002
         vertex -3.862914e+001 4.140000e+002 3.158182e+002
         vertex -5.040984e+001 4.140000e+002 3.215641e+002
      endloop
   endfacet
   facet normal -5.805929e-001 1.825207e-016 -8.141940e-001
      outer loop
         vertex -5.040984e+001 4.440000e+002 3.215641e+002
         vertex -5.040984e+001 4.140000e+002 3.215641e+002
         vertex -6.082278e+001 4.440000e+002 3.295246e+002
      endloop
   endfacet
   facet normal -6.334155e-001 1.889014e-016 -7.738119e-001
      outer loop
         vertex -6.082278e+001 4.440000e+002 3.295246e+002
         vertex -5.040984e+001 4.140000e+002 3.215641e+002
         vertex -6.082278e+001 4.140000e+002 3.295246e+002
      endloop
   endfacet
   facet normal -7.300389e-001 1.990954e-016 -6.834056e-001
      outer loop
         vertex -6.082278e+001 4.440000e+002 3.295246e+002
         vertex -6.082278e+001 4.140000e+002 3.295246e+002
         vertex -6.945727e+001 4.440000e+002 3.393859e+002
      endloop
   endfacet
   facet normal -7.738398e-001 2.029088e-016 -6.333814e-001
      outer loop
         vertex -6.945727e+001 4.440000e+002 3.393859e+002
         vertex -6.082278e+001 4.140000e+002 3.295246e+002
         vertex -6.945727e+001 4.140000e+002 3.393859e+002
      endloop
   endfacet
   facet normal -8.506925e-001 2.078179e-016 -5.256637e-001
      outer loop
         vertex -6.945727e+001 4.440000e+002 3.393859e+002
         vertex -6.945727e+001 4.140000e+002 3.393859e+002
         vertex -7.597276e+001 4.440000e+002 3.507590e+002
      endloop
   endfacet
   facet normal -8.837442e-001 2.089136e-016 -4.679703e-001
      outer loop
         vertex -7.597276e+001 4.440000e+002 3.507590e+002
         vertex -6.945727e+001 4.140000e+002 3.393859e+002
         vertex -7.597276e+001 4.140000e+002 3.507590e+002
      endloop
   endfacet
   facet normal -9.377949e-001 2.083440e-016 -3.471898e-001
      outer loop
         vertex -7.597276e+001 4.440000e+002 3.507590e+002
         vertex -7.597276e+001 4.140000e+002 3.507590e+002
         vertex -8.011230e+001 4.440000e+002 3.631954e+002
      endloop
   endfacet
   facet normal -9.587939e-001 2.066788e-016 -2.841027e-001
      outer loop
         vertex -8.011230e+001 4.440000e+002 3.631954e+002
         vertex -7.597276e+001 4.140000e+002 3.507590e+002
         vertex -8.011230e+001 4.140000e+002 3.631954e+002
      endloop
   endfacet
   facet normal -1.357521e-016 -1.000000e+000 6.267747e-017
      outer loop
         vertex -2.594530e+001 4.140000e+002 3.125137e+002
         vertex -1.285857e+001 4.140000e+002 3.117809e+002
         vertex -3.026212e+001 4.140000e+002 3.479231e+002
      endloop
   endfacet
   facet normal -1.357521e-016 -1.000000e+000 6.267747e-017
      outer loop
         vertex -3.026212e+001 4.140000e+002 3.479231e+002
         vertex -1.285857e+001 4.140000e+002 3.117809e+002
         vertex 1.149175e-001 4.140000e+002 3.136486e+002
      endloop
   endfacet
   facet normal -1.357521e-016 -1.000000e+000 6.267747e-017
      outer loop
         vertex -3.026212e+001 4.140000e+002 3.479231e+002
         vertex 1.149175e-001 4.140000e+002 3.136486e+002
         vertex 2.878913e+000 4.140000e+002 3.432654e+002
      endloop
   endfacet
   facet normal -1.357521e-016 -1.000000e+000 6.267747e-017
      outer loop
         vertex 2.878913e+000 4.140000e+002 3.432654e+002
         vertex 1.149175e-001 4.140000e+002 3.136486e+002
         vertex 1.246348e+001 4.140000e+002 3.180432e+002
      endloop
   endfacet
   facet normal -1.357521e-016 -1.000000e+000 6.267747e-017
      outer loop
         vertex 2.878913e+000 4.140000e+002 3.432654e+002
         vertex 1.246348e+001 4.140000e+002 3.180432e+002
         vertex 3.242828e+001 4.140000e+002 3.589771e+002
      endloop
   endfacet
   facet normal -1.357521e-016 -1.000000e+000 6.267747e-017
      outer loop
         vertex -6.082278e+001 4.140000e+002 3.295246e+002
         vertex -5.040984e+001 4.140000e+002 3.215641e+002
         vertex -3.026212e+001 4.140000e+002 3.479231e+002
      endloop
   endfacet
   facet normal -1.357521e-016 -1.000000e+000 6.267747e-017
      outer loop
         vertex -3.026212e+001 4.140000e+002 3.479231e+002
         vertex -5.040984e+001 4.140000e+002 3.215641e+002
         vertex -3.862914e+001 4.140000e+002 3.158182e+002
      endloop
   endfacet
   facet normal -1.357521e-016 -1.000000e+000 6.267747e-017
      outer loop
         vertex -3.026212e+001 4.140000e+002 3.479231e+002
         vertex -3.862914e+001 4.140000e+002 3.158182e+002
         vertex -2.594530e+001 4.140000e+002 3.125137e+002
      endloop
   endfacet
   facet normal -1.357521e-016 -1.000000e+000 6.267747e-017
      outer loop
         vertex -6.082278e+001 4.140000e+002 3.295246e+002
         vertex -5.433607e+001 4.140000e+002 3.711710e+002
         vertex -6.945727e+001 4.140000e+002 3.393859e+002
      endloop
   endfacet
   facet normal -1.357521e-016 -1.000000e+000 6.267747e-017
      outer loop
         vertex -6.945727e+001 4.140000e+002 3.393859e+002
         vertex -5.433607e+001 4.140000e+002 3.711710e+002
         vertex -8.011230e+001 4.140000e+002 3.631954e+002
      endloop
   endfacet
   facet normal -1.357521e-016 -1.000000e+000 6.267747e-017
      outer loop
         vertex -6.945727e+001 4.140000e+002 3.393859e+002
         vertex -8.011230e+001 4.140000e+002 3.631954e+002
         vertex -7.597276e+001 4.140000e+002 3.507590e+002
      endloop
   endfacet
   facet normal -1.357521e-016 -1.000000e+000 6.267747e-017
      outer loop
         vertex -6.082278e+001 4.140000e+002 3.295246e+002
         vertex -3.026212e+001 4.140000e+002 3.479231e+002
         vertex -5.433607e+001 4.140000e+002 3.711710e+002
      endloop
   endfacet
   facet normal -1.357521e-016 -1.000000e+000 6.267747e-017
      outer loop
         vertex -5.433607e+001 4.140000e+002 3.711710e+002
         vertex -6.014751e+001 4.140000e+002 4.041293e+002
         vertex -8.011230e+001 4.140000e+002 3.631954e+002
      endloop
   endfacet
   facet normal -3.255682e-001 -4.562253e-017 9.455186e-001
      outer loop
         vertex -4.570374e+001 1.985000e+002 4.645392e+002
         vertex -1.748213e+001 1.985000e+002 4.742567e+002
         vertex -4.570374e+001 2.315000e+002 4.645392e+002
      endloop
   endfacet
   facet normal -3.255682e-001 -4.562253e-017 9.455186e-001
      outer loop
         vertex -4.570374e+001 2.315000e+002 4.645392e+002
         vertex -1.748213e+001 1.985000e+002 4.742567e+002
         vertex -1.748213e+001 2.315000e+002 4.742567e+002
      endloop
   endfacet
   facet normal -8.987941e-001 -9.998108e-017 4.383711e-001
      outer loop
         vertex -8.418786e+001 1.985000e+002 3.856351e+002
         vertex -4.570374e+001 1.985000e+002 4.645392e+002
         vertex -8.418786e+001 2.315000e+002 3.856351e+002
      endloop
   endfacet
   facet normal -8.987941e-001 -9.998108e-017 4.383711e-001
      outer loop
         vertex -8.418786e+001 2.315000e+002 3.856351e+002
         vertex -4.570374e+001 1.985000e+002 4.645392e+002
         vertex -4.570374e+001 2.315000e+002 4.645392e+002
      endloop
   endfacet
   facet normal -9.455186e-001 -9.577207e-017 -3.255682e-001
      outer loop
         vertex -7.447038e+001 1.985000e+002 3.574135e+002
         vertex -8.418786e+001 1.985000e+002 3.856351e+002
         vertex -7.447038e+001 2.315000e+002 3.574135e+002
      endloop
   endfacet
   facet normal -9.455186e-001 -9.577207e-017 -3.255682e-001
      outer loop
         vertex -7.447038e+001 2.315000e+002 3.574135e+002
         vertex -8.418786e+001 1.985000e+002 3.856351e+002
         vertex -8.418786e+001 2.315000e+002 3.856351e+002
      endloop
   endfacet
   facet normal -4.383712e-001 -3.546108e-017 -8.987941e-001
      outer loop
         vertex 4.433752e+000 1.985000e+002 3.189294e+002
         vertex -7.447038e+001 1.985000e+002 3.574135e+002
         vertex 4.433752e+000 2.315000e+002 3.189294e+002
      endloop
   endfacet
   facet normal -4.383712e-001 -3.546108e-017 -8.987941e-001
      outer loop
         vertex 4.433752e+000 2.315000e+002 3.189294e+002
         vertex -7.447038e+001 1.985000e+002 3.574135e+002
         vertex -7.447038e+001 2.315000e+002 3.574135e+002
      endloop
   endfacet
   facet normal 3.255682e-001 4.562253e-017 -9.455186e-001
      outer loop
         vertex 3.265536e+001 1.985000e+002 3.286469e+002
         vertex 4.433752e+000 1.985000e+002 3.189294e+002
         vertex 3.265536e+001 2.315000e+002 3.286469e+002
      endloop
   endfacet
   facet normal 3.255682e-001 4.562253e-017 -9.455186e-001
      outer loop
         vertex 3.265536e+001 2.315000e+002 3.286469e+002
         vertex 4.433752e+000 1.985000e+002 3.189294e+002
         vertex 4.433752e+000 2.315000e+002 3.189294e+002
      endloop
   endfacet
   facet normal 8.987941e-001 9.998108e-017 -4.383711e-001
      outer loop
         vertex 7.113949e+001 1.985000e+002 4.075510e+002
         vertex 3.265536e+001 1.985000e+002 3.286469e+002
         vertex 7.113949e+001 2.315000e+002 4.075510e+002
      endloop
   endfacet
   facet normal 8.987941e-001 9.998108e-017 -4.383711e-001
      outer loop
         vertex 7.113949e+001 2.315000e+002 4.075510e+002
         vertex 3.265536e+001 1.985000e+002 3.286469e+002
         vertex 3.265536e+001 2.315000e+002 3.286469e+002
      endloop
   endfacet
   facet normal 9.455186e-001 9.577207e-017 3.255682e-001
      outer loop
         vertex 6.142200e+001 1.985000e+002 4.357726e+002
         vertex 7.113949e+001 1.985000e+002 4.075510e+002
         vertex 6.142200e+001 2.315000e+002 4.357726e+002
      endloop
   endfacet
   facet normal 9.455186e-001 9.577207e-017 3.255682e-001
      outer loop
         vertex 6.142200e+001 2.315000e+002 4.357726e+002
         vertex 7.113949e+001 1.985000e+002 4.075510e+002
         vertex 7.113949e+001 2.315000e+002 4.075510e+002
      endloop
   endfacet
   facet normal 4.383712e-001 3.546108e-017 8.987941e-001
      outer loop
         vertex -1.748213e+001 1.985000e+002 4.742567e+002
         vertex 6.142200e+001 1.985000e+002 4.357726e+002
         vertex -1.748213e+001 2.315000e+002 4.742567e+002
      endloop
   endfacet
   facet normal 4.383712e-001 3.546108e-017 8.987941e-001
      outer loop
         vertex -1.748213e+001 2.315000e+002 4.742567e+002
         vertex 6.142200e+001 1.985000e+002 4.357726e+002
         vertex 6.142200e+001 2.315000e+002 4.357726e+002
      endloop
   endfacet
   facet normal -4.694716e-001 -6.004290e-017 8.829476e-001
      outer loop
         vertex -4.547666e+001 4.140000e+002 4.342090e+002
         vertex -4.547666e+001 2.315000e+002 4.342090e+002
         vertex -1.592729e+001 4.140000e+002 4.499207e+002
      endloop
   endfacet
   facet normal -4.694716e-001 -6.004290e-017 8.829476e-001
      outer loop
         vertex -1.592729e+001 4.140000e+002 4.499207e+002
         vertex -4.547666e+001 2.315000e+002 4.342090e+002
         vertex -1.592729e+001 2.315000e+002 4.499207e+002
      endloop
   endfacet
   facet normal 1.391731e-001 2.829637e-018 9.902681e-001
      outer loop
         vertex -1.592729e+001 4.140000e+002 4.499207e+002
         vertex -1.592729e+001 2.315000e+002 4.499207e+002
         vertex 1.721374e+001 4.140000e+002 4.452630e+002
      endloop
   endfacet
   facet normal 1.391731e-001 2.829637e-018 9.902681e-001
      outer loop
         vertex 1.721374e+001 4.140000e+002 4.452630e+002
         vertex -1.592729e+001 2.315000e+002 4.499207e+002
         vertex 1.721374e+001 2.315000e+002 4.452630e+002
      endloop
   endfacet
   facet normal 6.946584e-001 6.462134e-017 7.193397e-001
      outer loop
         vertex 1.721374e+001 4.140000e+002 4.452630e+002
         vertex 1.721374e+001 2.315000e+002 4.452630e+002
         vertex 4.128769e+001 4.140000e+002 4.220151e+002
      endloop
   endfacet
   facet normal 6.946584e-001 6.462134e-017 7.193397e-001
      outer loop
         vertex 4.128769e+001 4.140000e+002 4.220151e+002
         vertex 1.721374e+001 2.315000e+002 4.452630e+002
         vertex 4.128769e+001 2.315000e+002 4.220151e+002
      endloop
   endfacet
   facet normal 9.848077e-001 1.017299e-016 1.736482e-001
      outer loop
         vertex 4.128769e+001 4.140000e+002 4.220151e+002
         vertex 4.128769e+001 2.315000e+002 4.220151e+002
         vertex 4.709913e+001 4.140000e+002 3.890568e+002
      endloop
   endfacet
   facet normal 9.848077e-001 1.017299e-016 1.736482e-001
      outer loop
         vertex 4.709913e+001 4.140000e+002 3.890568e+002
         vertex 4.128769e+001 2.315000e+002 4.220151e+002
         vertex 4.709913e+001 2.315000e+002 3.890568e+002
      endloop
   endfacet
   facet normal 8.987941e-001 9.998108e-017 -4.383711e-001
      outer loop
         vertex 1.246348e+001 4.140000e+002 3.180432e+002
         vertex 1.246348e+001 4.440000e+002 3.180432e+002
         vertex 3.242828e+001 4.140000e+002 3.589771e+002
      endloop
   endfacet
   facet normal 8.987941e-001 9.998108e-017 -4.383711e-001
      outer loop
         vertex 3.242828e+001 4.140000e+002 3.589771e+002
         vertex 1.246348e+001 4.440000e+002 3.180432e+002
         vertex 4.709913e+001 4.140000e+002 3.890568e+002
      endloop
   endfacet
   facet normal 8.987941e-001 9.998108e-017 -4.383711e-001
      outer loop
         vertex 3.242828e+001 4.140000e+002 3.589771e+002
         vertex 4.709913e+001 4.140000e+002 3.890568e+002
         vertex 3.242828e+001 2.315000e+002 3.589771e+002
      endloop
   endfacet
   facet normal 8.987941e-001 9.998108e-017 -4.383711e-001
      outer loop
         vertex 3.242828e+001 2.315000e+002 3.589771e+002
         vertex 4.709913e+001 4.140000e+002 3.890568e+002
         vertex 4.709913e+001 2.315000e+002 3.890568e+002
      endloop
   endfacet
   facet normal 8.987941e-001 9.998108e-017 -4.383711e-001
      outer loop
         vertex 5.785814e+001 4.440000e+002 4.111160e+002
         vertex 5.785814e+001 4.140000e+002 4.111160e+002
         vertex 1.246348e+001 4.440000e+002 3.180432e+002
      endloop
   endfacet
   facet normal 8.987941e-001 9.998108e-017 -4.383711e-001
      outer loop
         vertex 1.246348e+001 4.440000e+002 3.180432e+002
         vertex 5.785814e+001 4.140000e+002 4.111160e+002
         vertex 4.709913e+001 4.140000e+002 3.890568e+002
      endloop
   endfacet
   facet normal 4.694716e-001 6.004290e-017 -8.829476e-001
      outer loop
         vertex 3.242828e+001 4.140000e+002 3.589771e+002
         vertex 3.242828e+001 2.315000e+002 3.589771e+002
         vertex 2.878913e+000 4.140000e+002 3.432654e+002
      endloop
   endfacet
   facet normal 4.694716e-001 6.004290e-017 -8.829476e-001
      outer loop
         vertex 2.878913e+000 4.140000e+002 3.432654e+002
         vertex 3.242828e+001 2.315000e+002 3.589771e+002
         vertex 2.878913e+000 2.315000e+002 3.432654e+002
      endloop
   endfacet
   facet normal -1.391731e-001 -2.829637e-018 -9.902681e-001
      outer loop
         vertex 2.878913e+000 4.140000e+002 3.432654e+002
         vertex 2.878913e+000 2.315000e+002 3.432654e+002
         vertex -3.026212e+001 4.140000e+002 3.479231e+002
      endloop
   endfacet
   facet normal -1.391731e-001 -2.829637e-018 -9.902681e-001
      outer loop
         vertex -3.026212e+001 4.140000e+002 3.479231e+002
         vertex 2.878913e+000 2.315000e+002 3.432654e+002
         vertex -3.026212e+001 2.315000e+002 3.479231e+002
      endloop
   endfacet
   facet normal -6.946584e-001 -6.462134e-017 -7.193397e-001
      outer loop
         vertex -3.026212e+001 4.140000e+002 3.479231e+002
         vertex -3.026212e+001 2.315000e+002 3.479231e+002
         vertex -5.433607e+001 4.140000e+002 3.711710e+002
      endloop
   endfacet
   facet normal -6.946584e-001 -6.462134e-017 -7.193397e-001
      outer loop
         vertex -5.433607e+001 4.140000e+002 3.711710e+002
         vertex -3.026212e+001 2.315000e+002 3.479231e+002
         vertex -5.433607e+001 2.315000e+002 3.711710e+002
      endloop
   endfacet
   facet normal -9.848077e-001 -1.017299e-016 -1.736482e-001
      outer loop
         vertex -5.433607e+001 4.140000e+002 3.711710e+002
         vertex -5.433607e+001 2.315000e+002 3.711710e+002
         vertex -6.014751e+001 4.140000e+002 4.041293e+002
      endloop
   endfacet
   facet normal -9.848077e-001 -1.017299e-016 -1.736482e-001
      outer loop
         vertex -6.014751e+001 4.140000e+002 4.041293e+002
         vertex -5.433607e+001 2.315000e+002 3.711710e+002
         vertex -6.014751e+001 2.315000e+002 4.041293e+002
      endloop
   endfacet
   facet normal -8.987941e-001 -9.998108e-017 4.383711e-001
      outer loop
         vertex -3.471765e+001 4.140000e+002 4.562682e+002
         vertex -3.471765e+001 4.440000e+002 4.562682e+002
         vertex -4.547666e+001 4.140000e+002 4.342090e+002
      endloop
   endfacet
   facet normal -8.987941e-001 -9.998108e-017 4.383711e-001
      outer loop
         vertex -4.547666e+001 4.140000e+002 4.342090e+002
         vertex -3.471765e+001 4.440000e+002 4.562682e+002
         vertex -6.014751e+001 4.140000e+002 4.041293e+002
      endloop
   endfacet
   facet normal -8.987941e-001 -9.998108e-017 4.383711e-001
      outer loop
         vertex -4.547666e+001 4.140000e+002 4.342090e+002
         vertex -6.014751e+001 4.140000e+002 4.041293e+002
         vertex -4.547666e+001 2.315000e+002 4.342090e+002
      endloop
   endfacet
   facet normal -8.987941e-001 -9.998108e-017 4.383711e-001
      outer loop
         vertex -4.547666e+001 2.315000e+002 4.342090e+002
         vertex -6.014751e+001 4.140000e+002 4.041293e+002
         vertex -6.014751e+001 2.315000e+002 4.041293e+002
      endloop
   endfacet
   facet normal -8.987941e-001 -9.998108e-017 4.383711e-001
      outer loop
         vertex -8.011230e+001 4.440000e+002 3.631954e+002
         vertex -8.011230e+001 4.140000e+002 3.631954e+002
         vertex -3.471765e+001 4.440000e+002 4.562682e+002
      endloop
   endfacet
   facet normal -8.987941e-001 -9.998108e-017 4.383711e-001
      outer loop
         vertex -3.471765e+001 4.440000e+002 4.562682e+002
         vertex -8.011230e+001 4.140000e+002 3.631954e+002
         vertex -6.014751e+001 4.140000e+002 4.041293e+002
      endloop
   endfacet
   facet normal 8.134598e-018 1.000000e+000 1.006654e-016
      outer loop
         vertex -6.014751e+001 2.315000e+002 4.041293e+002
         vertex -5.433607e+001 2.315000e+002 3.711710e+002
         vertex -7.447038e+001 2.315000e+002 3.574135e+002
      endloop
   endfacet
   facet normal 8.134598e-018 1.000000e+000 1.006654e-016
      outer loop
         vertex -7.447038e+001 2.315000e+002 3.574135e+002
         vertex -5.433607e+001 2.315000e+002 3.711710e+002
         vertex -3.026212e+001 2.315000e+002 3.479231e+002
      endloop
   endfacet
   facet normal 8.134598e-018 1.000000e+000 1.006654e-016
      outer loop
         vertex -7.447038e+001 2.315000e+002 3.574135e+002
         vertex -3.026212e+001 2.315000e+002 3.479231e+002
         vertex 4.433752e+000 2.315000e+002 3.189294e+002
      endloop
   endfacet
   facet normal 8.134598e-018 1.000000e+000 1.006654e-016
      outer loop
         vertex 4.433752e+000 2.315000e+002 3.189294e+002
         vertex -3.026212e+001 2.315000e+002 3.479231e+002
         vertex 2.878913e+000 2.315000e+002 3.432654e+002
      endloop
   endfacet
   facet normal 8.134598e-018 1.000000e+000 1.006654e-016
      outer loop
         vertex 4.433752e+000 2.315000e+002 3.189294e+002
         vertex 2.878913e+000 2.315000e+002 3.432654e+002
         vertex 3.265536e+001 2.315000e+002 3.286469e+002
      endloop
   endfacet
   facet normal 8.134598e-018 1.000000e+000 1.006654e-016
      outer loop
         vertex 3.265536e+001 2.315000e+002 3.286469e+002
         vertex 2.878913e+000 2.315000e+002 3.432654e+002
         vertex 3.242828e+001 2.315000e+002 3.589771e+002
      endloop
   endfacet
   facet normal 8.134598e-018 1.000000e+000 1.006654e-016
      outer loop
         vertex 3.265536e+001 2.315000e+002 3.286469e+002
         vertex 3.242828e+001 2.315000e+002 3.589771e+002
         vertex 7.113949e+001 2.315000e+002 4.075510e+002
      endloop
   endfacet
   facet normal 8.134598e-018 1.000000e+000 1.006654e-016
      outer loop
         vertex 7.113949e+001 2.315000e+002 4.075510e+002
         vertex 3.242828e+001 2.315000e+002 3.589771e+002
         vertex 4.709913e+001 2.315000e+002 3.890568e+002
      endloop
   endfacet
   facet normal 8.134598e-018 1.000000e+000 1.006654e-016
      outer loop
         vertex 7.113949e+001 2.315000e+002 4.075510e+002
         vertex 4.709913e+001 2.315000e+002 3.890568e+002
         vertex 6.142200e+001 2.315000e+002 4.357726e+002
      endloop
   endfacet
   facet normal 8.134598e-018 1.000000e+000 1.006654e-016
      outer loop
         vertex 6.142200e+001 2.315000e+002 4.357726e+002
         vertex 4.709913e+001 2.315000e+002 3.890568e+002
         vertex 4.128769e+001 2.315000e+002 4.220151e+002
      endloop
   endfacet
   facet normal 8.134598e-018 1.000000e+000 1.006654e-016
      outer loop
         vertex 6.142200e+001 2.315000e+002 4.357726e+002
         vertex 4.128769e+001 2.315000e+002 4.220151e+002
         vertex 1.721374e+001 2.315000e+002 4.452630e+002
      endloop
   endfacet
   facet normal 8.134598e-018 1.000000e+000 1.006654e-016
      outer loop
         vertex 6.142200e+001 2.315000e+002 4.357726e+002
         vertex 1.721374e+001 2.315000e+002 4.452630e+002
         vertex -1.748213e+001 2.315000e+002 4.742567e+002
      endloop
   endfacet
   facet normal 8.134598e-018 1.000000e+000 1.006654e-016
      outer loop
         vertex -1.748213e+001 2.315000e+002 4.742567e+002
         vertex 1.721374e+001 2.315000e+002 4.452630e+002
         vertex -1.592729e+001 2.315000e+002 4.499207e+002
      endloop
   endfacet
   facet normal 8.134598e-018 1.000000e+000 1.006654e-016
      outer loop
         vertex -1.748213e+001 2.315000e+002 4.742567e+002
         vertex -1.592729e+001 2.315000e+002 4.499207e+002
         vertex -4.570374e+001 2.315000e+002 4.645392e+002
      endloop
   endfacet
   facet normal 8.134598e-018 1.000000e+000 1.006654e-016
      outer loop
         vertex -4.570374e+001 2.315000e+002 4.645392e+002
         vertex -1.592729e+001 2.315000e+002 4.499207e+002
         vertex -4.547666e+001 2.315000e+002 4.342090e+002
      endloop
   endfacet
   facet normal 8.134598e-018 1.000000e+000 1.006654e-016
      outer loop
         vertex -4.570374e+001 2.315000e+002 4.645392e+002
         vertex -4.547666e+001 2.315000e+002 4.342090e+002
         vertex -8.418786e+001 2.315000e+002 3.856351e+002
      endloop
   endfacet
   facet normal 8.134598e-018 1.000000e+000 1.006654e-016
      outer loop
         vertex -8.418786e+001 2.315000e+002 3.856351e+002
         vertex -4.547666e+001 2.315000e+002 4.342090e+002
         vertex -6.014751e+001 2.315000e+002 4.041293e+002
      endloop
   endfacet
   facet normal 8.134598e-018 1.000000e+000 1.006654e-016
      outer loop
         vertex -8.418786e+001 2.315000e+002 3.856351e+002
         vertex -6.014751e+001 2.315000e+002 4.041293e+002
         vertex -7.447038e+001 2.315000e+002 3.574135e+002
      endloop
   endfacet
endsolid