solid IRB2400_10_m2000_rev3_01-5
   facet normal -1.000000e+000 4.083131e-031 3.304235e-016
      outer loop
         vertex -8.450000e+001 -6.100000e+001 1.265000e+003
         vertex -8.450000e+001 -5.500000e+001 1.265000e+003
         vertex -8.450000e+001 -6.100000e+001 1.223000e+003
      endloop
   endfacet
   facet normal -1.000000e+000 4.083131e-031 3.304235e-016
      outer loop
         vertex -8.450000e+001 -6.100000e+001 1.223000e+003
         vertex -8.450000e+001 -5.500000e+001 1.265000e+003
         vertex -8.450000e+001 -5.500000e+001 1.223000e+003
      endloop
   endfacet
   facet normal 1.000000e+000 1.235727e-015 2.707714e-016
      outer loop
         vertex -1.150000e+001 -2.700000e+001 1.271000e+003
         vertex -1.150000e+001 -6.100000e+001 1.271000e+003
         vertex -1.150000e+001 -2.700000e+001 1.245374e+003
      endloop
   endfacet
   facet normal 1.000000e+000 1.235727e-015 2.707714e-016
      outer loop
         vertex -1.150000e+001 -2.700000e+001 1.245374e+003
         vertex -1.150000e+001 -6.100000e+001 1.271000e+003
         vertex -1.150000e+001 -6.100000e+001 1.245374e+003
      endloop
   endfacet
   facet normal -7.071068e-001 -8.737906e-016 7.071068e-001
      outer loop
         vertex -7.850000e+001 -6.100000e+001 1.271000e+003
         vertex -7.850000e+001 -5.500000e+001 1.271000e+003
         vertex -8.450000e+001 -6.100000e+001 1.265000e+003
      endloop
   endfacet
   facet normal -7.071068e-001 -8.737906e-016 7.071068e-001
      outer loop
         vertex -8.450000e+001 -6.100000e+001 1.265000e+003
         vertex -7.850000e+001 -5.500000e+001 1.271000e+003
         vertex -8.450000e+001 -5.500000e+001 1.265000e+003
      endloop
   endfacet
   facet normal 0.000000e+000 1.000000e+000 1.527020e-030
      outer loop
         vertex -4.283039e+001 -2.650000e+001 1.312099e+003
         vertex -4.925735e+001 -2.650000e+001 1.297664e+003
         vertex -4.283039e+001 -2.650000e+001 1.327901e+003
      endloop
   endfacet
   facet normal 0.000000e+000 1.000000e+000 1.527020e-030
      outer loop
         vertex -4.283039e+001 -2.650000e+001 1.327901e+003
         vertex -4.925735e+001 -2.650000e+001 1.297664e+003
         vertex -6.100000e+001 -2.650000e+001 1.287091e+003
      endloop
   endfacet
   facet normal 0.000000e+000 1.000000e+000 1.527020e-030
      outer loop
         vertex -4.283039e+001 -2.650000e+001 1.327901e+003
         vertex -6.100000e+001 -2.650000e+001 1.287091e+003
         vertex -4.925735e+001 -2.650000e+001 1.342336e+003
      endloop
   endfacet
   facet normal 0.000000e+000 1.000000e+000 1.527020e-030
      outer loop
         vertex -4.925735e+001 -2.650000e+001 1.342336e+003
         vertex -6.100000e+001 -2.650000e+001 1.287091e+003
         vertex -6.100000e+001 -2.650000e+001 1.352909e+003
      endloop
   endfacet
   facet normal 0.000000e+000 1.000000e+000 1.527020e-030
      outer loop
         vertex -1.180000e+002 -2.650000e+001 1.320000e+003
         vertex -1.147147e+002 -2.650000e+001 1.335456e+003
         vertex -1.147147e+002 -2.650000e+001 1.304544e+003
      endloop
   endfacet
   facet normal 0.000000e+000 1.000000e+000 1.527020e-030
      outer loop
         vertex -1.147147e+002 -2.650000e+001 1.304544e+003
         vertex -1.147147e+002 -2.650000e+001 1.335456e+003
         vertex -9.174265e+001 -2.650000e+001 1.356140e+003
      endloop
   endfacet
   facet normal 0.000000e+000 1.000000e+000 1.527020e-030
      outer loop
         vertex -1.147147e+002 -2.650000e+001 1.304544e+003
         vertex -9.174265e+001 -2.650000e+001 1.356140e+003
         vertex -1.054270e+002 -2.650000e+001 1.291760e+003
      endloop
   endfacet
   facet normal 0.000000e+000 1.000000e+000 1.527020e-030
      outer loop
         vertex -1.054270e+002 -2.650000e+001 1.291760e+003
         vertex -9.174265e+001 -2.650000e+001 1.356140e+003
         vertex -6.100000e+001 -2.650000e+001 1.352909e+003
      endloop
   endfacet
   facet normal 0.000000e+000 1.000000e+000 1.527020e-030
      outer loop
         vertex -1.054270e+002 -2.650000e+001 1.291760e+003
         vertex -6.100000e+001 -2.650000e+001 1.352909e+003
         vertex -9.174265e+001 -2.650000e+001 1.283860e+003
      endloop
   endfacet
   facet normal 0.000000e+000 1.000000e+000 1.527020e-030
      outer loop
         vertex -9.174265e+001 -2.650000e+001 1.283860e+003
         vertex -6.100000e+001 -2.650000e+001 1.352909e+003
         vertex -6.100000e+001 -2.650000e+001 1.287091e+003
      endloop
   endfacet
   facet normal 0.000000e+000 1.000000e+000 1.527020e-030
      outer loop
         vertex -9.174265e+001 -2.650000e+001 1.283860e+003
         vertex -6.100000e+001 -2.650000e+001 1.287091e+003
         vertex -7.602792e+001 -2.650000e+001 1.282208e+003
      endloop
   endfacet
   facet normal 0.000000e+000 1.000000e+000 1.527020e-030
      outer loop
         vertex -1.147147e+002 -2.650000e+001 1.335456e+003
         vertex -1.054270e+002 -2.650000e+001 1.348240e+003
         vertex -9.174265e+001 -2.650000e+001 1.356140e+003
      endloop
   endfacet
   facet normal 0.000000e+000 1.000000e+000 1.527020e-030
      outer loop
         vertex -9.174265e+001 -2.650000e+001 1.356140e+003
         vertex -7.602792e+001 -2.650000e+001 1.357792e+003
         vertex -6.100000e+001 -2.650000e+001 1.352909e+003
      endloop
   endfacet
   facet normal 0.000000e+000 -1.000000e+000 -1.527020e-030
      outer loop
         vertex -4.925735e+001 -6.150000e+001 1.342336e+003
         vertex -6.100000e+001 -6.150000e+001 1.352909e+003
         vertex -4.283039e+001 -6.150000e+001 1.327901e+003
      endloop
   endfacet
   facet normal 0.000000e+000 -1.000000e+000 -1.527020e-030
      outer loop
         vertex -4.283039e+001 -6.150000e+001 1.327901e+003
         vertex -6.100000e+001 -6.150000e+001 1.352909e+003
         vertex -6.100000e+001 -6.150000e+001 1.287091e+003
      endloop
   endfacet
   facet normal 0.000000e+000 -1.000000e+000 -1.527020e-030
      outer loop
         vertex -4.283039e+001 -6.150000e+001 1.327901e+003
         vertex -6.100000e+001 -6.150000e+001 1.287091e+003
         vertex -4.283039e+001 -6.150000e+001 1.312099e+003
      endloop
   endfacet
   facet normal 0.000000e+000 -1.000000e+000 -1.527020e-030
      outer loop
         vertex -4.283039e+001 -6.150000e+001 1.312099e+003
         vertex -6.100000e+001 -6.150000e+001 1.287091e+003
         vertex -4.925735e+001 -6.150000e+001 1.297664e+003
      endloop
   endfacet
   facet normal 0.000000e+000 -1.000000e+000 -1.527020e-030
      outer loop
         vertex -6.100000e+001 -6.150000e+001 1.352909e+003
         vertex -9.174265e+001 -6.150000e+001 1.356140e+003
         vertex -6.100000e+001 -6.150000e+001 1.287091e+003
      endloop
   endfacet
   facet normal 0.000000e+000 -1.000000e+000 -1.527020e-030
      outer loop
         vertex -6.100000e+001 -6.150000e+001 1.287091e+003
         vertex -9.174265e+001 -6.150000e+001 1.356140e+003
         vertex -1.054270e+002 -6.150000e+001 1.348240e+003
      endloop
   endfacet
   facet normal 0.000000e+000 -1.000000e+000 -1.527020e-030
      outer loop
         vertex -6.100000e+001 -6.150000e+001 1.287091e+003
         vertex -1.054270e+002 -6.150000e+001 1.348240e+003
         vertex -9.174265e+001 -6.150000e+001 1.283860e+003
      endloop
   endfacet
   facet normal 0.000000e+000 -1.000000e+000 -1.527020e-030
      outer loop
         vertex -9.174265e+001 -6.150000e+001 1.283860e+003
         vertex -1.054270e+002 -6.150000e+001 1.348240e+003
         vertex -1.147147e+002 -6.150000e+001 1.304544e+003
      endloop
   endfacet
   facet normal 0.000000e+000 -1.000000e+000 -1.527020e-030
      outer loop
         vertex -9.174265e+001 -6.150000e+001 1.283860e+003
         vertex -1.147147e+002 -6.150000e+001 1.304544e+003
         vertex -1.054270e+002 -6.150000e+001 1.291760e+003
      endloop
   endfacet
   facet normal 0.000000e+000 -1.000000e+000 -1.527020e-030
      outer loop
         vertex -1.147147e+002 -6.150000e+001 1.335456e+003
         vertex -1.180000e+002 -6.150000e+001 1.320000e+003
         vertex -1.054270e+002 -6.150000e+001 1.348240e+003
      endloop
   endfacet
   facet normal 0.000000e+000 -1.000000e+000 -1.527020e-030
      outer loop
         vertex -1.054270e+002 -6.150000e+001 1.348240e+003
         vertex -1.180000e+002 -6.150000e+001 1.320000e+003
         vertex -1.147147e+002 -6.150000e+001 1.304544e+003
      endloop
   endfacet
   facet normal 0.000000e+000 -1.000000e+000 -1.527020e-030
      outer loop
         vertex -6.100000e+001 -6.150000e+001 1.352909e+003
         vertex -7.602792e+001 -6.150000e+001 1.357792e+003
         vertex -9.174265e+001 -6.150000e+001 1.356140e+003
      endloop
   endfacet
   facet normal 0.000000e+000 -1.000000e+000 -1.527020e-030
      outer loop
         vertex -9.174265e+001 -6.150000e+001 1.283860e+003
         vertex -7.602792e+001 -6.150000e+001 1.282208e+003
         vertex -6.100000e+001 -6.150000e+001 1.287091e+003
      endloop
   endfacet
   facet normal 0.000000e+000 -1.000000e+000 -1.527020e-030
      outer loop
         vertex -7.209936e+001 -6.150000e+001 5.778304e+002
         vertex -5.766416e+001 -6.150000e+001 5.842574e+002
         vertex -8.790064e+001 -6.150000e+001 5.778304e+002
      endloop
   endfacet
   facet normal 0.000000e+000 -1.000000e+000 -1.527020e-030
      outer loop
         vertex -8.790064e+001 -6.150000e+001 5.778304e+002
         vertex -5.766416e+001 -6.150000e+001 5.842574e+002
         vertex -4.709103e+001 -6.150000e+001 5.960000e+002
      endloop
   endfacet
   facet normal 0.000000e+000 -1.000000e+000 -1.527020e-030
      outer loop
         vertex -8.790064e+001 -6.150000e+001 5.778304e+002
         vertex -4.709103e+001 -6.150000e+001 5.960000e+002
         vertex -1.023358e+002 -6.150000e+001 5.842574e+002
      endloop
   endfacet
   facet normal 0.000000e+000 -1.000000e+000 -1.527020e-030
      outer loop
         vertex -1.023358e+002 -6.150000e+001 5.842574e+002
         vertex -4.709103e+001 -6.150000e+001 5.960000e+002
         vertex -1.177918e+002 -6.150000e+001 6.110279e+002
      endloop
   endfacet
   facet normal 0.000000e+000 -1.000000e+000 -1.527020e-030
      outer loop
         vertex -1.023358e+002 -6.150000e+001 5.842574e+002
         vertex -1.177918e+002 -6.150000e+001 6.110279e+002
         vertex -1.129090e+002 -6.150000e+001 5.960000e+002
      endloop
   endfacet
   facet normal 0.000000e+000 -1.000000e+000 -1.527020e-030
      outer loop
         vertex -8.000000e+001 -6.150000e+001 6.530000e+002
         vertex -9.545599e+001 -6.150000e+001 6.497147e+002
         vertex -6.454401e+001 -6.150000e+001 6.497147e+002
      endloop
   endfacet
   facet normal 0.000000e+000 -1.000000e+000 -1.527020e-030
      outer loop
         vertex -6.454401e+001 -6.150000e+001 6.497147e+002
         vertex -9.545599e+001 -6.150000e+001 6.497147e+002
         vertex -1.082395e+002 -6.150000e+001 6.404269e+002
      endloop
   endfacet
   facet normal 0.000000e+000 -1.000000e+000 -1.527020e-030
      outer loop
         vertex -6.454401e+001 -6.150000e+001 6.497147e+002
         vertex -1.082395e+002 -6.150000e+001 6.404269e+002
         vertex -5.176050e+001 -6.150000e+001 6.404269e+002
      endloop
   endfacet
   facet normal 0.000000e+000 -1.000000e+000 -1.527020e-030
      outer loop
         vertex -5.176050e+001 -6.150000e+001 6.404269e+002
         vertex -1.082395e+002 -6.150000e+001 6.404269e+002
         vertex -4.385985e+001 -6.150000e+001 6.267427e+002
      endloop
   endfacet
   facet normal 0.000000e+000 -1.000000e+000 -1.527020e-030
      outer loop
         vertex -4.220817e+001 -6.150000e+001 6.110279e+002
         vertex -1.082395e+002 -6.150000e+001 6.404269e+002
         vertex -4.709103e+001 -6.150000e+001 5.960000e+002
      endloop
   endfacet
   facet normal 0.000000e+000 -1.000000e+000 -1.527020e-030
      outer loop
         vertex -4.709103e+001 -6.150000e+001 5.960000e+002
         vertex -1.082395e+002 -6.150000e+001 6.404269e+002
         vertex -1.161402e+002 -6.150000e+001 6.267427e+002
      endloop
   endfacet
   facet normal 0.000000e+000 -1.000000e+000 -1.527020e-030
      outer loop
         vertex -4.709103e+001 -6.150000e+001 5.960000e+002
         vertex -1.161402e+002 -6.150000e+001 6.267427e+002
         vertex -1.177918e+002 -6.150000e+001 6.110279e+002
      endloop
   endfacet
   facet normal 0.000000e+000 -1.000000e+000 -1.527020e-030
      outer loop
         vertex -4.220817e+001 -6.150000e+001 6.110279e+002
         vertex -4.385985e+001 -6.150000e+001 6.267427e+002
         vertex -1.082395e+002 -6.150000e+001 6.404269e+002
      endloop
   endfacet
   facet normal 0.000000e+000 1.000000e+000 1.527020e-030
      outer loop
         vertex -5.766416e+001 -2.650000e+001 5.842574e+002
         vertex -7.209936e+001 -2.650000e+001 5.778304e+002
         vertex -4.709103e+001 -2.650000e+001 5.960000e+002
      endloop
   endfacet
   facet normal 0.000000e+000 1.000000e+000 1.527020e-030
      outer loop
         vertex -4.709103e+001 -2.650000e+001 5.960000e+002
         vertex -7.209936e+001 -2.650000e+001 5.778304e+002
         vertex -8.790064e+001 -2.650000e+001 5.778304e+002
      endloop
   endfacet
   facet normal 0.000000e+000 1.000000e+000 1.527020e-030
      outer loop
         vertex -4.709103e+001 -2.650000e+001 5.960000e+002
         vertex -8.790064e+001 -2.650000e+001 5.778304e+002
         vertex -4.220817e+001 -2.650000e+001 6.110279e+002
      endloop
   endfacet
   facet normal 0.000000e+000 1.000000e+000 1.527020e-030
      outer loop
         vertex -4.220817e+001 -2.650000e+001 6.110279e+002
         vertex -8.790064e+001 -2.650000e+001 5.778304e+002
         vertex -4.385985e+001 -2.650000e+001 6.267427e+002
      endloop
   endfacet
   facet normal 0.000000e+000 1.000000e+000 1.527020e-030
      outer loop
         vertex -8.000000e+001 -2.650000e+001 6.530000e+002
         vertex -6.454401e+001 -2.650000e+001 6.497147e+002
         vertex -8.790064e+001 -2.650000e+001 5.778304e+002
      endloop
   endfacet
   facet normal 0.000000e+000 1.000000e+000 1.527020e-030
      outer loop
         vertex -8.790064e+001 -2.650000e+001 5.778304e+002
         vertex -6.454401e+001 -2.650000e+001 6.497147e+002
         vertex -5.176050e+001 -2.650000e+001 6.404269e+002
      endloop
   endfacet
   facet normal 0.000000e+000 1.000000e+000 1.527020e-030
      outer loop
         vertex -8.790064e+001 -2.650000e+001 5.778304e+002
         vertex -5.176050e+001 -2.650000e+001 6.404269e+002
         vertex -4.385985e+001 -2.650000e+001 6.267427e+002
      endloop
   endfacet
   facet normal 0.000000e+000 1.000000e+000 1.527020e-030
      outer loop
         vertex -9.545599e+001 -2.650000e+001 6.497147e+002
         vertex -8.000000e+001 -2.650000e+001 6.530000e+002
         vertex -1.082395e+002 -2.650000e+001 6.404269e+002
      endloop
   endfacet
   facet normal 0.000000e+000 1.000000e+000 1.527020e-030
      outer loop
         vertex -1.082395e+002 -2.650000e+001 6.404269e+002
         vertex -8.000000e+001 -2.650000e+001 6.530000e+002
         vertex -8.790064e+001 -2.650000e+001 5.778304e+002
      endloop
   endfacet
   facet normal 0.000000e+000 1.000000e+000 1.527020e-030
      outer loop
         vertex -1.082395e+002 -2.650000e+001 6.404269e+002
         vertex -8.790064e+001 -2.650000e+001 5.778304e+002
         vertex -1.161402e+002 -2.650000e+001 6.267427e+002
      endloop
   endfacet
   facet normal 0.000000e+000 1.000000e+000 1.527020e-030
      outer loop
         vertex -1.161402e+002 -2.650000e+001 6.267427e+002
         vertex -8.790064e+001 -2.650000e+001 5.778304e+002
         vertex -1.023358e+002 -2.650000e+001 5.842574e+002
      endloop
   endfacet
   facet normal 0.000000e+000 1.000000e+000 1.527020e-030
      outer loop
         vertex -1.161402e+002 -2.650000e+001 6.267427e+002
         vertex -1.023358e+002 -2.650000e+001 5.842574e+002
         vertex -1.177918e+002 -2.650000e+001 6.110279e+002
      endloop
   endfacet
   facet normal 0.000000e+000 1.000000e+000 1.527020e-030
      outer loop
         vertex -1.177918e+002 -2.650000e+001 6.110279e+002
         vertex -1.023358e+002 -2.650000e+001 5.842574e+002
         vertex -1.129090e+002 -2.650000e+001 5.960000e+002
      endloop
   endfacet
   facet normal -7.071068e-001 -8.737906e-016 -7.071068e-001
      outer loop
         vertex -8.450000e+001 -6.100000e+001 1.223000e+003
         vertex -8.450000e+001 -5.500000e+001 1.223000e+003
         vertex -7.850000e+001 -6.100000e+001 1.217000e+003
      endloop
   endfacet
   facet normal -7.071068e-001 -8.737906e-016 -7.071068e-001
      outer loop
         vertex -7.850000e+001 -6.100000e+001 1.217000e+003
         vertex -8.450000e+001 -5.500000e+001 1.223000e+003
         vertex -7.850000e+001 -5.500000e+001 1.217000e+003
      endloop
   endfacet
   facet normal 1.339158e-015 -1.000000e+000 3.626056e-031
      outer loop
         vertex -1.150000e+001 -6.100000e+001 1.271000e+003
         vertex -7.850000e+001 -6.100000e+001 1.271000e+003
         vertex -1.150000e+001 -6.100000e+001 1.245374e+003
      endloop
   endfacet
   facet normal 1.339158e-015 -1.000000e+000 3.626056e-031
      outer loop
         vertex -1.150000e+001 -6.100000e+001 1.245374e+003
         vertex -7.850000e+001 -6.100000e+001 1.271000e+003
         vertex -8.450000e+001 -6.100000e+001 1.265000e+003
      endloop
   endfacet
   facet normal 1.339158e-015 -1.000000e+000 3.626056e-031
      outer loop
         vertex -1.150000e+001 -6.100000e+001 1.245374e+003
         vertex -8.450000e+001 -6.100000e+001 1.265000e+003
         vertex -3.704771e+001 -6.100000e+001 1.217000e+003
      endloop
   endfacet
   facet normal 1.339158e-015 -1.000000e+000 3.626056e-031
      outer loop
         vertex -3.704771e+001 -6.100000e+001 1.217000e+003
         vertex -8.450000e+001 -6.100000e+001 1.265000e+003
         vertex -8.450000e+001 -6.100000e+001 1.223000e+003
      endloop
   endfacet
   facet normal 1.339158e-015 -1.000000e+000 3.626056e-031
      outer loop
         vertex -3.704771e+001 -6.100000e+001 1.217000e+003
         vertex -8.450000e+001 -6.100000e+001 1.223000e+003
         vertex -7.850000e+001 -6.100000e+001 1.217000e+003
      endloop
   endfacet
   facet normal 7.431448e-001 9.183238e-016 -6.691306e-001
      outer loop
         vertex -1.150000e+001 -2.700000e+001 1.245374e+003
         vertex -1.150000e+001 -6.100000e+001 1.245374e+003
         vertex -3.704771e+001 -2.700000e+001 1.217000e+003
      endloop
   endfacet
   facet normal 7.431448e-001 9.183238e-016 -6.691306e-001
      outer loop
         vertex -3.704771e+001 -2.700000e+001 1.217000e+003
         vertex -1.150000e+001 -6.100000e+001 1.245374e+003
         vertex -3.704771e+001 -6.100000e+001 1.217000e+003
      endloop
   endfacet
   facet normal -1.339158e-015 1.000000e+000 -3.626056e-031
      outer loop
         vertex -8.450000e+001 -2.700000e+001 1.223000e+003
         vertex -8.450000e+001 -2.700000e+001 1.265000e+003
         vertex -7.850000e+001 -2.700000e+001 1.217000e+003
      endloop
   endfacet
   facet normal -1.339158e-015 1.000000e+000 -3.626056e-031
      outer loop
         vertex -7.850000e+001 -2.700000e+001 1.217000e+003
         vertex -8.450000e+001 -2.700000e+001 1.265000e+003
         vertex -7.850000e+001 -2.700000e+001 1.271000e+003
      endloop
   endfacet
   facet normal -1.339158e-015 1.000000e+000 -3.626056e-031
      outer loop
         vertex -7.850000e+001 -2.700000e+001 1.217000e+003
         vertex -7.850000e+001 -2.700000e+001 1.271000e+003
         vertex -3.704771e+001 -2.700000e+001 1.217000e+003
      endloop
   endfacet
   facet normal -1.339158e-015 1.000000e+000 -3.626056e-031
      outer loop
         vertex -3.704771e+001 -2.700000e+001 1.217000e+003
         vertex -7.850000e+001 -2.700000e+001 1.271000e+003
         vertex -1.150000e+001 -2.700000e+001 1.245374e+003
      endloop
   endfacet
   facet normal -1.339158e-015 1.000000e+000 -3.626056e-031
      outer loop
         vertex -7.850000e+001 -2.700000e+001 1.271000e+003
         vertex -1.150000e+001 -2.700000e+001 1.271000e+003
         vertex -1.150000e+001 -2.700000e+001 1.245374e+003
      endloop
   endfacet
   facet normal 1.984033e-015 -1.000000e+000 -2.277657e-015
      outer loop
         vertex -3.931283e+001 -5.500000e+001 1.217000e+003
         vertex -7.850000e+001 -5.500000e+001 1.217000e+003
         vertex -7.581283e+001 -5.500000e+001 1.180500e+003
      endloop
   endfacet
   facet normal 1.984033e-015 -1.000000e+000 -2.277657e-015
      outer loop
         vertex -7.581283e+001 -5.500000e+001 1.180500e+003
         vertex -7.850000e+001 -5.500000e+001 1.217000e+003
         vertex -1.098128e+002 -5.500000e+001 1.240000e+003
      endloop
   endfacet
   facet normal 1.984033e-015 -1.000000e+000 -2.277657e-015
      outer loop
         vertex -7.581283e+001 -5.500000e+001 1.180500e+003
         vertex -1.098128e+002 -5.500000e+001 1.240000e+003
         vertex -7.581283e+001 -5.500000e+001 1.158000e+003
      endloop
   endfacet
   facet normal 1.984033e-015 -1.000000e+000 -2.277657e-015
      outer loop
         vertex -7.581283e+001 -5.500000e+001 1.158000e+003
         vertex -1.098128e+002 -5.500000e+001 1.240000e+003
         vertex -1.098128e+002 -5.500000e+001 1.153194e+003
      endloop
   endfacet
   facet normal 1.984033e-015 -1.000000e+000 -2.277657e-015
      outer loop
         vertex -7.581283e+001 -5.500000e+001 1.158000e+003
         vertex -1.098128e+002 -5.500000e+001 1.153194e+003
         vertex -5.172662e+001 -5.500000e+001 1.074500e+003
      endloop
   endfacet
   facet normal 1.984033e-015 -1.000000e+000 -2.277657e-015
      outer loop
         vertex -5.172662e+001 -5.500000e+001 1.074500e+003
         vertex -1.098128e+002 -5.500000e+001 1.153194e+003
         vertex -8.571902e+001 -5.500000e+001 1.069668e+003
      endloop
   endfacet
   facet normal 1.984033e-015 -1.000000e+000 -2.277657e-015
      outer loop
         vertex -5.172662e+001 -5.500000e+001 1.074500e+003
         vertex -8.571902e+001 -5.500000e+001 1.069668e+003
         vertex -5.138820e+001 -5.500000e+001 8.605000e+002
      endloop
   endfacet
   facet normal 1.984033e-015 -1.000000e+000 -2.277657e-015
      outer loop
         vertex -5.138820e+001 -5.500000e+001 8.605000e+002
         vertex -8.571902e+001 -5.500000e+001 1.069668e+003
         vertex -8.539571e+001 -5.500000e+001 8.652246e+002
      endloop
   endfacet
   facet normal 1.984033e-015 -1.000000e+000 -2.277657e-015
      outer loop
         vertex -5.138820e+001 -5.500000e+001 8.605000e+002
         vertex -8.539571e+001 -5.500000e+001 8.652246e+002
         vertex -7.518860e+001 -5.500000e+001 7.770000e+002
      endloop
   endfacet
   facet normal 1.984033e-015 -1.000000e+000 -2.277657e-015
      outer loop
         vertex -7.518860e+001 -5.500000e+001 7.770000e+002
         vertex -8.539571e+001 -5.500000e+001 8.652246e+002
         vertex -1.087020e+002 -5.500000e+001 7.834581e+002
      endloop
   endfacet
   facet normal 1.984033e-015 -1.000000e+000 -2.277657e-015
      outer loop
         vertex -7.518860e+001 -5.500000e+001 7.770000e+002
         vertex -1.087020e+002 -5.500000e+001 7.834581e+002
         vertex -7.518861e+001 -5.500000e+001 6.788251e+002
      endloop
   endfacet
   facet normal 1.984033e-015 -1.000000e+000 -2.277657e-015
      outer loop
         vertex -7.518861e+001 -5.500000e+001 6.788251e+002
         vertex -1.087020e+002 -5.500000e+001 7.834581e+002
         vertex -1.087020e+002 -5.500000e+001 6.399037e+002
      endloop
   endfacet
   facet normal 1.984033e-015 -1.000000e+000 -2.277657e-015
      outer loop
         vertex -7.518861e+001 -5.500000e+001 6.788251e+002
         vertex -1.087020e+002 -5.500000e+001 6.399037e+002
         vertex -1.082395e+002 -5.500000e+001 6.404269e+002
      endloop
   endfacet
   facet normal 1.984033e-015 -1.000000e+000 -2.277657e-015
      outer loop
         vertex -6.100000e+001 -5.500000e+001 1.287091e+003
         vertex -7.602792e+001 -5.500000e+001 1.282208e+003
         vertex -7.850000e+001 -5.500000e+001 1.271000e+003
      endloop
   endfacet
   facet normal 1.984033e-015 -1.000000e+000 -2.277657e-015
      outer loop
         vertex -7.850000e+001 -5.500000e+001 1.271000e+003
         vertex -7.602792e+001 -5.500000e+001 1.282208e+003
         vertex -9.174265e+001 -5.500000e+001 1.283860e+003
      endloop
   endfacet
   facet normal 1.984033e-015 -1.000000e+000 -2.277657e-015
      outer loop
         vertex -7.850000e+001 -5.500000e+001 1.271000e+003
         vertex -9.174265e+001 -5.500000e+001 1.283860e+003
         vertex -8.450000e+001 -5.500000e+001 1.265000e+003
      endloop
   endfacet
   facet normal 1.984033e-015 -1.000000e+000 -2.277657e-015
      outer loop
         vertex -8.450000e+001 -5.500000e+001 1.265000e+003
         vertex -9.174265e+001 -5.500000e+001 1.283860e+003
         vertex -1.054270e+002 -5.500000e+001 1.291760e+003
      endloop
   endfacet
   facet normal 1.984033e-015 -1.000000e+000 -2.277657e-015
      outer loop
         vertex -8.450000e+001 -5.500000e+001 1.265000e+003
         vertex -1.054270e+002 -5.500000e+001 1.291760e+003
         vertex -1.098128e+002 -5.500000e+001 1.240000e+003
      endloop
   endfacet
   facet normal 1.984033e-015 -1.000000e+000 -2.277657e-015
      outer loop
         vertex -1.098128e+002 -5.500000e+001 1.240000e+003
         vertex -1.054270e+002 -5.500000e+001 1.291760e+003
         vertex -1.147147e+002 -5.500000e+001 1.304544e+003
      endloop
   endfacet
   facet normal 1.984033e-015 -1.000000e+000 -2.277657e-015
      outer loop
         vertex -1.098128e+002 -5.500000e+001 1.240000e+003
         vertex -1.147147e+002 -5.500000e+001 1.304544e+003
         vertex -1.193405e+002 -5.500000e+001 1.320000e+003
      endloop
   endfacet
   facet normal 1.984033e-015 -1.000000e+000 -2.277657e-015
      outer loop
         vertex -1.193405e+002 -5.500000e+001 1.320000e+003
         vertex -1.147147e+002 -5.500000e+001 1.304544e+003
         vertex -1.180000e+002 -5.500000e+001 1.320000e+003
      endloop
   endfacet
   facet normal 1.984033e-015 -1.000000e+000 -2.277657e-015
      outer loop
         vertex -1.193405e+002 -5.500000e+001 1.320000e+003
         vertex -1.180000e+002 -5.500000e+001 1.320000e+003
         vertex -1.167052e+002 -5.500000e+001 1.329835e+003
      endloop
   endfacet
   facet normal 1.984033e-015 -1.000000e+000 -2.277657e-015
      outer loop
         vertex -4.283039e+001 -5.500000e+001 1.312099e+003
         vertex -4.925735e+001 -5.500000e+001 1.297664e+003
         vertex -3.931283e+001 -5.500000e+001 1.271000e+003
      endloop
   endfacet
   facet normal 1.984033e-015 -1.000000e+000 -2.277657e-015
      outer loop
         vertex -3.931283e+001 -5.500000e+001 1.271000e+003
         vertex -4.925735e+001 -5.500000e+001 1.297664e+003
         vertex -6.100000e+001 -5.500000e+001 1.287091e+003
      endloop
   endfacet
   facet normal 1.984033e-015 -1.000000e+000 -2.277657e-015
      outer loop
         vertex -3.931283e+001 -5.500000e+001 1.271000e+003
         vertex -6.100000e+001 -5.500000e+001 1.287091e+003
         vertex -7.850000e+001 -5.500000e+001 1.271000e+003
      endloop
   endfacet
   facet normal 1.984033e-015 -1.000000e+000 -2.277657e-015
      outer loop
         vertex -4.329482e+001 -5.500000e+001 1.329835e+003
         vertex -4.283039e+001 -5.500000e+001 1.327901e+003
         vertex -3.931283e+001 -5.500000e+001 1.314974e+003
      endloop
   endfacet
   facet normal 1.984033e-015 -1.000000e+000 -2.277657e-015
      outer loop
         vertex -3.931283e+001 -5.500000e+001 1.314974e+003
         vertex -4.283039e+001 -5.500000e+001 1.327901e+003
         vertex -4.283039e+001 -5.500000e+001 1.312099e+003
      endloop
   endfacet
   facet normal 1.984033e-015 -1.000000e+000 -2.277657e-015
      outer loop
         vertex -3.931283e+001 -5.500000e+001 1.314974e+003
         vertex -4.283039e+001 -5.500000e+001 1.312099e+003
         vertex -3.931283e+001 -5.500000e+001 1.271000e+003
      endloop
   endfacet
   facet normal 1.984033e-015 -1.000000e+000 -2.277657e-015
      outer loop
         vertex -7.850000e+001 -5.500000e+001 1.217000e+003
         vertex -8.450000e+001 -5.500000e+001 1.223000e+003
         vertex -1.098128e+002 -5.500000e+001 1.240000e+003
      endloop
   endfacet
   facet normal 1.984033e-015 -1.000000e+000 -2.277657e-015
      outer loop
         vertex -1.098128e+002 -5.500000e+001 1.240000e+003
         vertex -8.450000e+001 -5.500000e+001 1.223000e+003
         vertex -8.450000e+001 -5.500000e+001 1.265000e+003
      endloop
   endfacet
   facet normal 1.984033e-015 -1.000000e+000 -2.277657e-015
      outer loop
         vertex -9.545599e+001 -5.500000e+001 6.497147e+002
         vertex -8.000000e+001 -5.500000e+001 6.530000e+002
         vertex -7.518861e+001 -5.500000e+001 6.788251e+002
      endloop
   endfacet
   facet normal 1.984033e-015 -1.000000e+000 -2.277657e-015
      outer loop
         vertex -7.518861e+001 -5.500000e+001 6.788251e+002
         vertex -8.000000e+001 -5.500000e+001 6.530000e+002
         vertex -6.454401e+001 -5.500000e+001 6.497147e+002
      endloop
   endfacet
   facet normal 1.984033e-015 -1.000000e+000 -2.277657e-015
      outer loop
         vertex -7.518861e+001 -5.500000e+001 6.788251e+002
         vertex -6.454401e+001 -5.500000e+001 6.497147e+002
         vertex -5.668370e+001 -5.500000e+001 6.450058e+002
      endloop
   endfacet
   facet normal 1.984033e-015 -1.000000e+000 -2.277657e-015
      outer loop
         vertex -1.082395e+002 -5.500000e+001 6.404269e+002
         vertex -9.545599e+001 -5.500000e+001 6.497147e+002
         vertex -7.518861e+001 -5.500000e+001 6.788251e+002
      endloop
   endfacet
   facet normal -7.071068e-001 -8.737906e-016 -7.071068e-001
      outer loop
         vertex -8.450000e+001 -2.700000e+001 1.223000e+003
         vertex -7.850000e+001 -2.700000e+001 1.217000e+003
         vertex -8.450000e+001 -3.300000e+001 1.223000e+003
      endloop
   endfacet
   facet normal -7.071068e-001 -8.737906e-016 -7.071068e-001
      outer loop
         vertex -8.450000e+001 -3.300000e+001 1.223000e+003
         vertex -7.850000e+001 -2.700000e+001 1.217000e+003
         vertex -7.850000e+001 -3.300000e+001 1.217000e+003
      endloop
   endfacet
   facet normal -1.000000e+000 4.083131e-031 3.304235e-016
      outer loop
         vertex -8.450000e+001 -2.700000e+001 1.265000e+003
         vertex -8.450000e+001 -2.700000e+001 1.223000e+003
         vertex -8.450000e+001 -3.300000e+001 1.265000e+003
      endloop
   endfacet
   facet normal -1.000000e+000 4.083131e-031 3.304235e-016
      outer loop
         vertex -8.450000e+001 -3.300000e+001 1.265000e+003
         vertex -8.450000e+001 -2.700000e+001 1.223000e+003
         vertex -8.450000e+001 -3.300000e+001 1.223000e+003
      endloop
   endfacet
   facet normal -7.071068e-001 -8.737906e-016 7.071068e-001
      outer loop
         vertex -7.850000e+001 -2.700000e+001 1.271000e+003
         vertex -8.450000e+001 -2.700000e+001 1.265000e+003
         vertex -7.850000e+001 -3.300000e+001 1.271000e+003
      endloop
   endfacet
   facet normal -7.071068e-001 -8.737906e-016 7.071068e-001
      outer loop
         vertex -7.850000e+001 -3.300000e+001 1.271000e+003
         vertex -8.450000e+001 -2.700000e+001 1.265000e+003
         vertex -8.450000e+001 -3.300000e+001 1.265000e+003
      endloop
   endfacet
   facet normal 0.000000e+000 0.000000e+000 1.000000e+000
      outer loop
         vertex -7.850000e+001 -5.500000e+001 1.271000e+003
         vertex -7.850000e+001 -6.100000e+001 1.271000e+003
         vertex -3.931283e+001 -5.500000e+001 1.271000e+003
      endloop
   endfacet
   facet normal 0.000000e+000 0.000000e+000 1.000000e+000
      outer loop
         vertex -3.931283e+001 -5.500000e+001 1.271000e+003
         vertex -7.850000e+001 -6.100000e+001 1.271000e+003
         vertex -1.150000e+001 -6.100000e+001 1.271000e+003
      endloop
   endfacet
   facet normal 0.000000e+000 0.000000e+000 1.000000e+000
      outer loop
         vertex -3.931283e+001 -5.500000e+001 1.271000e+003
         vertex -1.150000e+001 -6.100000e+001 1.271000e+003
         vertex -3.931283e+001 -3.300000e+001 1.271000e+003
      endloop
   endfacet
   facet normal 0.000000e+000 0.000000e+000 1.000000e+000
      outer loop
         vertex -3.931283e+001 -3.300000e+001 1.271000e+003
         vertex -1.150000e+001 -6.100000e+001 1.271000e+003
         vertex -1.150000e+001 -2.700000e+001 1.271000e+003
      endloop
   endfacet
   facet normal 0.000000e+000 0.000000e+000 1.000000e+000
      outer loop
         vertex -3.931283e+001 -3.300000e+001 1.271000e+003
         vertex -1.150000e+001 -2.700000e+001 1.271000e+003
         vertex -7.850000e+001 -3.300000e+001 1.271000e+003
      endloop
   endfacet
   facet normal 0.000000e+000 0.000000e+000 1.000000e+000
      outer loop
         vertex -7.850000e+001 -3.300000e+001 1.271000e+003
         vertex -1.150000e+001 -2.700000e+001 1.271000e+003
         vertex -7.850000e+001 -2.700000e+001 1.271000e+003
      endloop
   endfacet
   facet normal 1.000000e+000 1.984033e-015 -4.249423e-016
      outer loop
         vertex -3.931283e+001 -5.500000e+001 1.314974e+003
         vertex -3.931283e+001 -5.500000e+001 1.271000e+003
         vertex -3.931283e+001 -3.300000e+001 1.314974e+003
      endloop
   endfacet
   facet normal 1.000000e+000 1.984033e-015 -4.249423e-016
      outer loop
         vertex -3.931283e+001 -3.300000e+001 1.314974e+003
         vertex -3.931283e+001 -5.500000e+001 1.271000e+003
         vertex -3.931283e+001 -3.300000e+001 1.271000e+003
      endloop
   endfacet
   facet normal 9.659258e-001 1.326927e-015 2.588190e-001
      outer loop
         vertex -4.329482e+001 -5.500000e+001 1.329835e+003
         vertex -3.931283e+001 -5.500000e+001 1.314974e+003
         vertex -4.329482e+001 -3.300000e+001 1.329835e+003
      endloop
   endfacet
   facet normal 9.659258e-001 1.326927e-015 2.588190e-001
      outer loop
         vertex -4.329482e+001 -3.300000e+001 1.329835e+003
         vertex -3.931283e+001 -5.500000e+001 1.314974e+003
         vertex -3.931283e+001 -3.300000e+001 1.314974e+003
      endloop
   endfacet
   facet normal -9.743124e-001 -1.948504e-015 2.252008e-001
      outer loop
         vertex -1.180000e+002 -3.300000e+001 1.320000e+003
         vertex -1.167052e+002 -3.300000e+001 1.329835e+003
         vertex -1.147147e+002 -2.650000e+001 1.335456e+003
      endloop
   endfacet
   facet normal -9.335632e-001 -1.866758e-015 3.584127e-001
      outer loop
         vertex -1.147147e+002 -2.650000e+001 1.335456e+003
         vertex -1.167052e+002 -3.300000e+001 1.329835e+003
         vertex -1.147147e+002 -6.150000e+001 1.335456e+003
      endloop
   endfacet
   facet normal -8.485357e-001 -1.704392e-015 5.291381e-001
      outer loop
         vertex -1.147147e+002 -2.650000e+001 1.335456e+003
         vertex -1.147147e+002 -6.150000e+001 1.335456e+003
         vertex -1.054270e+002 -2.650000e+001 1.348240e+003
      endloop
   endfacet
   facet normal -7.654523e-001 -1.537508e-015 6.434927e-001
      outer loop
         vertex -1.054270e+002 -2.650000e+001 1.348240e+003
         vertex -1.147147e+002 -6.150000e+001 1.335456e+003
         vertex -1.054270e+002 -6.150000e+001 1.348240e+003
      endloop
   endfacet
   facet normal -5.599561e-001 -1.124743e-015 8.285223e-001
      outer loop
         vertex -1.054270e+002 -2.650000e+001 1.348240e+003
         vertex -1.054270e+002 -6.150000e+001 1.348240e+003
         vertex -9.174265e+001 -2.650000e+001 1.356140e+003
      endloop
   endfacet
   facet normal -4.375433e-001 -8.788614e-016 8.991973e-001
      outer loop
         vertex -9.174265e+001 -2.650000e+001 1.356140e+003
         vertex -1.054270e+002 -6.150000e+001 1.348240e+003
         vertex -9.174265e+001 -6.150000e+001 1.356140e+003
      endloop
   endfacet
   facet normal -1.745549e-001 -3.506158e-016 9.846475e-001
      outer loop
         vertex -9.174265e+001 -2.650000e+001 1.356140e+003
         vertex -9.174265e+001 -6.150000e+001 1.356140e+003
         vertex -7.602792e+001 -2.650000e+001 1.357792e+003
      endloop
   endfacet
   facet normal -3.397923e-002 -6.825160e-017 9.994226e-001
      outer loop
         vertex -7.602792e+001 -2.650000e+001 1.357792e+003
         vertex -9.174265e+001 -6.150000e+001 1.356140e+003
         vertex -7.602792e+001 -6.150000e+001 1.357792e+003
      endloop
   endfacet
   facet normal 2.410283e-001 4.841361e-016 9.705181e-001
      outer loop
         vertex -7.602792e+001 -2.650000e+001 1.357792e+003
         vertex -7.602792e+001 -6.150000e+001 1.357792e+003
         vertex -6.100000e+001 -2.650000e+001 1.352909e+003
      endloop
   endfacet
   facet normal 3.754602e-001 7.541596e-016 9.268385e-001
      outer loop
         vertex -6.100000e+001 -2.650000e+001 1.352909e+003
         vertex -7.602792e+001 -6.150000e+001 1.357792e+003
         vertex -6.100000e+001 -6.150000e+001 1.352909e+003
      endloop
   endfacet
   facet normal 6.149356e-001 1.235176e-015 7.885773e-001
      outer loop
         vertex -6.100000e+001 -2.650000e+001 1.352909e+003
         vertex -6.100000e+001 -6.150000e+001 1.352909e+003
         vertex -4.925735e+001 -2.650000e+001 1.342336e+003
      endloop
   endfacet
   facet normal 7.199792e-001 1.446170e-015 6.939957e-001
      outer loop
         vertex -4.925735e+001 -2.650000e+001 1.342336e+003
         vertex -6.100000e+001 -6.150000e+001 1.352909e+003
         vertex -4.925735e+001 -6.150000e+001 1.342336e+003
      endloop
   endfacet
   facet normal 8.743215e-001 1.747660e-015 4.853472e-001
      outer loop
         vertex -4.925735e+001 -2.650000e+001 1.342336e+003
         vertex -4.925735e+001 -6.150000e+001 1.342336e+003
         vertex -4.329482e+001 -5.500000e+001 1.329835e+003
      endloop
   endfacet
   facet normal 9.338408e-001 1.858853e-015 3.576890e-001
      outer loop
         vertex -4.329482e+001 -5.500000e+001 1.329835e+003
         vertex -4.925735e+001 -6.150000e+001 1.342336e+003
         vertex -4.283039e+001 -5.500000e+001 1.327901e+003
      endloop
   endfacet
   facet normal 9.743705e-001 1.940237e-015 2.249493e-001
      outer loop
         vertex -4.329482e+001 -3.300000e+001 1.329835e+003
         vertex -4.283039e+001 -3.300000e+001 1.327901e+003
         vertex -4.283039e+001 -2.650000e+001 1.327901e+003
      endloop
   endfacet
   facet normal 9.974994e-001 1.978816e-015 7.067502e-002
      outer loop
         vertex -4.283039e+001 -2.650000e+001 1.327901e+003
         vertex -4.283039e+001 -3.300000e+001 1.327901e+003
         vertex -4.283039e+001 -3.300000e+001 1.312099e+003
      endloop
   endfacet
   facet normal 9.974994e-001 1.987489e-015 -7.067502e-002
      outer loop
         vertex -4.283039e+001 -2.650000e+001 1.327901e+003
         vertex -4.283039e+001 -3.300000e+001 1.312099e+003
         vertex -4.283039e+001 -2.650000e+001 1.312099e+003
      endloop
   endfacet
   facet normal 9.400072e-001 1.878266e-015 -3.411547e-001
      outer loop
         vertex -4.283039e+001 -2.650000e+001 1.312099e+003
         vertex -4.283039e+001 -3.300000e+001 1.312099e+003
         vertex -4.925735e+001 -3.300000e+001 1.297664e+003
      endloop
   endfacet
   facet normal 8.825149e-001 1.778901e-015 -4.702844e-001
      outer loop
         vertex -4.283039e+001 -2.650000e+001 1.312099e+003
         vertex -4.925735e+001 -3.300000e+001 1.297664e+003
         vertex -4.925735e+001 -2.650000e+001 1.297664e+003
      endloop
   endfacet
   facet normal 7.199792e-001 1.452427e-015 -6.939957e-001
      outer loop
         vertex -4.925735e+001 -2.650000e+001 1.297664e+003
         vertex -4.925735e+001 -3.300000e+001 1.297664e+003
         vertex -6.100000e+001 -3.300000e+001 1.287091e+003
      endloop
   endfacet
   facet normal 6.149356e-001 1.235176e-015 -7.885773e-001
      outer loop
         vertex -4.925735e+001 -2.650000e+001 1.297664e+003
         vertex -6.100000e+001 -3.300000e+001 1.287091e+003
         vertex -6.100000e+001 -2.650000e+001 1.287091e+003
      endloop
   endfacet
   facet normal 3.754602e-001 7.448604e-016 -9.268385e-001
      outer loop
         vertex -6.100000e+001 -2.650000e+001 1.287091e+003
         vertex -6.100000e+001 -3.300000e+001 1.287091e+003
         vertex -7.602792e+001 -3.300000e+001 1.282208e+003
      endloop
   endfacet
   facet normal 2.410283e-001 4.748369e-016 -9.705181e-001
      outer loop
         vertex -6.100000e+001 -2.650000e+001 1.287091e+003
         vertex -7.602792e+001 -3.300000e+001 1.282208e+003
         vertex -7.602792e+001 -2.650000e+001 1.282208e+003
      endloop
   endfacet
   facet normal -3.397923e-002 -8.380839e-017 -9.994226e-001
      outer loop
         vertex -7.602792e+001 -2.650000e+001 1.282208e+003
         vertex -7.602792e+001 -3.300000e+001 1.282208e+003
         vertex -9.174265e+001 -3.300000e+001 1.283860e+003
      endloop
   endfacet
   facet normal -1.745549e-001 -3.568734e-016 -9.846475e-001
      outer loop
         vertex -7.602792e+001 -2.650000e+001 1.282208e+003
         vertex -9.174265e+001 -3.300000e+001 1.283860e+003
         vertex -9.174265e+001 -2.650000e+001 1.283860e+003
      endloop
   endfacet
   facet normal -4.375433e-001 -8.937820e-016 -8.991973e-001
      outer loop
         vertex -9.174265e+001 -2.650000e+001 1.283860e+003
         vertex -9.174265e+001 -3.300000e+001 1.283860e+003
         vertex -1.054270e+002 -3.300000e+001 1.291760e+003
      endloop
   endfacet
   facet normal -5.599561e-001 -1.133406e-015 -8.285223e-001
      outer loop
         vertex -9.174265e+001 -2.650000e+001 1.283860e+003
         vertex -1.054270e+002 -3.300000e+001 1.291760e+003
         vertex -1.054270e+002 -2.650000e+001 1.291760e+003
      endloop
   endfacet
   facet normal -7.654523e-001 -1.543130e-015 -6.434927e-001
      outer loop
         vertex -1.054270e+002 -2.650000e+001 1.291760e+003
         vertex -1.054270e+002 -3.300000e+001 1.291760e+003
         vertex -1.147147e+002 -3.300000e+001 1.304544e+003
      endloop
   endfacet
   facet normal -8.485357e-001 -1.701350e-015 -5.291381e-001
      outer loop
         vertex -1.054270e+002 -2.650000e+001 1.291760e+003
         vertex -1.147147e+002 -3.300000e+001 1.304544e+003
         vertex -1.147147e+002 -2.650000e+001 1.304544e+003
      endloop
   endfacet
   facet normal -9.610075e-001 -1.927264e-015 -2.765224e-001
      outer loop
         vertex -1.147147e+002 -2.650000e+001 1.304544e+003
         vertex -1.147147e+002 -3.300000e+001 1.304544e+003
         vertex -1.180000e+002 -3.300000e+001 1.320000e+003
      endloop
   endfacet
   facet normal -9.903958e-001 -1.980468e-015 -1.382612e-001
      outer loop
         vertex -1.147147e+002 -2.650000e+001 1.304544e+003
         vertex -1.180000e+002 -3.300000e+001 1.320000e+003
         vertex -1.180000e+002 -2.650000e+001 1.320000e+003
      endloop
   endfacet
   facet normal -9.903958e-001 -1.980468e-015 1.382612e-001
      outer loop
         vertex -1.180000e+002 -2.650000e+001 1.320000e+003
         vertex -1.180000e+002 -3.300000e+001 1.320000e+003
         vertex -1.147147e+002 -2.650000e+001 1.335456e+003
      endloop
   endfacet
   facet normal -9.962141e-001 -1.975035e-015 8.693379e-002
      outer loop
         vertex -1.180000e+002 -5.500000e+001 1.320000e+003
         vertex -1.180000e+002 -6.150000e+001 1.320000e+003
         vertex -1.167052e+002 -5.500000e+001 1.329835e+003
      endloop
   endfacet
   facet normal -9.743124e-001 -1.939678e-015 2.252008e-001
      outer loop
         vertex -1.167052e+002 -5.500000e+001 1.329835e+003
         vertex -1.180000e+002 -6.150000e+001 1.320000e+003
         vertex -1.147147e+002 -6.150000e+001 1.335456e+003
      endloop
   endfacet
   facet normal -9.510713e-001 -1.893504e-015 3.089714e-001
      outer loop
         vertex -1.167052e+002 -5.500000e+001 1.329835e+003
         vertex -1.147147e+002 -6.150000e+001 1.335456e+003
         vertex -1.167052e+002 -3.300000e+001 1.329835e+003
      endloop
   endfacet
   facet normal 9.400072e-001 1.879767e-015 3.411547e-001
      outer loop
         vertex -4.925735e+001 -6.150000e+001 1.342336e+003
         vertex -4.283039e+001 -6.150000e+001 1.327901e+003
         vertex -4.283039e+001 -5.500000e+001 1.327901e+003
      endloop
   endfacet
   facet normal 9.974994e-001 1.995248e-015 7.067502e-002
      outer loop
         vertex -4.283039e+001 -5.500000e+001 1.327901e+003
         vertex -4.283039e+001 -6.150000e+001 1.327901e+003
         vertex -4.283039e+001 -6.150000e+001 1.312099e+003
      endloop
   endfacet
   facet normal 9.974994e-001 1.986892e-015 -7.067502e-002
      outer loop
         vertex -4.283039e+001 -5.500000e+001 1.327901e+003
         vertex -4.283039e+001 -6.150000e+001 1.312099e+003
         vertex -4.283039e+001 -5.500000e+001 1.312099e+003
      endloop
   endfacet
   facet normal 9.400072e-001 1.879767e-015 -3.411547e-001
      outer loop
         vertex -4.283039e+001 -5.500000e+001 1.312099e+003
         vertex -4.283039e+001 -6.150000e+001 1.312099e+003
         vertex -4.925735e+001 -6.150000e+001 1.297664e+003
      endloop
   endfacet
   facet normal 8.825149e-001 1.755027e-015 -4.702844e-001
      outer loop
         vertex -4.283039e+001 -5.500000e+001 1.312099e+003
         vertex -4.925735e+001 -6.150000e+001 1.297664e+003
         vertex -4.925735e+001 -5.500000e+001 1.297664e+003
      endloop
   endfacet
   facet normal 7.199792e-001 1.436909e-015 -6.939957e-001
      outer loop
         vertex -4.925735e+001 -5.500000e+001 1.297664e+003
         vertex -4.925735e+001 -6.150000e+001 1.297664e+003
         vertex -6.100000e+001 -6.150000e+001 1.287091e+003
      endloop
   endfacet
   facet normal 6.149356e-001 1.218157e-015 -7.885773e-001
      outer loop
         vertex -4.925735e+001 -5.500000e+001 1.297664e+003
         vertex -6.100000e+001 -6.150000e+001 1.287091e+003
         vertex -6.100000e+001 -5.500000e+001 1.287091e+003
      endloop
   endfacet
   facet normal 3.754602e-001 7.464006e-016 -9.268385e-001
      outer loop
         vertex -6.100000e+001 -5.500000e+001 1.287091e+003
         vertex -6.100000e+001 -6.150000e+001 1.287091e+003
         vertex -7.602792e+001 -6.150000e+001 1.282208e+003
      endloop
   endfacet
   facet normal 2.410283e-001 4.748369e-016 -9.705181e-001
      outer loop
         vertex -6.100000e+001 -5.500000e+001 1.287091e+003
         vertex -7.602792e+001 -6.150000e+001 1.282208e+003
         vertex -7.602792e+001 -5.500000e+001 1.282208e+003
      endloop
   endfacet
   facet normal -3.397923e-002 -6.979179e-017 -9.994226e-001
      outer loop
         vertex -7.602792e+001 -5.500000e+001 1.282208e+003
         vertex -7.602792e+001 -6.150000e+001 1.282208e+003
         vertex -9.174265e+001 -6.150000e+001 1.283860e+003
      endloop
   endfacet
   facet normal -1.745549e-001 -3.506546e-016 -9.846475e-001
      outer loop
         vertex -7.602792e+001 -5.500000e+001 1.282208e+003
         vertex -9.174265e+001 -6.150000e+001 1.283860e+003
         vertex -9.174265e+001 -5.500000e+001 1.283860e+003
      endloop
   endfacet
   facet normal -4.375433e-001 -8.773601e-016 -8.991973e-001
      outer loop
         vertex -9.174265e+001 -5.500000e+001 1.283860e+003
         vertex -9.174265e+001 -6.150000e+001 1.283860e+003
         vertex -1.054270e+002 -6.150000e+001 1.291760e+003
      endloop
   endfacet
   facet normal -5.599561e-001 -1.116387e-015 -8.285223e-001
      outer loop
         vertex -9.174265e+001 -5.500000e+001 1.283860e+003
         vertex -1.054270e+002 -6.150000e+001 1.291760e+003
         vertex -1.054270e+002 -5.500000e+001 1.291760e+003
      endloop
   endfacet
   facet normal -7.654523e-001 -1.530653e-015 -6.434927e-001
      outer loop
         vertex -1.054270e+002 -5.500000e+001 1.291760e+003
         vertex -1.054270e+002 -6.150000e+001 1.291760e+003
         vertex -1.147147e+002 -6.150000e+001 1.304544e+003
      endloop
   endfacet
   facet normal -8.485357e-001 -1.686736e-015 -5.291381e-001
      outer loop
         vertex -1.054270e+002 -5.500000e+001 1.291760e+003
         vertex -1.147147e+002 -6.150000e+001 1.304544e+003
         vertex -1.147147e+002 -5.500000e+001 1.304544e+003
      endloop
   endfacet
   facet normal -9.610075e-001 -1.910638e-015 -2.765224e-001
      outer loop
         vertex -1.147147e+002 -5.500000e+001 1.304544e+003
         vertex -1.147147e+002 -6.150000e+001 1.304544e+003
         vertex -1.180000e+002 -6.150000e+001 1.320000e+003
      endloop
   endfacet
   facet normal -9.903958e-001 -1.960801e-015 -1.382612e-001
      outer loop
         vertex -1.147147e+002 -5.500000e+001 1.304544e+003
         vertex -1.180000e+002 -6.150000e+001 1.320000e+003
         vertex -1.180000e+002 -5.500000e+001 1.320000e+003
      endloop
   endfacet
   facet normal 9.338408e-001 1.867191e-015 3.576890e-001
      outer loop
         vertex -4.925735e+001 -2.650000e+001 1.342336e+003
         vertex -4.329482e+001 -3.300000e+001 1.329835e+003
         vertex -4.283039e+001 -2.650000e+001 1.327901e+003
      endloop
   endfacet
   facet normal 9.274140e-001 1.845777e-015 3.740366e-001
      outer loop
         vertex -4.329482e+001 -5.500000e+001 1.329835e+003
         vertex -4.329482e+001 -3.300000e+001 1.329835e+003
         vertex -4.925735e+001 -2.650000e+001 1.342336e+003
      endloop
   endfacet
   facet normal -9.659258e-001 -2.505930e-015 2.588190e-001
      outer loop
         vertex -1.193405e+002 -5.500000e+001 1.320000e+003
         vertex -1.167052e+002 -5.500000e+001 1.329835e+003
         vertex -1.193405e+002 -3.300000e+001 1.320000e+003
      endloop
   endfacet
   facet normal -9.659258e-001 -2.505930e-015 2.588190e-001
      outer loop
         vertex -1.193405e+002 -3.300000e+001 1.320000e+003
         vertex -1.167052e+002 -5.500000e+001 1.329835e+003
         vertex -1.167052e+002 -3.300000e+001 1.329835e+003
      endloop
   endfacet
   facet normal -9.929827e-001 -1.700754e-015 -1.182600e-001
      outer loop
         vertex -1.098128e+002 -5.500000e+001 1.240000e+003
         vertex -1.193405e+002 -5.500000e+001 1.320000e+003
         vertex -1.098128e+002 -3.300000e+001 1.240000e+003
      endloop
   endfacet
   facet normal -9.929827e-001 -1.700754e-015 -1.182600e-001
      outer loop
         vertex -1.098128e+002 -3.300000e+001 1.240000e+003
         vertex -1.193405e+002 -5.500000e+001 1.320000e+003
         vertex -1.193405e+002 -3.300000e+001 1.320000e+003
      endloop
   endfacet
   facet normal -1.000000e+000 0.000000e+000 -8.377054e-030
      outer loop
         vertex -1.098128e+002 -5.500000e+001 1.153194e+003
         vertex -1.098128e+002 -5.500000e+001 1.240000e+003
         vertex -1.098128e+002 -3.300000e+001 1.153194e+003
      endloop
   endfacet
   facet normal -1.000000e+000 0.000000e+000 -8.377054e-030
      outer loop
         vertex -1.098128e+002 -3.300000e+001 1.153194e+003
         vertex -1.098128e+002 -5.500000e+001 1.240000e+003
         vertex -1.098128e+002 -3.300000e+001 1.240000e+003
      endloop
   endfacet
   facet normal -9.608246e-001 -1.275038e-015 -2.771571e-001
      outer loop
         vertex -8.571902e+001 -5.500000e+001 1.069668e+003
         vertex -1.098128e+002 -5.500000e+001 1.153194e+003
         vertex -8.571902e+001 -3.300000e+001 1.069668e+003
      endloop
   endfacet
   facet normal -9.608246e-001 -1.275038e-015 -2.771571e-001
      outer loop
         vertex -8.571902e+001 -3.300000e+001 1.069668e+003
         vertex -1.098128e+002 -5.500000e+001 1.153194e+003
         vertex -1.098128e+002 -3.300000e+001 1.153194e+003
      endloop
   endfacet
   facet normal -9.999987e-001 -1.980428e-015 -1.581412e-003
      outer loop
         vertex -8.539571e+001 -5.500000e+001 8.652246e+002
         vertex -8.571902e+001 -5.500000e+001 1.069668e+003
         vertex -8.539571e+001 -3.300000e+001 8.652246e+002
      endloop
   endfacet
   facet normal -9.999987e-001 -1.980428e-015 -1.581412e-003
      outer loop
         vertex -8.539571e+001 -3.300000e+001 8.652246e+002
         vertex -8.571902e+001 -5.500000e+001 1.069668e+003
         vertex -8.571902e+001 -3.300000e+001 1.069668e+003
      endloop
   endfacet
   facet normal -9.616964e-001 -2.532382e-015 2.741169e-001
      outer loop
         vertex -1.087020e+002 -5.500000e+001 7.834581e+002
         vertex -8.539571e+001 -5.500000e+001 8.652246e+002
         vertex -1.087020e+002 -3.300000e+001 7.834581e+002
      endloop
   endfacet
   facet normal -9.616964e-001 -2.532382e-015 2.741169e-001
      outer loop
         vertex -1.087020e+002 -3.300000e+001 7.834581e+002
         vertex -8.539571e+001 -5.500000e+001 8.652246e+002
         vertex -8.539571e+001 -3.300000e+001 8.652246e+002
      endloop
   endfacet
   facet normal -1.000000e+000 -1.937844e-015 1.543571e-007
      outer loop
         vertex -1.087020e+002 -3.300000e+001 7.834581e+002
         vertex -1.087020e+002 -3.300000e+001 6.399037e+002
         vertex -1.087020e+002 -5.500000e+001 7.834581e+002
      endloop
   endfacet
   facet normal -1.000000e+000 -1.937844e-015 1.543571e-007
      outer loop
         vertex -1.087020e+002 -5.500000e+001 7.834581e+002
         vertex -1.087020e+002 -3.300000e+001 6.399037e+002
         vertex -1.087020e+002 -5.500000e+001 6.399037e+002
      endloop
   endfacet
   facet normal 5.965825e-001 -1.371179e-015 8.025517e-001
      outer loop
         vertex -6.454401e+001 -3.300000e+001 6.497147e+002
         vertex -5.668370e+001 -3.300000e+001 6.450058e+002
         vertex -5.176050e+001 -2.650000e+001 6.404269e+002
      endloop
   endfacet
   facet normal 7.024063e-001 -8.553259e-016 7.117763e-001
      outer loop
         vertex -5.176050e+001 -2.650000e+001 6.404269e+002
         vertex -5.668370e+001 -3.300000e+001 6.450058e+002
         vertex -5.176050e+001 -6.150000e+001 6.404269e+002
      endloop
   endfacet
   facet normal 8.285223e-001 -1.260172e-016 5.599561e-001
      outer loop
         vertex -5.176050e+001 -2.650000e+001 6.404269e+002
         vertex -5.176050e+001 -6.150000e+001 6.404269e+002
         vertex -4.385985e+001 -2.650000e+001 6.267427e+002
      endloop
   endfacet
   facet normal 8.991973e-001 4.148646e-016 4.375433e-001
      outer loop
         vertex -4.385985e+001 -2.650000e+001 6.267427e+002
         vertex -5.176050e+001 -6.150000e+001 6.404269e+002
         vertex -4.385985e+001 -6.150000e+001 6.267427e+002
      endloop
   endfacet
   facet normal 9.846475e-001 1.403897e-015 1.745549e-001
      outer loop
         vertex -4.385985e+001 -2.650000e+001 6.267427e+002
         vertex -4.385985e+001 -6.150000e+001 6.267427e+002
         vertex -4.220817e+001 -2.650000e+001 6.110279e+002
      endloop
   endfacet
   facet normal 9.994226e-001 1.879161e-015 3.397923e-002
      outer loop
         vertex -4.220817e+001 -2.650000e+001 6.110279e+002
         vertex -4.385985e+001 -6.150000e+001 6.267427e+002
         vertex -4.220817e+001 -6.150000e+001 6.110279e+002
      endloop
   endfacet
   facet normal 9.705181e-001 2.691064e-015 -2.410283e-001
      outer loop
         vertex -4.220817e+001 -2.650000e+001 6.110279e+002
         vertex -4.220817e+001 -6.150000e+001 6.110279e+002
         vertex -4.709103e+001 -2.650000e+001 5.960000e+002
      endloop
   endfacet
   facet normal 9.268385e-001 3.018533e-015 -3.754602e-001
      outer loop
         vertex -4.709103e+001 -2.650000e+001 5.960000e+002
         vertex -4.220817e+001 -6.150000e+001 6.110279e+002
         vertex -4.709103e+001 -6.150000e+001 5.960000e+002
      endloop
   endfacet
   facet normal 7.885773e-001 3.512922e-015 -6.149356e-001
      outer loop
         vertex -4.709103e+001 -2.650000e+001 5.960000e+002
         vertex -4.709103e+001 -6.150000e+001 5.960000e+002
         vertex -5.766416e+001 -2.650000e+001 5.842574e+002
      endloop
   endfacet
   facet normal 6.939957e-001 3.635973e-015 -7.199792e-001
      outer loop
         vertex -5.766416e+001 -2.650000e+001 5.842574e+002
         vertex -4.709103e+001 -6.150000e+001 5.960000e+002
         vertex -5.766416e+001 -6.150000e+001 5.842574e+002
      endloop
   endfacet
   facet normal 4.702844e-001 3.727364e-015 -8.825149e-001
      outer loop
         vertex -5.766416e+001 -2.650000e+001 5.842574e+002
         vertex -5.766416e+001 -6.150000e+001 5.842574e+002
         vertex -7.209936e+001 -2.650000e+001 5.778304e+002
      endloop
   endfacet
   facet normal 3.411547e-001 3.624721e-015 -9.400072e-001
      outer loop
         vertex -7.209936e+001 -2.650000e+001 5.778304e+002
         vertex -5.766416e+001 -6.150000e+001 5.842574e+002
         vertex -7.209936e+001 -6.150000e+001 5.778304e+002
      endloop
   endfacet
   facet normal 7.067501e-002 3.297311e-015 -9.974993e-001
      outer loop
         vertex -7.209936e+001 -2.650000e+001 5.778304e+002
         vertex -7.209936e+001 -6.150000e+001 5.778304e+002
         vertex -8.790064e+001 -2.650000e+001 5.778304e+002
      endloop
   endfacet
   facet normal -7.067501e-002 2.986721e-015 -9.974993e-001
      outer loop
         vertex -8.790064e+001 -2.650000e+001 5.778304e+002
         vertex -7.209936e+001 -6.150000e+001 5.778304e+002
         vertex -8.790064e+001 -6.150000e+001 5.778304e+002
      endloop
   endfacet
   facet normal -3.411547e-001 2.297123e-015 -9.400072e-001
      outer loop
         vertex -8.790064e+001 -2.650000e+001 5.778304e+002
         vertex -8.790064e+001 -6.150000e+001 5.778304e+002
         vertex -1.023358e+002 -2.650000e+001 5.842574e+002
      endloop
   endfacet
   facet normal -4.702844e-001 1.832290e-015 -8.825149e-001
      outer loop
         vertex -1.023358e+002 -2.650000e+001 5.842574e+002
         vertex -8.790064e+001 -6.150000e+001 5.778304e+002
         vertex -1.023358e+002 -6.150000e+001 5.842574e+002
      endloop
   endfacet
   facet normal -6.939957e-001 8.997409e-016 -7.199792e-001
      outer loop
         vertex -1.023358e+002 -2.650000e+001 5.842574e+002
         vertex -1.023358e+002 -6.150000e+001 5.842574e+002
         vertex -1.129090e+002 -2.650000e+001 5.960000e+002
      endloop
   endfacet
   facet normal -7.885773e-001 3.610399e-016 -6.149356e-001
      outer loop
         vertex -1.129090e+002 -2.650000e+001 5.960000e+002
         vertex -1.023358e+002 -6.150000e+001 5.842574e+002
         vertex -1.129090e+002 -6.150000e+001 5.960000e+002
      endloop
   endfacet
   facet normal -9.268385e-001 -6.532141e-016 -3.754602e-001
      outer loop
         vertex -1.129090e+002 -2.650000e+001 5.960000e+002
         vertex -1.129090e+002 -6.150000e+001 5.960000e+002
         vertex -1.177918e+002 -2.650000e+001 6.110279e+002
      endloop
   endfacet
   facet normal -9.705181e-001 -1.172638e-015 -2.410283e-001
      outer loop
         vertex -1.177918e+002 -2.650000e+001 6.110279e+002
         vertex -1.129090e+002 -6.150000e+001 5.960000e+002
         vertex -1.177918e+002 -6.150000e+001 6.110279e+002
      endloop
   endfacet
   facet normal -9.994226e-001 -2.093223e-015 3.397923e-002
      outer loop
         vertex -1.177918e+002 -2.650000e+001 6.110279e+002
         vertex -1.177918e+002 -6.150000e+001 6.110279e+002
         vertex -1.161402e+002 -2.650000e+001 6.267427e+002
      endloop
   endfacet
   facet normal -9.846475e-001 -2.503555e-015 1.745549e-001
      outer loop
         vertex -1.161402e+002 -2.650000e+001 6.267427e+002
         vertex -1.177918e+002 -6.150000e+001 6.110279e+002
         vertex -1.161402e+002 -6.150000e+001 6.267427e+002
      endloop
   endfacet
   facet normal -9.018104e-001 -3.153977e-015 4.321319e-001
      outer loop
         vertex -1.161402e+002 -2.650000e+001 6.267427e+002
         vertex -1.161402e+002 -6.150000e+001 6.267427e+002
         vertex -1.087020e+002 -5.500000e+001 6.399037e+002
      endloop
   endfacet
   facet normal -8.319726e-001 -3.405802e-015 5.548167e-001
      outer loop
         vertex -1.087020e+002 -5.500000e+001 6.399037e+002
         vertex -1.161402e+002 -6.150000e+001 6.267427e+002
         vertex -1.082395e+002 -5.500000e+001 6.404269e+002
      endloop
   endfacet
   facet normal 4.787899e-001 -1.814841e-015 8.779295e-001
      outer loop
         vertex -5.668370e+001 -5.500000e+001 6.450058e+002
         vertex -6.454401e+001 -5.500000e+001 6.497147e+002
         vertex -6.454401e+001 -6.150000e+001 6.497147e+002
      endloop
   endfacet
   facet normal 2.765224e-001 -2.479322e-015 9.610075e-001
      outer loop
         vertex -6.454401e+001 -6.150000e+001 6.497147e+002
         vertex -6.454401e+001 -5.500000e+001 6.497147e+002
         vertex -8.000000e+001 -5.500000e+001 6.530000e+002
      endloop
   endfacet
   facet normal 1.382612e-001 -2.846652e-015 9.903958e-001
      outer loop
         vertex -6.454401e+001 -6.150000e+001 6.497147e+002
         vertex -8.000000e+001 -5.500000e+001 6.530000e+002
         vertex -8.000000e+001 -6.150000e+001 6.530000e+002
      endloop
   endfacet
   facet normal -1.382612e-001 -3.413722e-015 9.903958e-001
      outer loop
         vertex -8.000000e+001 -6.150000e+001 6.530000e+002
         vertex -8.000000e+001 -5.500000e+001 6.530000e+002
         vertex -9.545599e+001 -5.500000e+001 6.497147e+002
      endloop
   endfacet
   facet normal -2.765224e-001 -3.573325e-015 9.610075e-001
      outer loop
         vertex -8.000000e+001 -6.150000e+001 6.530000e+002
         vertex -9.545599e+001 -5.500000e+001 6.497147e+002
         vertex -9.545599e+001 -6.150000e+001 6.497147e+002
      endloop
   endfacet
   facet normal -5.291381e-001 -3.720967e-015 8.485357e-001
      outer loop
         vertex -9.545599e+001 -6.150000e+001 6.497147e+002
         vertex -9.545599e+001 -5.500000e+001 6.497147e+002
         vertex -1.082395e+002 -5.500000e+001 6.404269e+002
      endloop
   endfacet
   facet normal -6.434927e-001 -3.670915e-015 7.654522e-001
      outer loop
         vertex -9.545599e+001 -6.150000e+001 6.497147e+002
         vertex -1.082395e+002 -5.500000e+001 6.404269e+002
         vertex -1.082395e+002 -6.150000e+001 6.404269e+002
      endloop
   endfacet
   facet normal -8.285223e-001 -3.399834e-015 5.599561e-001
      outer loop
         vertex -1.082395e+002 -6.150000e+001 6.404269e+002
         vertex -1.082395e+002 -5.500000e+001 6.404269e+002
         vertex -1.161402e+002 -6.150000e+001 6.267427e+002
      endloop
   endfacet
   facet normal -7.472301e-001 -3.594696e-015 6.645654e-001
      outer loop
         vertex -1.082395e+002 -3.300000e+001 6.404269e+002
         vertex -1.082395e+002 -2.650000e+001 6.404269e+002
         vertex -1.087020e+002 -3.300000e+001 6.399037e+002
      endloop
   endfacet
   facet normal -8.319726e-001 -3.417135e-015 5.548167e-001
      outer loop
         vertex -1.087020e+002 -3.300000e+001 6.399037e+002
         vertex -1.082395e+002 -2.650000e+001 6.404269e+002
         vertex -1.161402e+002 -2.650000e+001 6.267427e+002
      endloop
   endfacet
   facet normal -8.353852e-001 -3.402221e-015 5.496649e-001
      outer loop
         vertex -1.087020e+002 -3.300000e+001 6.399037e+002
         vertex -1.161402e+002 -2.650000e+001 6.267427e+002
         vertex -1.087020e+002 -5.500000e+001 6.399037e+002
      endloop
   endfacet
   facet normal 5.291381e-001 -1.658084e-015 8.485357e-001
      outer loop
         vertex -5.176050e+001 -2.650000e+001 6.404269e+002
         vertex -6.454401e+001 -2.650000e+001 6.497147e+002
         vertex -6.454401e+001 -3.300000e+001 6.497147e+002
      endloop
   endfacet
   facet normal 2.765224e-001 -2.510333e-015 9.610075e-001
      outer loop
         vertex -6.454401e+001 -3.300000e+001 6.497147e+002
         vertex -6.454401e+001 -2.650000e+001 6.497147e+002
         vertex -8.000000e+001 -2.650000e+001 6.530000e+002
      endloop
   endfacet
   facet normal 1.382612e-001 -2.878353e-015 9.903958e-001
      outer loop
         vertex -6.454401e+001 -3.300000e+001 6.497147e+002
         vertex -8.000000e+001 -2.650000e+001 6.530000e+002
         vertex -8.000000e+001 -3.300000e+001 6.530000e+002
      endloop
   endfacet
   facet normal -1.382612e-001 -3.430980e-015 9.903958e-001
      outer loop
         vertex -8.000000e+001 -3.300000e+001 6.530000e+002
         vertex -8.000000e+001 -2.650000e+001 6.530000e+002
         vertex -9.545599e+001 -2.650000e+001 6.497147e+002
      endloop
   endfacet
   facet normal -2.765224e-001 -3.625177e-015 9.610075e-001
      outer loop
         vertex -8.000000e+001 -3.300000e+001 6.530000e+002
         vertex -9.545599e+001 -2.650000e+001 6.497147e+002
         vertex -9.545599e+001 -3.300000e+001 6.497147e+002
      endloop
   endfacet
   facet normal -5.291381e-001 -3.766589e-015 8.485357e-001
      outer loop
         vertex -9.545599e+001 -3.300000e+001 6.497147e+002
         vertex -9.545599e+001 -2.650000e+001 6.497147e+002
         vertex -1.082395e+002 -2.650000e+001 6.404269e+002
      endloop
   endfacet
   facet normal -6.434927e-001 -3.722465e-015 7.654522e-001
      outer loop
         vertex -9.545599e+001 -3.300000e+001 6.497147e+002
         vertex -1.082395e+002 -2.650000e+001 6.404269e+002
         vertex -1.082395e+002 -3.300000e+001 6.404269e+002
      endloop
   endfacet
   facet normal 5.965825e-001 -1.326683e-015 8.025517e-001
      outer loop
         vertex -5.176050e+001 -6.150000e+001 6.404269e+002
         vertex -5.668370e+001 -5.500000e+001 6.450058e+002
         vertex -6.454401e+001 -6.150000e+001 6.497147e+002
      endloop
   endfacet
   facet normal 6.590693e-001 -1.063842e-015 7.520822e-001
      outer loop
         vertex -5.668370e+001 -3.300000e+001 6.450058e+002
         vertex -5.668370e+001 -5.500000e+001 6.450058e+002
         vertex -5.176050e+001 -6.150000e+001 6.404269e+002
      endloop
   endfacet
   facet normal 8.772621e-001 1.699997e-015 4.800117e-001
      outer loop
         vertex -5.668370e+001 -3.300000e+001 6.450058e+002
         vertex -7.518861e+001 -3.300000e+001 6.788251e+002
         vertex -5.668370e+001 -5.500000e+001 6.450058e+002
      endloop
   endfacet
   facet normal 8.772621e-001 1.699997e-015 4.800117e-001
      outer loop
         vertex -5.668370e+001 -5.500000e+001 6.450058e+002
         vertex -7.518861e+001 -3.300000e+001 6.788251e+002
         vertex -7.518861e+001 -5.500000e+001 6.788251e+002
      endloop
   endfacet
   facet normal 1.000000e+000 1.984033e-015 -1.543571e-007
      outer loop
         vertex -7.518860e+001 -5.500000e+001 7.770000e+002
         vertex -7.518861e+001 -5.500000e+001 6.788251e+002
         vertex -7.518860e+001 -3.300000e+001 7.770000e+002
      endloop
   endfacet
   facet normal 1.000000e+000 1.984033e-015 -1.543571e-007
      outer loop
         vertex -7.518860e+001 -3.300000e+001 7.770000e+002
         vertex -7.518861e+001 -5.500000e+001 6.788251e+002
         vertex -7.518861e+001 -3.300000e+001 6.788251e+002
      endloop
   endfacet
   facet normal 9.616964e-001 2.532382e-015 -2.741169e-001
      outer loop
         vertex -5.138820e+001 -5.500000e+001 8.605000e+002
         vertex -7.518860e+001 -5.500000e+001 7.770000e+002
         vertex -5.138820e+001 -3.300000e+001 8.605000e+002
      endloop
   endfacet
   facet normal 9.616964e-001 2.532382e-015 -2.741169e-001
      outer loop
         vertex -5.138820e+001 -3.300000e+001 8.605000e+002
         vertex -7.518860e+001 -5.500000e+001 7.770000e+002
         vertex -7.518860e+001 -3.300000e+001 7.770000e+002
      endloop
   endfacet
   facet normal 9.999987e-001 1.980428e-015 1.581412e-003
      outer loop
         vertex -5.172662e+001 -5.500000e+001 1.074500e+003
         vertex -5.138820e+001 -5.500000e+001 8.605000e+002
         vertex -5.172662e+001 -3.300000e+001 1.074500e+003
      endloop
   endfacet
   facet normal 9.999987e-001 1.980428e-015 1.581412e-003
      outer loop
         vertex -5.172662e+001 -3.300000e+001 1.074500e+003
         vertex -5.138820e+001 -5.500000e+001 8.605000e+002
         vertex -5.138820e+001 -3.300000e+001 8.605000e+002
      endloop
   endfacet
   facet normal 9.608246e-001 1.275038e-015 2.771571e-001
      outer loop
         vertex -7.581283e+001 -5.500000e+001 1.158000e+003
         vertex -5.172662e+001 -5.500000e+001 1.074500e+003
         vertex -7.581283e+001 -3.300000e+001 1.158000e+003
      endloop
   endfacet
   facet normal 9.608246e-001 1.275038e-015 2.771571e-001
      outer loop
         vertex -7.581283e+001 -3.300000e+001 1.158000e+003
         vertex -5.172662e+001 -5.500000e+001 1.074500e+003
         vertex -5.172662e+001 -3.300000e+001 1.074500e+003
      endloop
   endfacet
   facet normal 1.000000e+000 1.984033e-015 4.894931e-030
      outer loop
         vertex -7.581283e+001 -5.500000e+001 1.180500e+003
         vertex -7.581283e+001 -5.500000e+001 1.158000e+003
         vertex -7.581283e+001 -3.300000e+001 1.180500e+003
      endloop
   endfacet
   facet normal 1.000000e+000 1.984033e-015 4.894931e-030
      outer loop
         vertex -7.581283e+001 -3.300000e+001 1.180500e+003
         vertex -7.581283e+001 -5.500000e+001 1.158000e+003
         vertex -7.581283e+001 -3.300000e+001 1.158000e+003
      endloop
   endfacet
   facet normal 7.071068e-001 3.013470e-015 -7.071068e-001
      outer loop
         vertex -3.931283e+001 -5.500000e+001 1.217000e+003
         vertex -7.581283e+001 -5.500000e+001 1.180500e+003
         vertex -3.931283e+001 -3.300000e+001 1.217000e+003
      endloop
   endfacet
   facet normal 7.071068e-001 3.013470e-015 -7.071068e-001
      outer loop
         vertex -3.931283e+001 -3.300000e+001 1.217000e+003
         vertex -7.581283e+001 -5.500000e+001 1.180500e+003
         vertex -7.581283e+001 -3.300000e+001 1.180500e+003
      endloop
   endfacet
   facet normal 0.000000e+000 0.000000e+000 -1.000000e+000
      outer loop
         vertex -7.850000e+001 -3.300000e+001 1.217000e+003
         vertex -7.850000e+001 -2.700000e+001 1.217000e+003
         vertex -3.931283e+001 -3.300000e+001 1.217000e+003
      endloop
   endfacet
   facet normal 0.000000e+000 0.000000e+000 -1.000000e+000
      outer loop
         vertex -3.931283e+001 -3.300000e+001 1.217000e+003
         vertex -7.850000e+001 -2.700000e+001 1.217000e+003
         vertex -3.704771e+001 -2.700000e+001 1.217000e+003
      endloop
   endfacet
   facet normal 0.000000e+000 0.000000e+000 -1.000000e+000
      outer loop
         vertex -3.931283e+001 -3.300000e+001 1.217000e+003
         vertex -3.704771e+001 -2.700000e+001 1.217000e+003
         vertex -3.931283e+001 -5.500000e+001 1.217000e+003
      endloop
   endfacet
   facet normal 0.000000e+000 0.000000e+000 -1.000000e+000
      outer loop
         vertex -3.931283e+001 -5.500000e+001 1.217000e+003
         vertex -3.704771e+001 -2.700000e+001 1.217000e+003
         vertex -3.704771e+001 -6.100000e+001 1.217000e+003
      endloop
   endfacet
   facet normal 0.000000e+000 0.000000e+000 -1.000000e+000
      outer loop
         vertex -3.931283e+001 -5.500000e+001 1.217000e+003
         vertex -3.704771e+001 -6.100000e+001 1.217000e+003
         vertex -7.850000e+001 -5.500000e+001 1.217000e+003
      endloop
   endfacet
   facet normal 0.000000e+000 0.000000e+000 -1.000000e+000
      outer loop
         vertex -7.850000e+001 -5.500000e+001 1.217000e+003
         vertex -3.704771e+001 -6.100000e+001 1.217000e+003
         vertex -7.850000e+001 -6.100000e+001 1.217000e+003
      endloop
   endfacet
   facet normal -1.235727e-015 1.000000e+000 0.000000e+000
      outer loop
         vertex -9.545599e+001 -3.300000e+001 6.497147e+002
         vertex -1.082395e+002 -3.300000e+001 6.404269e+002
         vertex -7.518861e+001 -3.300000e+001 6.788251e+002
      endloop
   endfacet
   facet normal -1.235727e-015 1.000000e+000 0.000000e+000
      outer loop
         vertex -7.518861e+001 -3.300000e+001 6.788251e+002
         vertex -1.082395e+002 -3.300000e+001 6.404269e+002
         vertex -1.087020e+002 -3.300000e+001 6.399037e+002
      endloop
   endfacet
   facet normal -1.235727e-015 1.000000e+000 0.000000e+000
      outer loop
         vertex -7.518861e+001 -3.300000e+001 6.788251e+002
         vertex -1.087020e+002 -3.300000e+001 6.399037e+002
         vertex -7.518860e+001 -3.300000e+001 7.770000e+002
      endloop
   endfacet
   facet normal -1.235727e-015 1.000000e+000 0.000000e+000
      outer loop
         vertex -7.518860e+001 -3.300000e+001 7.770000e+002
         vertex -1.087020e+002 -3.300000e+001 6.399037e+002
         vertex -1.087020e+002 -3.300000e+001 7.834581e+002
      endloop
   endfacet
   facet normal -1.235727e-015 1.000000e+000 0.000000e+000
      outer loop
         vertex -7.518860e+001 -3.300000e+001 7.770000e+002
         vertex -1.087020e+002 -3.300000e+001 7.834581e+002
         vertex -5.138820e+001 -3.300000e+001 8.605000e+002
      endloop
   endfacet
   facet normal -1.235727e-015 1.000000e+000 0.000000e+000
      outer loop
         vertex -5.138820e+001 -3.300000e+001 8.605000e+002
         vertex -1.087020e+002 -3.300000e+001 7.834581e+002
         vertex -8.539571e+001 -3.300000e+001 8.652246e+002
      endloop
   endfacet
   facet normal -1.235727e-015 1.000000e+000 0.000000e+000
      outer loop
         vertex -5.138820e+001 -3.300000e+001 8.605000e+002
         vertex -8.539571e+001 -3.300000e+001 8.652246e+002
         vertex -5.172662e+001 -3.300000e+001 1.074500e+003
      endloop
   endfacet
   facet normal -1.235727e-015 1.000000e+000 0.000000e+000
      outer loop
         vertex -5.172662e+001 -3.300000e+001 1.074500e+003
         vertex -8.539571e+001 -3.300000e+001 8.652246e+002
         vertex -8.571902e+001 -3.300000e+001 1.069668e+003
      endloop
   endfacet
   facet normal -1.235727e-015 1.000000e+000 0.000000e+000
      outer loop
         vertex -5.172662e+001 -3.300000e+001 1.074500e+003
         vertex -8.571902e+001 -3.300000e+001 1.069668e+003
         vertex -7.581283e+001 -3.300000e+001 1.158000e+003
      endloop
   endfacet
   facet normal -1.235727e-015 1.000000e+000 0.000000e+000
      outer loop
         vertex -7.581283e+001 -3.300000e+001 1.158000e+003
         vertex -8.571902e+001 -3.300000e+001 1.069668e+003
         vertex -1.098128e+002 -3.300000e+001 1.153194e+003
      endloop
   endfacet
   facet normal -1.235727e-015 1.000000e+000 0.000000e+000
      outer loop
         vertex -7.581283e+001 -3.300000e+001 1.158000e+003
         vertex -1.098128e+002 -3.300000e+001 1.153194e+003
         vertex -7.581283e+001 -3.300000e+001 1.180500e+003
      endloop
   endfacet
   facet normal -1.235727e-015 1.000000e+000 0.000000e+000
      outer loop
         vertex -7.581283e+001 -3.300000e+001 1.180500e+003
         vertex -1.098128e+002 -3.300000e+001 1.153194e+003
         vertex -1.098128e+002 -3.300000e+001 1.240000e+003
      endloop
   endfacet
   facet normal -1.235727e-015 1.000000e+000 0.000000e+000
      outer loop
         vertex -7.581283e+001 -3.300000e+001 1.180500e+003
         vertex -1.098128e+002 -3.300000e+001 1.240000e+003
         vertex -8.450000e+001 -3.300000e+001 1.223000e+003
      endloop
   endfacet
   facet normal -1.235727e-015 1.000000e+000 0.000000e+000
      outer loop
         vertex -8.450000e+001 -3.300000e+001 1.223000e+003
         vertex -1.098128e+002 -3.300000e+001 1.240000e+003
         vertex -1.054270e+002 -3.300000e+001 1.291760e+003
      endloop
   endfacet
   facet normal -1.235727e-015 1.000000e+000 0.000000e+000
      outer loop
         vertex -8.450000e+001 -3.300000e+001 1.223000e+003
         vertex -1.054270e+002 -3.300000e+001 1.291760e+003
         vertex -8.450000e+001 -3.300000e+001 1.265000e+003
      endloop
   endfacet
   facet normal -1.235727e-015 1.000000e+000 0.000000e+000
      outer loop
         vertex -8.450000e+001 -3.300000e+001 1.265000e+003
         vertex -1.054270e+002 -3.300000e+001 1.291760e+003
         vertex -7.850000e+001 -3.300000e+001 1.271000e+003
      endloop
   endfacet
   facet normal -1.235727e-015 1.000000e+000 0.000000e+000
      outer loop
         vertex -1.147147e+002 -3.300000e+001 1.304544e+003
         vertex -1.098128e+002 -3.300000e+001 1.240000e+003
         vertex -1.180000e+002 -3.300000e+001 1.320000e+003
      endloop
   endfacet
   facet normal -1.235727e-015 1.000000e+000 0.000000e+000
      outer loop
         vertex -1.180000e+002 -3.300000e+001 1.320000e+003
         vertex -1.098128e+002 -3.300000e+001 1.240000e+003
         vertex -1.193405e+002 -3.300000e+001 1.320000e+003
      endloop
   endfacet
   facet normal -1.235727e-015 1.000000e+000 0.000000e+000
      outer loop
         vertex -1.180000e+002 -3.300000e+001 1.320000e+003
         vertex -1.193405e+002 -3.300000e+001 1.320000e+003
         vertex -1.167052e+002 -3.300000e+001 1.329835e+003
      endloop
   endfacet
   facet normal -1.235727e-015 1.000000e+000 0.000000e+000
      outer loop
         vertex -7.602792e+001 -3.300000e+001 1.282208e+003
         vertex -6.100000e+001 -3.300000e+001 1.287091e+003
         vertex -3.931283e+001 -3.300000e+001 1.271000e+003
      endloop
   endfacet
   facet normal -1.235727e-015 1.000000e+000 0.000000e+000
      outer loop
         vertex -3.931283e+001 -3.300000e+001 1.271000e+003
         vertex -6.100000e+001 -3.300000e+001 1.287091e+003
         vertex -4.925735e+001 -3.300000e+001 1.297664e+003
      endloop
   endfacet
   facet normal -1.235727e-015 1.000000e+000 0.000000e+000
      outer loop
         vertex -3.931283e+001 -3.300000e+001 1.271000e+003
         vertex -4.925735e+001 -3.300000e+001 1.297664e+003
         vertex -3.931283e+001 -3.300000e+001 1.314974e+003
      endloop
   endfacet
   facet normal -1.235727e-015 1.000000e+000 0.000000e+000
      outer loop
         vertex -3.931283e+001 -3.300000e+001 1.314974e+003
         vertex -4.925735e+001 -3.300000e+001 1.297664e+003
         vertex -4.283039e+001 -3.300000e+001 1.312099e+003
      endloop
   endfacet
   facet normal -1.235727e-015 1.000000e+000 0.000000e+000
      outer loop
         vertex -3.931283e+001 -3.300000e+001 1.314974e+003
         vertex -4.283039e+001 -3.300000e+001 1.312099e+003
         vertex -4.283039e+001 -3.300000e+001 1.327901e+003
      endloop
   endfacet
   facet normal -1.235727e-015 1.000000e+000 0.000000e+000
      outer loop
         vertex -1.054270e+002 -3.300000e+001 1.291760e+003
         vertex -9.174265e+001 -3.300000e+001 1.283860e+003
         vertex -7.850000e+001 -3.300000e+001 1.271000e+003
      endloop
   endfacet
   facet normal -1.235727e-015 1.000000e+000 0.000000e+000
      outer loop
         vertex -7.850000e+001 -3.300000e+001 1.271000e+003
         vertex -9.174265e+001 -3.300000e+001 1.283860e+003
         vertex -7.602792e+001 -3.300000e+001 1.282208e+003
      endloop
   endfacet
   facet normal -1.235727e-015 1.000000e+000 0.000000e+000
      outer loop
         vertex -7.850000e+001 -3.300000e+001 1.271000e+003
         vertex -7.602792e+001 -3.300000e+001 1.282208e+003
         vertex -3.931283e+001 -3.300000e+001 1.271000e+003
      endloop
   endfacet
   facet normal -1.235727e-015 1.000000e+000 0.000000e+000
      outer loop
         vertex -5.668370e+001 -3.300000e+001 6.450058e+002
         vertex -6.454401e+001 -3.300000e+001 6.497147e+002
         vertex -7.518861e+001 -3.300000e+001 6.788251e+002
      endloop
   endfacet
   facet normal -1.235727e-015 1.000000e+000 0.000000e+000
      outer loop
         vertex -7.518861e+001 -3.300000e+001 6.788251e+002
         vertex -6.454401e+001 -3.300000e+001 6.497147e+002
         vertex -8.000000e+001 -3.300000e+001 6.530000e+002
      endloop
   endfacet
   facet normal -1.235727e-015 1.000000e+000 0.000000e+000
      outer loop
         vertex -7.518861e+001 -3.300000e+001 6.788251e+002
         vertex -8.000000e+001 -3.300000e+001 6.530000e+002
         vertex -9.545599e+001 -3.300000e+001 6.497147e+002
      endloop
   endfacet
   facet normal -1.235727e-015 1.000000e+000 0.000000e+000
      outer loop
         vertex -7.850000e+001 -3.300000e+001 1.217000e+003
         vertex -7.581283e+001 -3.300000e+001 1.180500e+003
         vertex -8.450000e+001 -3.300000e+001 1.223000e+003
      endloop
   endfacet
   facet normal -1.235727e-015 1.000000e+000 0.000000e+000
      outer loop
         vertex -1.098128e+002 -3.300000e+001 1.240000e+003
         vertex -1.147147e+002 -3.300000e+001 1.304544e+003
         vertex -1.054270e+002 -3.300000e+001 1.291760e+003
      endloop
   endfacet
   facet normal -1.235727e-015 1.000000e+000 0.000000e+000
      outer loop
         vertex -4.283039e+001 -3.300000e+001 1.327901e+003
         vertex -4.329482e+001 -3.300000e+001 1.329835e+003
         vertex -3.931283e+001 -3.300000e+001 1.314974e+003
      endloop
   endfacet
   facet normal -1.235727e-015 1.000000e+000 0.000000e+000
      outer loop
         vertex -7.850000e+001 -3.300000e+001 1.217000e+003
         vertex -3.931283e+001 -3.300000e+001 1.217000e+003
         vertex -7.581283e+001 -3.300000e+001 1.180500e+003
      endloop
   endfacet
endsolid