solid IRB2400_10_m2000_rev3_01-12
   facet normal -1.112391e-016 1.000000e+000 1.780712e-017
      outer loop
         vertex 7.113949e+001 -1.985000e+002 4.075510e+002
         vertex 4.433752e+000 -1.985000e+002 3.189294e+002
         vertex -1.748213e+001 -1.985000e+002 4.742567e+002
      endloop
   endfacet
   facet normal -1.112391e-016 1.000000e+000 1.780712e-017
      outer loop
         vertex -1.748213e+001 -1.985000e+002 4.742567e+002
         vertex 4.433752e+000 -1.985000e+002 3.189294e+002
         vertex -8.418786e+001 -1.985000e+002 3.856351e+002
      endloop
   endfacet
   facet normal -1.112391e-016 1.000000e+000 1.780712e-017
      outer loop
         vertex -1.748213e+001 -1.985000e+002 4.742567e+002
         vertex -8.418786e+001 -1.985000e+002 3.856351e+002
         vertex -4.570374e+001 -1.985000e+002 4.645392e+002
      endloop
   endfacet
   facet normal -1.112391e-016 1.000000e+000 1.780712e-017
      outer loop
         vertex 4.433752e+000 -1.985000e+002 3.189294e+002
         vertex -7.447038e+001 -1.985000e+002 3.574135e+002
         vertex -8.418786e+001 -1.985000e+002 3.856351e+002
      endloop
   endfacet
   facet normal -1.112391e-016 1.000000e+000 1.780712e-017
      outer loop
         vertex -1.748213e+001 -1.985000e+002 4.742567e+002
         vertex 6.142200e+001 -1.985000e+002 4.357726e+002
         vertex 7.113949e+001 -1.985000e+002 4.075510e+002
      endloop
   endfacet
   facet normal -1.112391e-016 1.000000e+000 1.780712e-017
      outer loop
         vertex 7.113949e+001 -1.985000e+002 4.075510e+002
         vertex 3.265536e+001 -1.985000e+002 3.286469e+002
         vertex 4.433752e+000 -1.985000e+002 3.189294e+002
      endloop
   endfacet
   facet normal -6.244891e-037 1.000000e+000 1.780712e-017
      outer loop
         vertex 5.785814e+001 -3.590000e+002 4.111160e+002
         vertex 4.709913e+001 -3.590000e+002 3.890568e+002
         vertex 5.371860e+001 -3.590000e+002 4.235524e+002
      endloop
   endfacet
   facet normal -6.244891e-037 1.000000e+000 1.780712e-017
      outer loop
         vertex 5.371860e+001 -3.590000e+002 4.235524e+002
         vertex 4.709913e+001 -3.590000e+002 3.890568e+002
         vertex 4.128769e+001 -3.590000e+002 4.220151e+002
      endloop
   endfacet
   facet normal -6.244891e-037 1.000000e+000 1.780712e-017
      outer loop
         vertex 5.371860e+001 -3.590000e+002 4.235524e+002
         vertex 4.128769e+001 -3.590000e+002 4.220151e+002
         vertex 4.720310e+001 -3.590000e+002 4.349255e+002
      endloop
   endfacet
   facet normal -6.244891e-037 1.000000e+000 1.780712e-017
      outer loop
         vertex 4.720310e+001 -3.590000e+002 4.349255e+002
         vertex 4.128769e+001 -3.590000e+002 4.220151e+002
         vertex 1.721374e+001 -3.590000e+002 4.452630e+002
      endloop
   endfacet
   facet normal -6.244891e-037 1.000000e+000 1.780712e-017
      outer loop
         vertex 4.720310e+001 -3.590000e+002 4.349255e+002
         vertex 1.721374e+001 -3.590000e+002 4.452630e+002
         vertex 3.856861e+001 -3.590000e+002 4.447868e+002
      endloop
   endfacet
   facet normal -6.244891e-037 1.000000e+000 1.780712e-017
      outer loop
         vertex 3.856861e+001 -3.590000e+002 4.447868e+002
         vertex 1.721374e+001 -3.590000e+002 4.452630e+002
         vertex 2.815567e+001 -3.590000e+002 4.527474e+002
      endloop
   endfacet
   facet normal -6.244891e-037 1.000000e+000 1.780712e-017
      outer loop
         vertex -2.236909e+001 -3.590000e+002 4.606628e+002
         vertex -9.395607e+000 -3.590000e+002 4.625305e+002
         vertex -1.592729e+001 -3.590000e+002 4.499207e+002
      endloop
   endfacet
   facet normal -6.244891e-037 1.000000e+000 1.780712e-017
      outer loop
         vertex -1.592729e+001 -3.590000e+002 4.499207e+002
         vertex -9.395607e+000 -3.590000e+002 4.625305e+002
         vertex 3.691124e+000 -3.590000e+002 4.617977e+002
      endloop
   endfacet
   facet normal -6.244891e-037 1.000000e+000 1.780712e-017
      outer loop
         vertex -1.592729e+001 -3.590000e+002 4.499207e+002
         vertex 3.691124e+000 -3.590000e+002 4.617977e+002
         vertex 1.721374e+001 -3.590000e+002 4.452630e+002
      endloop
   endfacet
   facet normal -6.244891e-037 1.000000e+000 1.780712e-017
      outer loop
         vertex 1.721374e+001 -3.590000e+002 4.452630e+002
         vertex 3.691124e+000 -3.590000e+002 4.617977e+002
         vertex 1.637497e+001 -3.590000e+002 4.584932e+002
      endloop
   endfacet
   facet normal -6.244891e-037 1.000000e+000 1.780712e-017
      outer loop
         vertex 1.721374e+001 -3.590000e+002 4.452630e+002
         vertex 1.637497e+001 -3.590000e+002 4.584932e+002
         vertex 2.815567e+001 -3.590000e+002 4.527474e+002
      endloop
   endfacet
   facet normal -6.244891e-037 1.000000e+000 1.780712e-017
      outer loop
         vertex -4.547666e+001 -3.590000e+002 4.342090e+002
         vertex -3.471765e+001 -3.590000e+002 4.562682e+002
         vertex -1.592729e+001 -3.590000e+002 4.499207e+002
      endloop
   endfacet
   facet normal -6.244891e-037 1.000000e+000 1.780712e-017
      outer loop
         vertex -1.592729e+001 -3.590000e+002 4.499207e+002
         vertex -3.471765e+001 -3.590000e+002 4.562682e+002
         vertex -2.236909e+001 -3.590000e+002 4.606628e+002
      endloop
   endfacet
   facet normal 9.587939e-001 0.000000e+000 2.841027e-001
      outer loop
         vertex 5.785814e+001 -3.890000e+002 4.111160e+002
         vertex 5.785814e+001 -3.590000e+002 4.111160e+002
         vertex 5.371860e+001 -3.890000e+002 4.235524e+002
      endloop
   endfacet
   facet normal 9.377949e-001 0.000000e+000 3.471898e-001
      outer loop
         vertex 5.371860e+001 -3.890000e+002 4.235524e+002
         vertex 5.785814e+001 -3.590000e+002 4.111160e+002
         vertex 5.371860e+001 -3.590000e+002 4.235524e+002
      endloop
   endfacet
   facet normal 8.837442e-001 0.000000e+000 4.679703e-001
      outer loop
         vertex 5.371860e+001 -3.890000e+002 4.235524e+002
         vertex 5.371860e+001 -3.590000e+002 4.235524e+002
         vertex 4.720310e+001 -3.890000e+002 4.349255e+002
      endloop
   endfacet
   facet normal 8.506925e-001 0.000000e+000 5.256637e-001
      outer loop
         vertex 4.720310e+001 -3.890000e+002 4.349255e+002
         vertex 5.371860e+001 -3.590000e+002 4.235524e+002
         vertex 4.720310e+001 -3.590000e+002 4.349255e+002
      endloop
   endfacet
   facet normal 7.738398e-001 0.000000e+000 6.333814e-001
      outer loop
         vertex 4.720310e+001 -3.890000e+002 4.349255e+002
         vertex 4.720310e+001 -3.590000e+002 4.349255e+002
         vertex 3.856861e+001 -3.890000e+002 4.447868e+002
      endloop
   endfacet
   facet normal 7.300389e-001 0.000000e+000 6.834056e-001
      outer loop
         vertex 3.856861e+001 -3.890000e+002 4.447868e+002
         vertex 4.720310e+001 -3.590000e+002 4.349255e+002
         vertex 3.856861e+001 -3.590000e+002 4.447868e+002
      endloop
   endfacet
   facet normal 6.334155e-001 0.000000e+000 7.738119e-001
      outer loop
         vertex 3.856861e+001 -3.890000e+002 4.447868e+002
         vertex 3.856861e+001 -3.590000e+002 4.447868e+002
         vertex 2.815567e+001 -3.890000e+002 4.527474e+002
      endloop
   endfacet
   facet normal 5.805929e-001 0.000000e+000 8.141940e-001
      outer loop
         vertex 2.815567e+001 -3.890000e+002 4.527474e+002
         vertex 3.856861e+001 -3.590000e+002 4.447868e+002
         vertex 2.815567e+001 -3.590000e+002 4.527474e+002
      endloop
   endfacet
   facet normal 4.680093e-001 0.000000e+000 8.837235e-001
      outer loop
         vertex 2.815567e+001 -3.890000e+002 4.527474e+002
         vertex 2.815567e+001 -3.590000e+002 4.527474e+002
         vertex 1.637497e+001 -3.890000e+002 4.584932e+002
      endloop
   endfacet
   facet normal 4.082484e-001 0.000000e+000 9.128709e-001
      outer loop
         vertex 1.637497e+001 -3.890000e+002 4.584932e+002
         vertex 2.815567e+001 -3.590000e+002 4.527474e+002
         vertex 1.637497e+001 -3.590000e+002 4.584932e+002
      endloop
   endfacet
   facet normal 2.841450e-001 0.000000e+000 9.587813e-001
      outer loop
         vertex 1.637497e+001 -3.890000e+002 4.584932e+002
         vertex 1.637497e+001 -3.590000e+002 4.584932e+002
         vertex 3.691124e+000 -3.890000e+002 4.617977e+002
      endloop
   endfacet
   facet normal 2.198026e-001 0.000000e+000 9.755443e-001
      outer loop
         vertex 3.691124e+000 -3.890000e+002 4.617977e+002
         vertex 1.637497e+001 -3.590000e+002 4.584932e+002
         vertex 3.691124e+000 -3.590000e+002 4.617977e+002
      endloop
   endfacet
   facet normal 8.907407e-002 0.000000e+000 9.960250e-001
      outer loop
         vertex 3.691124e+000 -3.890000e+002 4.617977e+002
         vertex 3.691124e+000 -3.590000e+002 4.617977e+002
         vertex -9.395607e+000 -3.890000e+002 4.625305e+002
      endloop
   endfacet
   facet normal 2.268791e-002 0.000000e+000 9.997426e-001
      outer loop
         vertex -9.395607e+000 -3.890000e+002 4.625305e+002
         vertex 3.691124e+000 -3.590000e+002 4.617977e+002
         vertex -9.395607e+000 -3.590000e+002 4.625305e+002
      endloop
   endfacet
   facet normal -1.095099e-001 0.000000e+000 9.939857e-001
      outer loop
         vertex -9.395607e+000 -3.890000e+002 4.625305e+002
         vertex -9.395607e+000 -3.590000e+002 4.625305e+002
         vertex -2.236909e+001 -3.890000e+002 4.606628e+002
      endloop
   endfacet
   facet normal -1.753216e-001 0.000000e+000 9.845112e-001
      outer loop
         vertex -2.236909e+001 -3.890000e+002 4.606628e+002
         vertex -9.395607e+000 -3.590000e+002 4.625305e+002
         vertex -2.236909e+001 -3.590000e+002 4.606628e+002
      endloop
   endfacet
   facet normal -3.037749e-001 0.000000e+000 9.527438e-001
      outer loop
         vertex -2.236909e+001 -3.890000e+002 4.606628e+002
         vertex -2.236909e+001 -3.590000e+002 4.606628e+002
         vertex -3.471765e+001 -3.890000e+002 4.562682e+002
      endloop
   endfacet
   facet normal -3.664165e-001 0.000000e+000 9.304509e-001
      outer loop
         vertex -3.471765e+001 -3.890000e+002 4.562682e+002
         vertex -2.236909e+001 -3.590000e+002 4.606628e+002
         vertex -3.471765e+001 -3.590000e+002 4.562682e+002
      endloop
   endfacet
   facet normal 3.506963e-020 -1.000000e+000 -1.780712e-017
      outer loop
         vertex -3.471765e+001 -3.890000e+002 4.562682e+002
         vertex -8.011230e+001 -3.890000e+002 3.631954e+002
         vertex -2.236909e+001 -3.890000e+002 4.606628e+002
      endloop
   endfacet
   facet normal 3.506963e-020 -1.000000e+000 -1.780712e-017
      outer loop
         vertex -2.236909e+001 -3.890000e+002 4.606628e+002
         vertex -8.011230e+001 -3.890000e+002 3.631954e+002
         vertex -7.597276e+001 -3.890000e+002 3.507590e+002
      endloop
   endfacet
   facet normal 3.506963e-020 -1.000000e+000 -1.780712e-017
      outer loop
         vertex -2.236909e+001 -3.890000e+002 4.606628e+002
         vertex -7.597276e+001 -3.890000e+002 3.507590e+002
         vertex -9.395607e+000 -3.890000e+002 4.625305e+002
      endloop
   endfacet
   facet normal 3.506963e-020 -1.000000e+000 -1.780712e-017
      outer loop
         vertex -9.395607e+000 -3.890000e+002 4.625305e+002
         vertex -7.597276e+001 -3.890000e+002 3.507590e+002
         vertex -6.082278e+001 -3.890000e+002 3.295246e+002
      endloop
   endfacet
   facet normal 3.506963e-020 -1.000000e+000 -1.780712e-017
      outer loop
         vertex -9.395607e+000 -3.890000e+002 4.625305e+002
         vertex -6.082278e+001 -3.890000e+002 3.295246e+002
         vertex -5.040984e+001 -3.890000e+002 3.215641e+002
      endloop
   endfacet
   facet normal 3.506963e-020 -1.000000e+000 -1.780712e-017
      outer loop
         vertex -5.040984e+001 -3.890000e+002 3.215641e+002
         vertex -3.862914e+001 -3.890000e+002 3.158182e+002
         vertex 2.815567e+001 -3.890000e+002 4.527474e+002
      endloop
   endfacet
   facet normal 3.506963e-020 -1.000000e+000 -1.780712e-017
      outer loop
         vertex 2.815567e+001 -3.890000e+002 4.527474e+002
         vertex -3.862914e+001 -3.890000e+002 3.158182e+002
         vertex -2.594530e+001 -3.890000e+002 3.125137e+002
      endloop
   endfacet
   facet normal 3.506963e-020 -1.000000e+000 -1.780712e-017
      outer loop
         vertex 2.815567e+001 -3.890000e+002 4.527474e+002
         vertex -2.594530e+001 -3.890000e+002 3.125137e+002
         vertex 4.720310e+001 -3.890000e+002 4.349255e+002
      endloop
   endfacet
   facet normal 3.506963e-020 -1.000000e+000 -1.780712e-017
      outer loop
         vertex 4.720310e+001 -3.890000e+002 4.349255e+002
         vertex -2.594530e+001 -3.890000e+002 3.125137e+002
         vertex -1.285857e+001 -3.890000e+002 3.117809e+002
      endloop
   endfacet
   facet normal 3.506963e-020 -1.000000e+000 -1.780712e-017
      outer loop
         vertex 4.720310e+001 -3.890000e+002 4.349255e+002
         vertex -1.285857e+001 -3.890000e+002 3.117809e+002
         vertex 5.371860e+001 -3.890000e+002 4.235524e+002
      endloop
   endfacet
   facet normal 3.506963e-020 -1.000000e+000 -1.780712e-017
      outer loop
         vertex 5.371860e+001 -3.890000e+002 4.235524e+002
         vertex -1.285857e+001 -3.890000e+002 3.117809e+002
         vertex 1.149175e-001 -3.890000e+002 3.136486e+002
      endloop
   endfacet
   facet normal 3.506963e-020 -1.000000e+000 -1.780712e-017
      outer loop
         vertex 5.371860e+001 -3.890000e+002 4.235524e+002
         vertex 1.149175e-001 -3.890000e+002 3.136486e+002
         vertex 5.785814e+001 -3.890000e+002 4.111160e+002
      endloop
   endfacet
   facet normal 3.506963e-020 -1.000000e+000 -1.780712e-017
      outer loop
         vertex 5.785814e+001 -3.890000e+002 4.111160e+002
         vertex 1.149175e-001 -3.890000e+002 3.136486e+002
         vertex 1.246348e+001 -3.890000e+002 3.180432e+002
      endloop
   endfacet
   facet normal 3.506963e-020 -1.000000e+000 -1.780712e-017
      outer loop
         vertex 2.815567e+001 -3.890000e+002 4.527474e+002
         vertex 1.637497e+001 -3.890000e+002 4.584932e+002
         vertex -5.040984e+001 -3.890000e+002 3.215641e+002
      endloop
   endfacet
   facet normal 3.506963e-020 -1.000000e+000 -1.780712e-017
      outer loop
         vertex -5.040984e+001 -3.890000e+002 3.215641e+002
         vertex 1.637497e+001 -3.890000e+002 4.584932e+002
         vertex 3.691124e+000 -3.890000e+002 4.617977e+002
      endloop
   endfacet
   facet normal 3.506963e-020 -1.000000e+000 -1.780712e-017
      outer loop
         vertex -5.040984e+001 -3.890000e+002 3.215641e+002
         vertex 3.691124e+000 -3.890000e+002 4.617977e+002
         vertex -9.395607e+000 -3.890000e+002 4.625305e+002
      endloop
   endfacet
   facet normal 3.506963e-020 -1.000000e+000 -1.780712e-017
      outer loop
         vertex -7.597276e+001 -3.890000e+002 3.507590e+002
         vertex -6.945727e+001 -3.890000e+002 3.393859e+002
         vertex -6.082278e+001 -3.890000e+002 3.295246e+002
      endloop
   endfacet
   facet normal 3.506963e-020 -1.000000e+000 -1.780712e-017
      outer loop
         vertex 4.720310e+001 -3.890000e+002 4.349255e+002
         vertex 3.856861e+001 -3.890000e+002 4.447868e+002
         vertex 2.815567e+001 -3.890000e+002 4.527474e+002
      endloop
   endfacet
   facet normal -9.587939e-001 0.000000e+000 -2.841027e-001
      outer loop
         vertex -8.011230e+001 -3.890000e+002 3.631954e+002
         vertex -8.011230e+001 -3.590000e+002 3.631954e+002
         vertex -7.597276e+001 -3.890000e+002 3.507590e+002
      endloop
   endfacet
   facet normal -9.377949e-001 0.000000e+000 -3.471898e-001
      outer loop
         vertex -7.597276e+001 -3.890000e+002 3.507590e+002
         vertex -8.011230e+001 -3.590000e+002 3.631954e+002
         vertex -7.597276e+001 -3.590000e+002 3.507590e+002
      endloop
   endfacet
   facet normal -8.837442e-001 0.000000e+000 -4.679703e-001
      outer loop
         vertex -7.597276e+001 -3.890000e+002 3.507590e+002
         vertex -7.597276e+001 -3.590000e+002 3.507590e+002
         vertex -6.945727e+001 -3.890000e+002 3.393859e+002
      endloop
   endfacet
   facet normal -8.506925e-001 0.000000e+000 -5.256637e-001
      outer loop
         vertex -6.945727e+001 -3.890000e+002 3.393859e+002
         vertex -7.597276e+001 -3.590000e+002 3.507590e+002
         vertex -6.945727e+001 -3.590000e+002 3.393859e+002
      endloop
   endfacet
   facet normal -7.738398e-001 0.000000e+000 -6.333814e-001
      outer loop
         vertex -6.945727e+001 -3.890000e+002 3.393859e+002
         vertex -6.945727e+001 -3.590000e+002 3.393859e+002
         vertex -6.082278e+001 -3.890000e+002 3.295246e+002
      endloop
   endfacet
   facet normal -7.300389e-001 0.000000e+000 -6.834056e-001
      outer loop
         vertex -6.082278e+001 -3.890000e+002 3.295246e+002
         vertex -6.945727e+001 -3.590000e+002 3.393859e+002
         vertex -6.082278e+001 -3.590000e+002 3.295246e+002
      endloop
   endfacet
   facet normal -6.334155e-001 0.000000e+000 -7.738119e-001
      outer loop
         vertex -6.082278e+001 -3.890000e+002 3.295246e+002
         vertex -6.082278e+001 -3.590000e+002 3.295246e+002
         vertex -5.040984e+001 -3.890000e+002 3.215641e+002
      endloop
   endfacet
   facet normal -5.805929e-001 0.000000e+000 -8.141940e-001
      outer loop
         vertex -5.040984e+001 -3.890000e+002 3.215641e+002
         vertex -6.082278e+001 -3.590000e+002 3.295246e+002
         vertex -5.040984e+001 -3.590000e+002 3.215641e+002
      endloop
   endfacet
   facet normal -4.680093e-001 0.000000e+000 -8.837235e-001
      outer loop
         vertex -5.040984e+001 -3.890000e+002 3.215641e+002
         vertex -5.040984e+001 -3.590000e+002 3.215641e+002
         vertex -3.862914e+001 -3.890000e+002 3.158182e+002
      endloop
   endfacet
   facet normal -4.082484e-001 0.000000e+000 -9.128709e-001
      outer loop
         vertex -3.862914e+001 -3.890000e+002 3.158182e+002
         vertex -5.040984e+001 -3.590000e+002 3.215641e+002
         vertex -3.862914e+001 -3.590000e+002 3.158182e+002
      endloop
   endfacet
   facet normal -2.841450e-001 0.000000e+000 -9.587813e-001
      outer loop
         vertex -3.862914e+001 -3.890000e+002 3.158182e+002
         vertex -3.862914e+001 -3.590000e+002 3.158182e+002
         vertex -2.594530e+001 -3.890000e+002 3.125137e+002
      endloop
   endfacet
   facet normal -2.198026e-001 0.000000e+000 -9.755443e-001
      outer loop
         vertex -2.594530e+001 -3.890000e+002 3.125137e+002
         vertex -3.862914e+001 -3.590000e+002 3.158182e+002
         vertex -2.594530e+001 -3.590000e+002 3.125137e+002
      endloop
   endfacet
   facet normal -8.907407e-002 0.000000e+000 -9.960250e-001
      outer loop
         vertex -2.594530e+001 -3.890000e+002 3.125137e+002
         vertex -2.594530e+001 -3.590000e+002 3.125137e+002
         vertex -1.285857e+001 -3.890000e+002 3.117809e+002
      endloop
   endfacet
   facet normal -2.268791e-002 0.000000e+000 -9.997426e-001
      outer loop
         vertex -1.285857e+001 -3.890000e+002 3.117809e+002
         vertex -2.594530e+001 -3.590000e+002 3.125137e+002
         vertex -1.285857e+001 -3.590000e+002 3.117809e+002
      endloop
   endfacet
   facet normal 1.095099e-001 0.000000e+000 -9.939857e-001
      outer loop
         vertex -1.285857e+001 -3.890000e+002 3.117809e+002
         vertex -1.285857e+001 -3.590000e+002 3.117809e+002
         vertex 1.149175e-001 -3.890000e+002 3.136486e+002
      endloop
   endfacet
   facet normal 1.753216e-001 0.000000e+000 -9.845112e-001
      outer loop
         vertex 1.149175e-001 -3.890000e+002 3.136486e+002
         vertex -1.285857e+001 -3.590000e+002 3.117809e+002
         vertex 1.149175e-001 -3.590000e+002 3.136486e+002
      endloop
   endfacet
   facet normal 3.037749e-001 0.000000e+000 -9.527438e-001
      outer loop
         vertex 1.149175e-001 -3.890000e+002 3.136486e+002
         vertex 1.149175e-001 -3.590000e+002 3.136486e+002
         vertex 1.246348e+001 -3.890000e+002 3.180432e+002
      endloop
   endfacet
   facet normal 3.664165e-001 0.000000e+000 -9.304509e-001
      outer loop
         vertex 1.246348e+001 -3.890000e+002 3.180432e+002
         vertex 1.149175e-001 -3.590000e+002 3.136486e+002
         vertex 1.246348e+001 -3.590000e+002 3.180432e+002
      endloop
   endfacet
   facet normal -6.244891e-037 1.000000e+000 1.780712e-017
      outer loop
         vertex -3.862914e+001 -3.590000e+002 3.158182e+002
         vertex -5.040984e+001 -3.590000e+002 3.215641e+002
         vertex -2.594530e+001 -3.590000e+002 3.125137e+002
      endloop
   endfacet
   facet normal -6.244891e-037 1.000000e+000 1.780712e-017
      outer loop
         vertex -2.594530e+001 -3.590000e+002 3.125137e+002
         vertex -5.040984e+001 -3.590000e+002 3.215641e+002
         vertex -3.026212e+001 -3.590000e+002 3.479231e+002
      endloop
   endfacet
   facet normal -6.244891e-037 1.000000e+000 1.780712e-017
      outer loop
         vertex -2.594530e+001 -3.590000e+002 3.125137e+002
         vertex -3.026212e+001 -3.590000e+002 3.479231e+002
         vertex -1.285857e+001 -3.590000e+002 3.117809e+002
      endloop
   endfacet
   facet normal -6.244891e-037 1.000000e+000 1.780712e-017
      outer loop
         vertex -1.285857e+001 -3.590000e+002 3.117809e+002
         vertex -3.026212e+001 -3.590000e+002 3.479231e+002
         vertex 2.878913e+000 -3.590000e+002 3.432654e+002
      endloop
   endfacet
   facet normal -6.244891e-037 1.000000e+000 1.780712e-017
      outer loop
         vertex -1.285857e+001 -3.590000e+002 3.117809e+002
         vertex 2.878913e+000 -3.590000e+002 3.432654e+002
         vertex 1.149175e-001 -3.590000e+002 3.136486e+002
      endloop
   endfacet
   facet normal -6.244891e-037 1.000000e+000 1.780712e-017
      outer loop
         vertex 1.149175e-001 -3.590000e+002 3.136486e+002
         vertex 2.878913e+000 -3.590000e+002 3.432654e+002
         vertex 1.246348e+001 -3.590000e+002 3.180432e+002
      endloop
   endfacet
   facet normal -6.244891e-037 1.000000e+000 1.780712e-017
      outer loop
         vertex -8.011230e+001 -3.590000e+002 3.631954e+002
         vertex -5.433607e+001 -3.590000e+002 3.711710e+002
         vertex -7.597276e+001 -3.590000e+002 3.507590e+002
      endloop
   endfacet
   facet normal -6.244891e-037 1.000000e+000 1.780712e-017
      outer loop
         vertex -7.597276e+001 -3.590000e+002 3.507590e+002
         vertex -5.433607e+001 -3.590000e+002 3.711710e+002
         vertex -3.026212e+001 -3.590000e+002 3.479231e+002
      endloop
   endfacet
   facet normal -6.244891e-037 1.000000e+000 1.780712e-017
      outer loop
         vertex -7.597276e+001 -3.590000e+002 3.507590e+002
         vertex -3.026212e+001 -3.590000e+002 3.479231e+002
         vertex -6.945727e+001 -3.590000e+002 3.393859e+002
      endloop
   endfacet
   facet normal -6.244891e-037 1.000000e+000 1.780712e-017
      outer loop
         vertex -6.945727e+001 -3.590000e+002 3.393859e+002
         vertex -3.026212e+001 -3.590000e+002 3.479231e+002
         vertex -5.040984e+001 -3.590000e+002 3.215641e+002
      endloop
   endfacet
   facet normal -6.244891e-037 1.000000e+000 1.780712e-017
      outer loop
         vertex -6.945727e+001 -3.590000e+002 3.393859e+002
         vertex -5.040984e+001 -3.590000e+002 3.215641e+002
         vertex -6.082278e+001 -3.590000e+002 3.295246e+002
      endloop
   endfacet
   facet normal -6.244891e-037 1.000000e+000 1.780712e-017
      outer loop
         vertex -8.011230e+001 -3.590000e+002 3.631954e+002
         vertex -6.014751e+001 -3.590000e+002 4.041293e+002
         vertex -5.433607e+001 -3.590000e+002 3.711710e+002
      endloop
   endfacet
   facet normal -6.244891e-037 1.000000e+000 1.780712e-017
      outer loop
         vertex 2.878913e+000 -3.590000e+002 3.432654e+002
         vertex 3.242828e+001 -3.590000e+002 3.589771e+002
         vertex 1.246348e+001 -3.590000e+002 3.180432e+002
      endloop
   endfacet
   facet normal 9.455186e-001 -5.764272e-018 3.255682e-001
      outer loop
         vertex 7.113949e+001 -1.985000e+002 4.075510e+002
         vertex 6.142200e+001 -1.985000e+002 4.357726e+002
         vertex 7.113949e+001 -2.315000e+002 4.075510e+002
      endloop
   endfacet
   facet normal 9.455186e-001 -5.764272e-018 3.255682e-001
      outer loop
         vertex 7.113949e+001 -2.315000e+002 4.075510e+002
         vertex 6.142200e+001 -1.985000e+002 4.357726e+002
         vertex 6.142200e+001 -2.315000e+002 4.357726e+002
      endloop
   endfacet
   facet normal 8.987941e-001 7.837648e-018 -4.383711e-001
      outer loop
         vertex 3.265536e+001 -1.985000e+002 3.286469e+002
         vertex 7.113949e+001 -1.985000e+002 4.075510e+002
         vertex 3.265536e+001 -2.315000e+002 3.286469e+002
      endloop
   endfacet
   facet normal 8.987941e-001 7.837648e-018 -4.383711e-001
      outer loop
         vertex 3.265536e+001 -2.315000e+002 3.286469e+002
         vertex 7.113949e+001 -1.985000e+002 4.075510e+002
         vertex 7.113949e+001 -2.315000e+002 4.075510e+002
      endloop
   endfacet
   facet normal 3.255682e-001 1.684838e-017 -9.455186e-001
      outer loop
         vertex 4.433752e+000 -1.985000e+002 3.189294e+002
         vertex 3.265536e+001 -1.985000e+002 3.286469e+002
         vertex 4.433752e+000 -2.315000e+002 3.189294e+002
      endloop
   endfacet
   facet normal 3.255682e-001 1.684838e-017 -9.455186e-001
      outer loop
         vertex 4.433752e+000 -2.315000e+002 3.189294e+002
         vertex 3.265536e+001 -1.985000e+002 3.286469e+002
         vertex 3.265536e+001 -2.315000e+002 3.286469e+002
      endloop
   endfacet
   facet normal -4.383712e-001 1.598956e-017 -8.987941e-001
      outer loop
         vertex -7.447038e+001 -1.985000e+002 3.574135e+002
         vertex 4.433752e+000 -1.985000e+002 3.189294e+002
         vertex -7.447038e+001 -2.315000e+002 3.574135e+002
      endloop
   endfacet
   facet normal -4.383712e-001 1.598956e-017 -8.987941e-001
      outer loop
         vertex -7.447038e+001 -2.315000e+002 3.574135e+002
         vertex 4.433752e+000 -1.985000e+002 3.189294e+002
         vertex 4.433752e+000 -2.315000e+002 3.189294e+002
      endloop
   endfacet
   facet normal -9.455186e-001 5.764272e-018 -3.255682e-001
      outer loop
         vertex -8.418786e+001 -1.985000e+002 3.856351e+002
         vertex -7.447038e+001 -1.985000e+002 3.574135e+002
         vertex -8.418786e+001 -2.315000e+002 3.856351e+002
      endloop
   endfacet
   facet normal -9.455186e-001 5.764272e-018 -3.255682e-001
      outer loop
         vertex -8.418786e+001 -2.315000e+002 3.856351e+002
         vertex -7.447038e+001 -1.985000e+002 3.574135e+002
         vertex -7.447038e+001 -2.315000e+002 3.574135e+002
      endloop
   endfacet
   facet normal -8.987941e-001 -7.837648e-018 4.383711e-001
      outer loop
         vertex -4.570374e+001 -1.985000e+002 4.645392e+002
         vertex -8.418786e+001 -1.985000e+002 3.856351e+002
         vertex -4.570374e+001 -2.315000e+002 4.645392e+002
      endloop
   endfacet
   facet normal -8.987941e-001 -7.837648e-018 4.383711e-001
      outer loop
         vertex -4.570374e+001 -2.315000e+002 4.645392e+002
         vertex -8.418786e+001 -1.985000e+002 3.856351e+002
         vertex -8.418786e+001 -2.315000e+002 3.856351e+002
      endloop
   endfacet
   facet normal -3.255682e-001 -1.684838e-017 9.455186e-001
      outer loop
         vertex -1.748213e+001 -1.985000e+002 4.742567e+002
         vertex -4.570374e+001 -1.985000e+002 4.645392e+002
         vertex -1.748213e+001 -2.315000e+002 4.742567e+002
      endloop
   endfacet
   facet normal -3.255682e-001 -1.684838e-017 9.455186e-001
      outer loop
         vertex -1.748213e+001 -2.315000e+002 4.742567e+002
         vertex -4.570374e+001 -1.985000e+002 4.645392e+002
         vertex -4.570374e+001 -2.315000e+002 4.645392e+002
      endloop
   endfacet
   facet normal 4.383712e-001 -1.598956e-017 8.987941e-001
      outer loop
         vertex 6.142200e+001 -1.985000e+002 4.357726e+002
         vertex -1.748213e+001 -1.985000e+002 4.742567e+002
         vertex 6.142200e+001 -2.315000e+002 4.357726e+002
      endloop
   endfacet
   facet normal 4.383712e-001 -1.598956e-017 8.987941e-001
      outer loop
         vertex 6.142200e+001 -2.315000e+002 4.357726e+002
         vertex -1.748213e+001 -1.985000e+002 4.742567e+002
         vertex -1.748213e+001 -2.315000e+002 4.742567e+002
      endloop
   endfacet
   facet normal 9.848077e-001 -3.057637e-018 1.736482e-001
      outer loop
         vertex 4.709913e+001 -3.590000e+002 3.890568e+002
         vertex 4.709913e+001 -2.315000e+002 3.890568e+002
         vertex 4.128769e+001 -3.590000e+002 4.220151e+002
      endloop
   endfacet
   facet normal 9.848077e-001 -3.057637e-018 1.736482e-001
      outer loop
         vertex 4.128769e+001 -3.590000e+002 4.220151e+002
         vertex 4.709913e+001 -2.315000e+002 3.890568e+002
         vertex 4.128769e+001 -2.315000e+002 4.220151e+002
      endloop
   endfacet
   facet normal 6.946584e-001 -1.278501e-017 7.193397e-001
      outer loop
         vertex 4.128769e+001 -3.590000e+002 4.220151e+002
         vertex 4.128769e+001 -2.315000e+002 4.220151e+002
         vertex 1.721374e+001 -3.590000e+002 4.452630e+002
      endloop
   endfacet
   facet normal 6.946584e-001 -1.278501e-017 7.193397e-001
      outer loop
         vertex 1.721374e+001 -3.590000e+002 4.452630e+002
         vertex 4.128769e+001 -2.315000e+002 4.220151e+002
         vertex 1.721374e+001 -2.315000e+002 4.452630e+002
      endloop
   endfacet
   facet normal 1.391731e-001 -1.762894e-017 9.902681e-001
      outer loop
         vertex 1.721374e+001 -3.590000e+002 4.452630e+002
         vertex 1.721374e+001 -2.315000e+002 4.452630e+002
         vertex -1.592729e+001 -3.590000e+002 4.499207e+002
      endloop
   endfacet
   facet normal 1.391731e-001 -1.762894e-017 9.902681e-001
      outer loop
         vertex -1.592729e+001 -3.590000e+002 4.499207e+002
         vertex 1.721374e+001 -2.315000e+002 4.452630e+002
         vertex -1.592729e+001 -2.315000e+002 4.499207e+002
      endloop
   endfacet
   facet normal -4.694716e-001 -1.573922e-017 8.829476e-001
      outer loop
         vertex -1.592729e+001 -3.590000e+002 4.499207e+002
         vertex -1.592729e+001 -2.315000e+002 4.499207e+002
         vertex -4.547666e+001 -3.590000e+002 4.342090e+002
      endloop
   endfacet
   facet normal -4.694716e-001 -1.573922e-017 8.829476e-001
      outer loop
         vertex -4.547666e+001 -3.590000e+002 4.342090e+002
         vertex -1.592729e+001 -2.315000e+002 4.499207e+002
         vertex -4.547666e+001 -2.315000e+002 4.342090e+002
      endloop
   endfacet
   facet normal -8.987941e-001 -7.837648e-018 4.383711e-001
      outer loop
         vertex -4.547666e+001 -2.315000e+002 4.342090e+002
         vertex -6.014751e+001 -2.315000e+002 4.041293e+002
         vertex -4.547666e+001 -3.590000e+002 4.342090e+002
      endloop
   endfacet
   facet normal -8.987941e-001 -7.837648e-018 4.383711e-001
      outer loop
         vertex -4.547666e+001 -3.590000e+002 4.342090e+002
         vertex -6.014751e+001 -2.315000e+002 4.041293e+002
         vertex -6.014751e+001 -3.590000e+002 4.041293e+002
      endloop
   endfacet
   facet normal -8.987941e-001 -7.837648e-018 4.383711e-001
      outer loop
         vertex -4.547666e+001 -3.590000e+002 4.342090e+002
         vertex -6.014751e+001 -3.590000e+002 4.041293e+002
         vertex -3.471765e+001 -3.890000e+002 4.562682e+002
      endloop
   endfacet
   facet normal -8.987941e-001 -7.837648e-018 4.383711e-001
      outer loop
         vertex -3.471765e+001 -3.890000e+002 4.562682e+002
         vertex -6.014751e+001 -3.590000e+002 4.041293e+002
         vertex -8.011230e+001 -3.890000e+002 3.631954e+002
      endloop
   endfacet
   facet normal -8.987941e-001 -7.837648e-018 4.383711e-001
      outer loop
         vertex -3.471765e+001 -3.890000e+002 4.562682e+002
         vertex -3.471765e+001 -3.590000e+002 4.562682e+002
         vertex -4.547666e+001 -3.590000e+002 4.342090e+002
      endloop
   endfacet
   facet normal -8.987941e-001 -7.837648e-018 4.383711e-001
      outer loop
         vertex -6.014751e+001 -3.590000e+002 4.041293e+002
         vertex -8.011230e+001 -3.590000e+002 3.631954e+002
         vertex -8.011230e+001 -3.890000e+002 3.631954e+002
      endloop
   endfacet
   facet normal -9.848077e-001 3.057637e-018 -1.736482e-001
      outer loop
         vertex -6.014751e+001 -3.590000e+002 4.041293e+002
         vertex -6.014751e+001 -2.315000e+002 4.041293e+002
         vertex -5.433607e+001 -3.590000e+002 3.711710e+002
      endloop
   endfacet
   facet normal -9.848077e-001 3.057637e-018 -1.736482e-001
      outer loop
         vertex -5.433607e+001 -3.590000e+002 3.711710e+002
         vertex -6.014751e+001 -2.315000e+002 4.041293e+002
         vertex -5.433607e+001 -2.315000e+002 3.711710e+002
      endloop
   endfacet
   facet normal -6.946584e-001 1.278501e-017 -7.193397e-001
      outer loop
         vertex -5.433607e+001 -3.590000e+002 3.711710e+002
         vertex -5.433607e+001 -2.315000e+002 3.711710e+002
         vertex -3.026212e+001 -3.590000e+002 3.479231e+002
      endloop
   endfacet
   facet normal -6.946584e-001 1.278501e-017 -7.193397e-001
      outer loop
         vertex -3.026212e+001 -3.590000e+002 3.479231e+002
         vertex -5.433607e+001 -2.315000e+002 3.711710e+002
         vertex -3.026212e+001 -2.315000e+002 3.479231e+002
      endloop
   endfacet
   facet normal -1.391731e-001 1.762894e-017 -9.902681e-001
      outer loop
         vertex -3.026212e+001 -3.590000e+002 3.479231e+002
         vertex -3.026212e+001 -2.315000e+002 3.479231e+002
         vertex 2.878913e+000 -3.590000e+002 3.432654e+002
      endloop
   endfacet
   facet normal -1.391731e-001 1.762894e-017 -9.902681e-001
      outer loop
         vertex 2.878913e+000 -3.590000e+002 3.432654e+002
         vertex -3.026212e+001 -2.315000e+002 3.479231e+002
         vertex 2.878913e+000 -2.315000e+002 3.432654e+002
      endloop
   endfacet
   facet normal 4.694716e-001 1.573922e-017 -8.829476e-001
      outer loop
         vertex 2.878913e+000 -3.590000e+002 3.432654e+002
         vertex 2.878913e+000 -2.315000e+002 3.432654e+002
         vertex 3.242828e+001 -3.590000e+002 3.589771e+002
      endloop
   endfacet
   facet normal 4.694716e-001 1.573922e-017 -8.829476e-001
      outer loop
         vertex 3.242828e+001 -3.590000e+002 3.589771e+002
         vertex 2.878913e+000 -2.315000e+002 3.432654e+002
         vertex 3.242828e+001 -2.315000e+002 3.589771e+002
      endloop
   endfacet
   facet normal 8.987941e-001 7.837648e-018 -4.383711e-001
      outer loop
         vertex 3.242828e+001 -2.315000e+002 3.589771e+002
         vertex 4.709913e+001 -2.315000e+002 3.890568e+002
         vertex 3.242828e+001 -3.590000e+002 3.589771e+002
      endloop
   endfacet
   facet normal 8.987941e-001 7.837648e-018 -4.383711e-001
      outer loop
         vertex 3.242828e+001 -3.590000e+002 3.589771e+002
         vertex 4.709913e+001 -2.315000e+002 3.890568e+002
         vertex 4.709913e+001 -3.590000e+002 3.890568e+002
      endloop
   endfacet
   facet normal 8.987941e-001 7.837648e-018 -4.383711e-001
      outer loop
         vertex 3.242828e+001 -3.590000e+002 3.589771e+002
         vertex 4.709913e+001 -3.590000e+002 3.890568e+002
         vertex 1.246348e+001 -3.890000e+002 3.180432e+002
      endloop
   endfacet
   facet normal 8.987941e-001 7.837648e-018 -4.383711e-001
      outer loop
         vertex 1.246348e+001 -3.890000e+002 3.180432e+002
         vertex 4.709913e+001 -3.590000e+002 3.890568e+002
         vertex 5.785814e+001 -3.890000e+002 4.111160e+002
      endloop
   endfacet
   facet normal 8.987941e-001 7.837648e-018 -4.383711e-001
      outer loop
         vertex 1.246348e+001 -3.890000e+002 3.180432e+002
         vertex 1.246348e+001 -3.590000e+002 3.180432e+002
         vertex 3.242828e+001 -3.590000e+002 3.589771e+002
      endloop
   endfacet
   facet normal 8.987941e-001 7.837648e-018 -4.383711e-001
      outer loop
         vertex 4.709913e+001 -3.590000e+002 3.890568e+002
         vertex 5.785814e+001 -3.590000e+002 4.111160e+002
         vertex 5.785814e+001 -3.890000e+002 4.111160e+002
      endloop
   endfacet
   facet normal 6.244891e-037 -1.000000e+000 -1.780712e-017
      outer loop
         vertex 3.242828e+001 -2.315000e+002 3.589771e+002
         vertex 2.878913e+000 -2.315000e+002 3.432654e+002
         vertex 4.433752e+000 -2.315000e+002 3.189294e+002
      endloop
   endfacet
   facet normal 6.244891e-037 -1.000000e+000 -1.780712e-017
      outer loop
         vertex 4.433752e+000 -2.315000e+002 3.189294e+002
         vertex 2.878913e+000 -2.315000e+002 3.432654e+002
         vertex -3.026212e+001 -2.315000e+002 3.479231e+002
      endloop
   endfacet
   facet normal 6.244891e-037 -1.000000e+000 -1.780712e-017
      outer loop
         vertex 4.433752e+000 -2.315000e+002 3.189294e+002
         vertex -3.026212e+001 -2.315000e+002 3.479231e+002
         vertex -7.447038e+001 -2.315000e+002 3.574135e+002
      endloop
   endfacet
   facet normal 6.244891e-037 -1.000000e+000 -1.780712e-017
      outer loop
         vertex -7.447038e+001 -2.315000e+002 3.574135e+002
         vertex -3.026212e+001 -2.315000e+002 3.479231e+002
         vertex -5.433607e+001 -2.315000e+002 3.711710e+002
      endloop
   endfacet
   facet normal 6.244891e-037 -1.000000e+000 -1.780712e-017
      outer loop
         vertex -7.447038e+001 -2.315000e+002 3.574135e+002
         vertex -5.433607e+001 -2.315000e+002 3.711710e+002
         vertex -8.418786e+001 -2.315000e+002 3.856351e+002
      endloop
   endfacet
   facet normal 6.244891e-037 -1.000000e+000 -1.780712e-017
      outer loop
         vertex -8.418786e+001 -2.315000e+002 3.856351e+002
         vertex -5.433607e+001 -2.315000e+002 3.711710e+002
         vertex -6.014751e+001 -2.315000e+002 4.041293e+002
      endloop
   endfacet
   facet normal 6.244891e-037 -1.000000e+000 -1.780712e-017
      outer loop
         vertex -8.418786e+001 -2.315000e+002 3.856351e+002
         vertex -6.014751e+001 -2.315000e+002 4.041293e+002
         vertex -4.570374e+001 -2.315000e+002 4.645392e+002
      endloop
   endfacet
   facet normal 6.244891e-037 -1.000000e+000 -1.780712e-017
      outer loop
         vertex -4.570374e+001 -2.315000e+002 4.645392e+002
         vertex -6.014751e+001 -2.315000e+002 4.041293e+002
         vertex -4.547666e+001 -2.315000e+002 4.342090e+002
      endloop
   endfacet
   facet normal 6.244891e-037 -1.000000e+000 -1.780712e-017
      outer loop
         vertex -4.570374e+001 -2.315000e+002 4.645392e+002
         vertex -4.547666e+001 -2.315000e+002 4.342090e+002
         vertex -1.748213e+001 -2.315000e+002 4.742567e+002
      endloop
   endfacet
   facet normal 6.244891e-037 -1.000000e+000 -1.780712e-017
      outer loop
         vertex -1.748213e+001 -2.315000e+002 4.742567e+002
         vertex -4.547666e+001 -2.315000e+002 4.342090e+002
         vertex -1.592729e+001 -2.315000e+002 4.499207e+002
      endloop
   endfacet
   facet normal 6.244891e-037 -1.000000e+000 -1.780712e-017
      outer loop
         vertex -1.748213e+001 -2.315000e+002 4.742567e+002
         vertex -1.592729e+001 -2.315000e+002 4.499207e+002
         vertex 1.721374e+001 -2.315000e+002 4.452630e+002
      endloop
   endfacet
   facet normal 6.244891e-037 -1.000000e+000 -1.780712e-017
      outer loop
         vertex -1.748213e+001 -2.315000e+002 4.742567e+002
         vertex 1.721374e+001 -2.315000e+002 4.452630e+002
         vertex 6.142200e+001 -2.315000e+002 4.357726e+002
      endloop
   endfacet
   facet normal 6.244891e-037 -1.000000e+000 -1.780712e-017
      outer loop
         vertex 6.142200e+001 -2.315000e+002 4.357726e+002
         vertex 1.721374e+001 -2.315000e+002 4.452630e+002
         vertex 4.128769e+001 -2.315000e+002 4.220151e+002
      endloop
   endfacet
   facet normal 6.244891e-037 -1.000000e+000 -1.780712e-017
      outer loop
         vertex 6.142200e+001 -2.315000e+002 4.357726e+002
         vertex 4.128769e+001 -2.315000e+002 4.220151e+002
         vertex 7.113949e+001 -2.315000e+002 4.075510e+002
      endloop
   endfacet
   facet normal 6.244891e-037 -1.000000e+000 -1.780712e-017
      outer loop
         vertex 7.113949e+001 -2.315000e+002 4.075510e+002
         vertex 4.128769e+001 -2.315000e+002 4.220151e+002
         vertex 4.709913e+001 -2.315000e+002 3.890568e+002
      endloop
   endfacet
   facet normal 6.244891e-037 -1.000000e+000 -1.780712e-017
      outer loop
         vertex 7.113949e+001 -2.315000e+002 4.075510e+002
         vertex 4.709913e+001 -2.315000e+002 3.890568e+002
         vertex 3.265536e+001 -2.315000e+002 3.286469e+002
      endloop
   endfacet
   facet normal 6.244891e-037 -1.000000e+000 -1.780712e-017
      outer loop
         vertex 3.265536e+001 -2.315000e+002 3.286469e+002
         vertex 4.709913e+001 -2.315000e+002 3.890568e+002
         vertex 3.242828e+001 -2.315000e+002 3.589771e+002
      endloop
   endfacet
   facet normal 6.244891e-037 -1.000000e+000 -1.780712e-017
      outer loop
         vertex 3.265536e+001 -2.315000e+002 3.286469e+002
         vertex 3.242828e+001 -2.315000e+002 3.589771e+002
         vertex 4.433752e+000 -2.315000e+002 3.189294e+002
      endloop
   endfacet
endsolid