solid IRB2400_10_m2000_rev3_01-3
   facet normal 1.428161e-033 1.000000e+000 -3.921583e-018
      outer loop
         vertex -7.277517e+001 -5.150000e+001 5.963505e+002
         vertex -8.000000e+001 -5.150000e+001 5.950000e+002
         vertex -6.652608e+001 -5.150000e+001 6.002198e+002
      endloop
   endfacet
   facet normal 1.428161e-033 1.000000e+000 -3.921583e-018
      outer loop
         vertex -6.652608e+001 -5.150000e+001 6.002198e+002
         vertex -8.000000e+001 -5.150000e+001 5.950000e+002
         vertex -9.347391e+001 -5.150000e+001 6.002198e+002
      endloop
   endfacet
   facet normal 1.428161e-033 1.000000e+000 -3.921583e-018
      outer loop
         vertex -6.652608e+001 -5.150000e+001 6.002198e+002
         vertex -9.347391e+001 -5.150000e+001 6.002198e+002
         vertex -6.209673e+001 -5.150000e+001 6.060853e+002
      endloop
   endfacet
   facet normal 1.428161e-033 1.000000e+000 -3.921583e-018
      outer loop
         vertex -6.209673e+001 -5.150000e+001 6.060853e+002
         vertex -9.347391e+001 -5.150000e+001 6.002198e+002
         vertex -6.403966e+001 -5.150000e+001 6.270527e+002
      endloop
   endfacet
   facet normal 1.428161e-033 1.000000e+000 -3.921583e-018
      outer loop
         vertex -6.209673e+001 -5.150000e+001 6.060853e+002
         vertex -6.403966e+001 -5.150000e+001 6.270527e+002
         vertex -6.008532e+001 -5.150000e+001 6.131547e+002
      endloop
   endfacet
   facet normal 1.428161e-033 1.000000e+000 -3.921583e-018
      outer loop
         vertex -6.008532e+001 -5.150000e+001 6.131547e+002
         vertex -6.403966e+001 -5.150000e+001 6.270527e+002
         vertex -6.076348e+001 -5.150000e+001 6.204733e+002
      endloop
   endfacet
   facet normal 1.428161e-033 1.000000e+000 -3.921583e-018
      outer loop
         vertex -6.403966e+001 -5.150000e+001 6.270527e+002
         vertex -9.347391e+001 -5.150000e+001 6.002198e+002
         vertex -6.947136e+001 -5.150000e+001 6.320043e+002
      endloop
   endfacet
   facet normal 1.428161e-033 1.000000e+000 -3.921583e-018
      outer loop
         vertex -6.947136e+001 -5.150000e+001 6.320043e+002
         vertex -9.347391e+001 -5.150000e+001 6.002198e+002
         vertex -9.790327e+001 -5.150000e+001 6.060853e+002
      endloop
   endfacet
   facet normal 1.428161e-033 1.000000e+000 -3.921583e-018
      outer loop
         vertex -6.947136e+001 -5.150000e+001 6.320043e+002
         vertex -9.790327e+001 -5.150000e+001 6.060853e+002
         vertex -7.632500e+001 -5.150000e+001 6.346595e+002
      endloop
   endfacet
   facet normal 1.428161e-033 1.000000e+000 -3.921583e-018
      outer loop
         vertex -7.632500e+001 -5.150000e+001 6.346595e+002
         vertex -9.790327e+001 -5.150000e+001 6.060853e+002
         vertex -9.991469e+001 -5.150000e+001 6.131547e+002
      endloop
   endfacet
   facet normal 1.428161e-033 1.000000e+000 -3.921583e-018
      outer loop
         vertex -7.632500e+001 -5.150000e+001 6.346595e+002
         vertex -9.991469e+001 -5.150000e+001 6.131547e+002
         vertex -8.367499e+001 -5.150000e+001 6.346595e+002
      endloop
   endfacet
   facet normal 1.428161e-033 1.000000e+000 -3.921583e-018
      outer loop
         vertex -8.367499e+001 -5.150000e+001 6.346595e+002
         vertex -9.991469e+001 -5.150000e+001 6.131547e+002
         vertex -9.923651e+001 -5.150000e+001 6.204733e+002
      endloop
   endfacet
   facet normal 1.428161e-033 1.000000e+000 -3.921583e-018
      outer loop
         vertex -8.367499e+001 -5.150000e+001 6.346595e+002
         vertex -9.923651e+001 -5.150000e+001 6.204733e+002
         vertex -9.052865e+001 -5.150000e+001 6.320043e+002
      endloop
   endfacet
   facet normal 1.428161e-033 1.000000e+000 -3.921583e-018
      outer loop
         vertex -9.052865e+001 -5.150000e+001 6.320043e+002
         vertex -9.923651e+001 -5.150000e+001 6.204733e+002
         vertex -9.596034e+001 -5.150000e+001 6.270527e+002
      endloop
   endfacet
   facet normal 1.428161e-033 1.000000e+000 -3.921583e-018
      outer loop
         vertex -8.000000e+001 -5.150000e+001 5.950000e+002
         vertex -8.722483e+001 -5.150000e+001 5.963505e+002
         vertex -9.347391e+001 -5.150000e+001 6.002198e+002
      endloop
   endfacet
   facet normal 4.725380e-001 0.000000e+000 -8.813103e-001
      outer loop
         vertex -7.277517e+001 -6.400000e+001 5.963505e+002
         vertex -7.277517e+001 -5.150000e+001 5.963505e+002
         vertex -6.652608e+001 -6.400000e+001 6.002198e+002
      endloop
   endfacet
   facet normal 5.782883e-001 0.000000e+000 -8.158325e-001
      outer loop
         vertex -6.652608e+001 -6.400000e+001 6.002198e+002
         vertex -7.277517e+001 -5.150000e+001 5.963505e+002
         vertex -6.652608e+001 -5.150000e+001 6.002198e+002
      endloop
   endfacet
   facet normal 7.589946e-001 0.000000e+000 -6.510969e-001
      outer loop
         vertex -6.652608e+001 -6.400000e+001 6.002198e+002
         vertex -6.652608e+001 -5.150000e+001 6.002198e+002
         vertex -6.209673e+001 -6.400000e+001 6.060853e+002
      endloop
   endfacet
   facet normal 8.339505e-001 0.000000e+000 -5.518393e-001
      outer loop
         vertex -6.209673e+001 -6.400000e+001 6.060853e+002
         vertex -6.652608e+001 -5.150000e+001 6.002198e+002
         vertex -6.209673e+001 -5.150000e+001 6.060853e+002
      endloop
   endfacet
   facet normal 9.429447e-001 0.000000e+000 -3.329494e-001
      outer loop
         vertex -6.209673e+001 -6.400000e+001 6.060853e+002
         vertex -6.209673e+001 -5.150000e+001 6.060853e+002
         vertex -6.008532e+001 -6.400000e+001 6.131547e+002
      endloop
   endfacet
   facet normal 9.769830e-001 0.000000e+000 -2.133172e-001
      outer loop
         vertex -6.008532e+001 -6.400000e+001 6.131547e+002
         vertex -6.209673e+001 -5.150000e+001 6.060853e+002
         vertex -6.008532e+001 -5.150000e+001 6.131547e+002
      endloop
   endfacet
   facet normal 9.995449e-001 0.000000e+000 3.016486e-002
      outer loop
         vertex -6.008532e+001 -6.400000e+001 6.131547e+002
         vertex -6.008532e+001 -5.150000e+001 6.131547e+002
         vertex -6.076348e+001 -6.400000e+001 6.204733e+002
      endloop
   endfacet
   facet normal 9.880686e-001 0.000000e+000 1.540146e-001
      outer loop
         vertex -6.076348e+001 -6.400000e+001 6.204733e+002
         vertex -6.008532e+001 -5.150000e+001 6.131547e+002
         vertex -6.076348e+001 -5.150000e+001 6.204733e+002
      endloop
   endfacet
   facet normal 9.211511e-001 0.000000e+000 3.892052e-001
      outer loop
         vertex -6.076348e+001 -6.400000e+001 6.204733e+002
         vertex -6.076348e+001 -5.150000e+001 6.204733e+002
         vertex -6.403966e+001 -6.400000e+001 6.270527e+002
      endloop
   endfacet
   facet normal 8.657100e-001 0.000000e+000 5.005459e-001
      outer loop
         vertex -6.403966e+001 -6.400000e+001 6.270527e+002
         vertex -6.076348e+001 -5.150000e+001 6.204733e+002
         vertex -6.403966e+001 -5.150000e+001 6.270527e+002
      endloop
   endfacet
   facet normal 7.183506e-001 0.000000e+000 6.956812e-001
      outer loop
         vertex -6.403966e+001 -6.400000e+001 6.270527e+002
         vertex -6.403966e+001 -5.150000e+001 6.270527e+002
         vertex -6.947136e+001 -6.400000e+001 6.320043e+002
      endloop
   endfacet
   facet normal 6.264325e-001 0.000000e+000 7.794757e-001
      outer loop
         vertex -6.947136e+001 -6.400000e+001 6.320043e+002
         vertex -6.403966e+001 -5.150000e+001 6.270527e+002
         vertex -6.947136e+001 -5.150000e+001 6.320043e+002
      endloop
   endfacet
   facet normal 4.185330e-001 0.000000e+000 9.082016e-001
      outer loop
         vertex -6.947136e+001 -6.400000e+001 6.320043e+002
         vertex -6.947136e+001 -5.150000e+001 6.320043e+002
         vertex -7.632500e+001 -6.400000e+001 6.346595e+002
      endloop
   endfacet
   facet normal 3.025518e-001 0.000000e+000 9.531329e-001
      outer loop
         vertex -7.632500e+001 -6.400000e+001 6.346595e+002
         vertex -6.947136e+001 -5.150000e+001 6.320043e+002
         vertex -7.632500e+001 -5.150000e+001 6.346595e+002
      endloop
   endfacet
   facet normal 6.219018e-002 0.000000e+000 9.980643e-001
      outer loop
         vertex -7.632500e+001 -6.400000e+001 6.346595e+002
         vertex -7.632500e+001 -5.150000e+001 6.346595e+002
         vertex -8.367499e+001 -6.400000e+001 6.346595e+002
      endloop
   endfacet
   facet normal -6.219018e-002 0.000000e+000 9.980643e-001
      outer loop
         vertex -8.367499e+001 -6.400000e+001 6.346595e+002
         vertex -7.632500e+001 -5.150000e+001 6.346595e+002
         vertex -8.367499e+001 -5.150000e+001 6.346595e+002
      endloop
   endfacet
   facet normal -3.025518e-001 0.000000e+000 9.531329e-001
      outer loop
         vertex -8.367499e+001 -6.400000e+001 6.346595e+002
         vertex -8.367499e+001 -5.150000e+001 6.346595e+002
         vertex -9.052865e+001 -6.400000e+001 6.320043e+002
      endloop
   endfacet
   facet normal -4.185330e-001 0.000000e+000 9.082016e-001
      outer loop
         vertex -9.052865e+001 -6.400000e+001 6.320043e+002
         vertex -8.367499e+001 -5.150000e+001 6.346595e+002
         vertex -9.052865e+001 -5.150000e+001 6.320043e+002
      endloop
   endfacet
   facet normal -6.264325e-001 0.000000e+000 7.794757e-001
      outer loop
         vertex -9.052865e+001 -6.400000e+001 6.320043e+002
         vertex -9.052865e+001 -5.150000e+001 6.320043e+002
         vertex -9.596034e+001 -6.400000e+001 6.270527e+002
      endloop
   endfacet
   facet normal -7.183506e-001 0.000000e+000 6.956812e-001
      outer loop
         vertex -9.596034e+001 -6.400000e+001 6.270527e+002
         vertex -9.052865e+001 -5.150000e+001 6.320043e+002
         vertex -9.596034e+001 -5.150000e+001 6.270527e+002
      endloop
   endfacet
   facet normal -8.657100e-001 0.000000e+000 5.005459e-001
      outer loop
         vertex -9.596034e+001 -6.400000e+001 6.270527e+002
         vertex -9.596034e+001 -5.150000e+001 6.270527e+002
         vertex -9.923651e+001 -6.400000e+001 6.204733e+002
      endloop
   endfacet
   facet normal -9.211511e-001 0.000000e+000 3.892052e-001
      outer loop
         vertex -9.923651e+001 -6.400000e+001 6.204733e+002
         vertex -9.596034e+001 -5.150000e+001 6.270527e+002
         vertex -9.923651e+001 -5.150000e+001 6.204733e+002
      endloop
   endfacet
   facet normal -9.880686e-001 0.000000e+000 1.540146e-001
      outer loop
         vertex -9.923651e+001 -6.400000e+001 6.204733e+002
         vertex -9.923651e+001 -5.150000e+001 6.204733e+002
         vertex -9.991469e+001 -6.400000e+001 6.131547e+002
      endloop
   endfacet
   facet normal -9.995449e-001 0.000000e+000 3.016486e-002
      outer loop
         vertex -9.991469e+001 -6.400000e+001 6.131547e+002
         vertex -9.923651e+001 -5.150000e+001 6.204733e+002
         vertex -9.991469e+001 -5.150000e+001 6.131547e+002
      endloop
   endfacet
   facet normal -9.769830e-001 0.000000e+000 -2.133172e-001
      outer loop
         vertex -9.991469e+001 -6.400000e+001 6.131547e+002
         vertex -9.991469e+001 -5.150000e+001 6.131547e+002
         vertex -9.790327e+001 -6.400000e+001 6.060853e+002
      endloop
   endfacet
   facet normal -9.429447e-001 0.000000e+000 -3.329494e-001
      outer loop
         vertex -9.790327e+001 -6.400000e+001 6.060853e+002
         vertex -9.991469e+001 -5.150000e+001 6.131547e+002
         vertex -9.790327e+001 -5.150000e+001 6.060853e+002
      endloop
   endfacet
   facet normal -8.339505e-001 0.000000e+000 -5.518393e-001
      outer loop
         vertex -9.790327e+001 -6.400000e+001 6.060853e+002
         vertex -9.790327e+001 -5.150000e+001 6.060853e+002
         vertex -9.347391e+001 -6.400000e+001 6.002198e+002
      endloop
   endfacet
   facet normal -7.589946e-001 0.000000e+000 -6.510969e-001
      outer loop
         vertex -9.347391e+001 -6.400000e+001 6.002198e+002
         vertex -9.790327e+001 -5.150000e+001 6.060853e+002
         vertex -9.347391e+001 -5.150000e+001 6.002198e+002
      endloop
   endfacet
   facet normal -5.782883e-001 0.000000e+000 -8.158325e-001
      outer loop
         vertex -9.347391e+001 -6.400000e+001 6.002198e+002
         vertex -9.347391e+001 -5.150000e+001 6.002198e+002
         vertex -8.722483e+001 -6.400000e+001 5.963505e+002
      endloop
   endfacet
   facet normal -4.725380e-001 0.000000e+000 -8.813103e-001
      outer loop
         vertex -8.722483e+001 -6.400000e+001 5.963505e+002
         vertex -9.347391e+001 -5.150000e+001 6.002198e+002
         vertex -8.722483e+001 -5.150000e+001 5.963505e+002
      endloop
   endfacet
   facet normal -2.445251e-001 0.000000e+000 -9.696429e-001
      outer loop
         vertex -8.722483e+001 -6.400000e+001 5.963505e+002
         vertex -8.722483e+001 -5.150000e+001 5.963505e+002
         vertex -8.000000e+001 -6.400000e+001 5.950000e+002
      endloop
   endfacet
   facet normal -1.222626e-001 0.000000e+000 -9.924978e-001
      outer loop
         vertex -8.000000e+001 -6.400000e+001 5.950000e+002
         vertex -8.722483e+001 -5.150000e+001 5.963505e+002
         vertex -8.000000e+001 -5.150000e+001 5.950000e+002
      endloop
   endfacet
   facet normal 1.222626e-001 0.000000e+000 -9.924978e-001
      outer loop
         vertex -8.000000e+001 -6.400000e+001 5.950000e+002
         vertex -8.000000e+001 -5.150000e+001 5.950000e+002
         vertex -7.277517e+001 -6.400000e+001 5.963505e+002
      endloop
   endfacet
   facet normal 2.445251e-001 0.000000e+000 -9.696429e-001
      outer loop
         vertex -7.277517e+001 -6.400000e+001 5.963505e+002
         vertex -8.000000e+001 -5.150000e+001 5.950000e+002
         vertex -7.277517e+001 -5.150000e+001 5.963505e+002
      endloop
   endfacet
   facet normal 3.147291e-001 2.455244e-016 9.491816e-001
      outer loop
         vertex -6.837545e+001 -9.300000e+001 6.404730e+002
         vertex -6.837545e+001 -6.400000e+001 6.404730e+002
         vertex -7.712147e+001 -9.300000e+001 6.428516e+002
      endloop
   endfacet
   facet normal 2.093760e-001 1.316097e-016 9.778352e-001
      outer loop
         vertex -7.712147e+001 -9.300000e+001 6.428516e+002
         vertex -6.837545e+001 -6.400000e+001 6.404730e+002
         vertex -7.712147e+001 -6.400000e+001 6.428516e+002
      endloop
   endfacet
   facet normal -4.963537e-003 1.087583e-016 9.999877e-001
      outer loop
         vertex -7.712147e+001 -9.300000e+001 6.428516e+002
         vertex -7.712147e+001 -6.400000e+001 6.428516e+002
         vertex -8.616911e+001 -9.300000e+001 6.423120e+002
      endloop
   endfacet
   facet normal -1.139500e-001 -9.164319e-017 9.934865e-001
      outer loop
         vertex -8.616911e+001 -9.300000e+001 6.423120e+002
         vertex -7.712147e+001 -6.400000e+001 6.428516e+002
         vertex -8.616911e+001 -6.400000e+001 6.423120e+002
      endloop
   endfacet
   facet normal -3.241360e-001 -7.255483e-017 9.460105e-001
      outer loop
         vertex -8.616911e+001 -9.300000e+001 6.423120e+002
         vertex -8.616911e+001 -6.400000e+001 6.423120e+002
         vertex -9.457033e+001 -9.300000e+001 6.389103e+002
      endloop
   endfacet
   facet normal -4.253357e-001 -2.382840e-016 9.050357e-001
      outer loop
         vertex -9.457033e+001 -9.300000e+001 6.389103e+002
         vertex -8.616911e+001 -6.400000e+001 6.423120e+002
         vertex -9.457033e+001 -6.400000e+001 6.389103e+002
      endloop
   endfacet
   facet normal -6.093441e-001 -2.462654e-016 7.929059e-001
      outer loop
         vertex -9.457033e+001 -9.300000e+001 6.389103e+002
         vertex -9.457033e+001 -6.400000e+001 6.389103e+002
         vertex -1.014448e+002 -9.300000e+001 6.330034e+002
      endloop
   endfacet
   facet normal -6.921528e-001 -3.599563e-016 7.217510e-001
      outer loop
         vertex -1.014448e+002 -9.300000e+001 6.330034e+002
         vertex -9.457033e+001 -6.400000e+001 6.389103e+002
         vertex -1.014448e+002 -6.400000e+001 6.330034e+002
      endloop
   endfacet
   facet normal -8.307022e-001 -3.941711e-016 5.567170e-001
      outer loop
         vertex -1.014448e+002 -9.300000e+001 6.330034e+002
         vertex -1.014448e+002 -6.400000e+001 6.330034e+002
         vertex -1.060722e+002 -9.300000e+001 6.252098e+002
      endloop
   endfacet
   facet normal -8.864429e-001 -4.439107e-016 4.628379e-001
      outer loop
         vertex -1.060722e+002 -9.300000e+001 6.252098e+002
         vertex -1.014448e+002 -6.400000e+001 6.330034e+002
         vertex -1.060722e+002 -6.400000e+001 6.252098e+002
      endloop
   endfacet
   facet normal -9.650155e-001 -5.007738e-016 2.621927e-001
      outer loop
         vertex -1.060722e+002 -9.300000e+001 6.252098e+002
         vertex -1.060722e+002 -6.400000e+001 6.252098e+002
         vertex -1.079676e+002 -9.300000e+001 6.163466e+002
      endloop
   endfacet
   facet normal -9.878474e-001 -4.813501e-016 1.554266e-001
      outer loop
         vertex -1.079676e+002 -9.300000e+001 6.163466e+002
         vertex -1.060722e+002 -6.400000e+001 6.252098e+002
         vertex -1.079676e+002 -6.400000e+001 6.163466e+002
      endloop
   endfacet
   facet normal -9.982101e-001 -5.549030e-016 -5.980536e-002
      outer loop
         vertex -1.079676e+002 -9.300000e+001 6.163466e+002
         vertex -1.079676e+002 -6.400000e+001 6.163466e+002
         vertex -1.069324e+002 -9.300000e+001 6.073421e+002
      endloop
   endfacet
   facet normal -9.857407e-001 -4.683514e-016 -1.682711e-001
      outer loop
         vertex -1.069324e+002 -9.300000e+001 6.073421e+002
         vertex -1.079676e+002 -6.400000e+001 6.163466e+002
         vertex -1.069324e+002 -6.400000e+001 6.073421e+002
      endloop
   endfacet
   facet normal -9.268075e-001 -5.508869e-016 -3.755367e-001
      outer loop
         vertex -1.069324e+002 -9.300000e+001 6.073421e+002
         vertex -1.069324e+002 -6.400000e+001 6.073421e+002
         vertex -1.030752e+002 -9.300000e+001 5.991401e+002
      endloop
   endfacet
   facet normal -8.803436e-001 -4.062767e-016 -4.743366e-001
      outer loop
         vertex -1.030752e+002 -9.300000e+001 5.991401e+002
         vertex -1.069324e+002 -6.400000e+001 6.073421e+002
         vertex -1.030752e+002 -6.400000e+001 5.991401e+002
      endloop
   endfacet
   facet normal -7.582898e-001 -4.891464e-016 -6.519176e-001
      outer loop
         vertex -1.030752e+002 -9.300000e+001 5.991401e+002
         vertex -1.030752e+002 -6.400000e+001 5.991401e+002
         vertex -9.680000e+001 -9.300000e+001 5.926000e+002
      endloop
   endfacet
   facet normal -6.826999e-001 -3.016304e-016 -7.306989e-001
      outer loop
         vertex -9.680000e+001 -9.300000e+001 5.926000e+002
         vertex -1.030752e+002 -6.400000e+001 5.991401e+002
         vertex -9.680000e+001 -6.400000e+001 5.926000e+002
      endloop
   endfacet
   facet normal 4.151624e-001 1.333373e-016 9.097473e-001
      outer loop
         vertex -5.200000e+001 -9.300000e+001 6.330000e+002
         vertex -5.200000e+001 -6.400000e+001 6.330000e+002
         vertex -6.837545e+001 -9.300000e+001 6.404730e+002
      endloop
   endfacet
   facet normal 4.151624e-001 1.333373e-016 9.097473e-001
      outer loop
         vertex -6.837545e+001 -9.300000e+001 6.404730e+002
         vertex -5.200000e+001 -6.400000e+001 6.330000e+002
         vertex -6.837545e+001 -6.400000e+001 6.404730e+002
      endloop
   endfacet
   facet normal 1.725157e-001 6.253153e-017 9.850067e-001
      outer loop
         vertex -2.555022e+001 -4.146197e+001 6.180818e+002
         vertex -2.555488e+001 -9.300000e+001 6.180547e+002
         vertex -2.075866e+001 -3.671424e+001 6.172946e+002
      endloop
   endfacet
   facet normal 1.046007e-001 4.200685e-017 9.945143e-001
      outer loop
         vertex -2.075866e+001 -3.671424e+001 6.172946e+002
         vertex -2.555488e+001 -9.300000e+001 6.180547e+002
         vertex -1.533939e+001 -9.300000e+001 6.170000e+002
      endloop
   endfacet
   facet normal 3.617581e-002 1.410561e-017 9.993454e-001
      outer loop
         vertex -2.075866e+001 -3.671424e+001 6.172946e+002
         vertex -1.533939e+001 -9.300000e+001 6.170000e+002
         vertex -1.533939e+001 -3.130847e+001 6.170000e+002
      endloop
   endfacet
   facet normal 3.528474e-001 1.316229e-016 9.356809e-001
      outer loop
         vertex -3.533939e+001 -6.400000e+001 6.211742e+002
         vertex -3.533939e+001 -9.300000e+001 6.211742e+002
         vertex -2.812921e+001 -6.400000e+001 6.186635e+002
      endloop
   endfacet
   facet normal 2.877961e-001 1.110256e-016 9.576917e-001
      outer loop
         vertex -2.812921e+001 -6.400000e+001 6.186635e+002
         vertex -3.533939e+001 -9.300000e+001 6.211742e+002
         vertex -2.555488e+001 -9.300000e+001 6.180547e+002
      endloop
   endfacet
   facet normal 2.387083e-001 8.190959e-017 9.710913e-001
      outer loop
         vertex -2.812921e+001 -6.400000e+001 6.186635e+002
         vertex -2.555488e+001 -9.300000e+001 6.180547e+002
         vertex -2.812921e+001 -5.400000e+001 6.186635e+002
      endloop
   endfacet
   facet normal 2.252261e-001 7.404994e-017 9.743065e-001
      outer loop
         vertex -2.812921e+001 -5.400000e+001 6.186635e+002
         vertex -2.555488e+001 -9.300000e+001 6.180547e+002
         vertex -2.610927e+001 -4.201590e+001 6.181736e+002
      endloop
   endfacet
   facet normal 2.423766e-001 8.096931e-017 9.701822e-001
      outer loop
         vertex -2.812921e+001 -5.400000e+001 6.186635e+002
         vertex -2.610927e+001 -4.201590e+001 6.181736e+002
         vertex -2.812921e+001 -4.400000e+001 6.186635e+002
      endloop
   endfacet
   facet normal 6.332563e-001 2.562712e-016 7.739421e-001
      outer loop
         vertex -5.200000e+001 -6.400000e+001 6.330000e+002
         vertex -4.428016e+001 -9.300000e+001 6.262271e+002
         vertex -4.428016e+001 -6.400000e+001 6.262271e+002
      endloop
   endfacet
   facet normal 5.216613e-001 2.191365e-016 8.531526e-001
      outer loop
         vertex -4.428016e+001 -6.400000e+001 6.262271e+002
         vertex -4.428016e+001 -9.300000e+001 6.262271e+002
         vertex -3.533939e+001 -9.300000e+001 6.211742e+002
      endloop
   endfacet
   facet normal 4.617748e-001 1.937273e-016 8.869972e-001
      outer loop
         vertex -4.428016e+001 -6.400000e+001 6.262271e+002
         vertex -3.533939e+001 -9.300000e+001 6.211742e+002
         vertex -3.533939e+001 -6.400000e+001 6.211742e+002
      endloop
   endfacet
   facet normal 2.080086e-001 7.403184e-017 9.781270e-001
      outer loop
         vertex -2.555488e+001 -9.300000e+001 6.180547e+002
         vertex -2.555022e+001 -4.146197e+001 6.180818e+002
         vertex -2.610927e+001 -4.201590e+001 6.181736e+002
      endloop
   endfacet
   facet normal 6.849649e-001 2.525445e-016 7.285761e-001
      outer loop
         vertex -5.200000e+001 -6.400000e+001 6.330000e+002
         vertex -5.200000e+001 -9.300000e+001 6.330000e+002
         vertex -4.428016e+001 -9.300000e+001 6.262271e+002
      endloop
   endfacet
   facet normal 1.428161e-033 1.000000e+000 -3.921583e-018
      outer loop
         vertex -9.347391e+001 -6.400000e+001 6.002198e+002
         vertex -8.722483e+001 -6.400000e+001 5.963505e+002
         vertex -8.000000e+001 -6.400000e+001 5.800000e+002
      endloop
   endfacet
   facet normal 1.428161e-033 1.000000e+000 -3.921583e-018
      outer loop
         vertex -8.000000e+001 -6.400000e+001 5.800000e+002
         vertex -8.722483e+001 -6.400000e+001 5.963505e+002
         vertex -8.000000e+001 -6.400000e+001 5.950000e+002
      endloop
   endfacet
   facet normal 1.428161e-033 1.000000e+000 -3.921583e-018
      outer loop
         vertex -8.000000e+001 -6.400000e+001 5.800000e+002
         vertex -8.000000e+001 -6.400000e+001 5.950000e+002
         vertex -5.832096e+001 -6.400000e+001 5.677346e+002
      endloop
   endfacet
   facet normal 1.428161e-033 1.000000e+000 -3.921583e-018
      outer loop
         vertex -5.832096e+001 -6.400000e+001 5.677346e+002
         vertex -8.000000e+001 -6.400000e+001 5.950000e+002
         vertex -7.277517e+001 -6.400000e+001 5.963505e+002
      endloop
   endfacet
   facet normal 1.428161e-033 1.000000e+000 -3.921583e-018
      outer loop
         vertex -5.832096e+001 -6.400000e+001 5.677346e+002
         vertex -7.277517e+001 -6.400000e+001 5.963505e+002
         vertex -4.928405e+001 -6.400000e+001 5.730413e+002
      endloop
   endfacet
   facet normal 1.428161e-033 1.000000e+000 -3.921583e-018
      outer loop
         vertex -4.928405e+001 -6.400000e+001 5.730413e+002
         vertex -7.277517e+001 -6.400000e+001 5.963505e+002
         vertex -6.652608e+001 -6.400000e+001 6.002198e+002
      endloop
   endfacet
   facet normal 1.428161e-033 1.000000e+000 -3.921583e-018
      outer loop
         vertex -4.928405e+001 -6.400000e+001 5.730413e+002
         vertex -6.652608e+001 -6.400000e+001 6.002198e+002
         vertex -4.149472e+001 -6.400000e+001 5.800522e+002
      endloop
   endfacet
   facet normal 1.428161e-033 1.000000e+000 -3.921583e-018
      outer loop
         vertex -4.149472e+001 -6.400000e+001 5.800522e+002
         vertex -6.652608e+001 -6.400000e+001 6.002198e+002
         vertex -3.526934e+001 -6.400000e+001 5.884827e+002
      endloop
   endfacet
   facet normal 1.428161e-033 1.000000e+000 -3.921583e-018
      outer loop
         vertex -2.812921e+001 -6.400000e+001 6.186635e+002
         vertex -2.844806e+001 -6.400000e+001 6.081885e+002
         vertex -3.533939e+001 -6.400000e+001 6.211742e+002
      endloop
   endfacet
   facet normal 1.428161e-033 1.000000e+000 -3.921583e-018
      outer loop
         vertex -3.533939e+001 -6.400000e+001 6.211742e+002
         vertex -2.844806e+001 -6.400000e+001 6.081885e+002
         vertex -6.008532e+001 -6.400000e+001 6.131547e+002
      endloop
   endfacet
   facet normal 1.428161e-033 1.000000e+000 -3.921583e-018
      outer loop
         vertex -3.533939e+001 -6.400000e+001 6.211742e+002
         vertex -6.008532e+001 -6.400000e+001 6.131547e+002
         vertex -4.428016e+001 -6.400000e+001 6.262271e+002
      endloop
   endfacet
   facet normal 1.428161e-033 1.000000e+000 -3.921583e-018
      outer loop
         vertex -4.428016e+001 -6.400000e+001 6.262271e+002
         vertex -6.008532e+001 -6.400000e+001 6.131547e+002
         vertex -6.076348e+001 -6.400000e+001 6.204733e+002
      endloop
   endfacet
   facet normal 1.428161e-033 1.000000e+000 -3.921583e-018
      outer loop
         vertex -4.428016e+001 -6.400000e+001 6.262271e+002
         vertex -6.076348e+001 -6.400000e+001 6.204733e+002
         vertex -5.200000e+001 -6.400000e+001 6.330000e+002
      endloop
   endfacet
   facet normal 1.428161e-033 1.000000e+000 -3.921583e-018
      outer loop
         vertex -5.200000e+001 -6.400000e+001 6.330000e+002
         vertex -6.076348e+001 -6.400000e+001 6.204733e+002
         vertex -6.403966e+001 -6.400000e+001 6.270527e+002
      endloop
   endfacet
   facet normal 1.428161e-033 1.000000e+000 -3.921583e-018
      outer loop
         vertex -5.200000e+001 -6.400000e+001 6.330000e+002
         vertex -6.403966e+001 -6.400000e+001 6.270527e+002
         vertex -6.837545e+001 -6.400000e+001 6.404730e+002
      endloop
   endfacet
   facet normal 1.428161e-033 1.000000e+000 -3.921583e-018
      outer loop
         vertex -6.837545e+001 -6.400000e+001 6.404730e+002
         vertex -6.403966e+001 -6.400000e+001 6.270527e+002
         vertex -6.947136e+001 -6.400000e+001 6.320043e+002
      endloop
   endfacet
   facet normal 1.428161e-033 1.000000e+000 -3.921583e-018
      outer loop
         vertex -6.837545e+001 -6.400000e+001 6.404730e+002
         vertex -6.947136e+001 -6.400000e+001 6.320043e+002
         vertex -7.712147e+001 -6.400000e+001 6.428516e+002
      endloop
   endfacet
   facet normal 1.428161e-033 1.000000e+000 -3.921583e-018
      outer loop
         vertex -7.712147e+001 -6.400000e+001 6.428516e+002
         vertex -6.947136e+001 -6.400000e+001 6.320043e+002
         vertex -7.632500e+001 -6.400000e+001 6.346595e+002
      endloop
   endfacet
   facet normal 1.428161e-033 1.000000e+000 -3.921583e-018
      outer loop
         vertex -7.712147e+001 -6.400000e+001 6.428516e+002
         vertex -7.632500e+001 -6.400000e+001 6.346595e+002
         vertex -8.616911e+001 -6.400000e+001 6.423120e+002
      endloop
   endfacet
   facet normal 1.428161e-033 1.000000e+000 -3.921583e-018
      outer loop
         vertex -8.616911e+001 -6.400000e+001 6.423120e+002
         vertex -7.632500e+001 -6.400000e+001 6.346595e+002
         vertex -8.367499e+001 -6.400000e+001 6.346595e+002
      endloop
   endfacet
   facet normal 1.428161e-033 1.000000e+000 -3.921583e-018
      outer loop
         vertex -8.616911e+001 -6.400000e+001 6.423120e+002
         vertex -8.367499e+001 -6.400000e+001 6.346595e+002
         vertex -9.457033e+001 -6.400000e+001 6.389103e+002
      endloop
   endfacet
   facet normal 1.428161e-033 1.000000e+000 -3.921583e-018
      outer loop
         vertex -9.457033e+001 -6.400000e+001 6.389103e+002
         vertex -8.367499e+001 -6.400000e+001 6.346595e+002
         vertex -9.052865e+001 -6.400000e+001 6.320043e+002
      endloop
   endfacet
   facet normal 1.428161e-033 1.000000e+000 -3.921583e-018
      outer loop
         vertex -9.457033e+001 -6.400000e+001 6.389103e+002
         vertex -9.052865e+001 -6.400000e+001 6.320043e+002
         vertex -1.014448e+002 -6.400000e+001 6.330034e+002
      endloop
   endfacet
   facet normal 1.428161e-033 1.000000e+000 -3.921583e-018
      outer loop
         vertex -1.014448e+002 -6.400000e+001 6.330034e+002
         vertex -9.052865e+001 -6.400000e+001 6.320043e+002
         vertex -9.596034e+001 -6.400000e+001 6.270527e+002
      endloop
   endfacet
   facet normal 1.428161e-033 1.000000e+000 -3.921583e-018
      outer loop
         vertex -1.014448e+002 -6.400000e+001 6.330034e+002
         vertex -9.596034e+001 -6.400000e+001 6.270527e+002
         vertex -1.060722e+002 -6.400000e+001 6.252098e+002
      endloop
   endfacet
   facet normal 1.428161e-033 1.000000e+000 -3.921583e-018
      outer loop
         vertex -1.060722e+002 -6.400000e+001 6.252098e+002
         vertex -9.596034e+001 -6.400000e+001 6.270527e+002
         vertex -9.923651e+001 -6.400000e+001 6.204733e+002
      endloop
   endfacet
   facet normal 1.428161e-033 1.000000e+000 -3.921583e-018
      outer loop
         vertex -1.060722e+002 -6.400000e+001 6.252098e+002
         vertex -9.923651e+001 -6.400000e+001 6.204733e+002
         vertex -1.079676e+002 -6.400000e+001 6.163466e+002
      endloop
   endfacet
   facet normal 1.428161e-033 1.000000e+000 -3.921583e-018
      outer loop
         vertex -1.079676e+002 -6.400000e+001 6.163466e+002
         vertex -9.923651e+001 -6.400000e+001 6.204733e+002
         vertex -9.991469e+001 -6.400000e+001 6.131547e+002
      endloop
   endfacet
   facet normal 1.428161e-033 1.000000e+000 -3.921583e-018
      outer loop
         vertex -1.079676e+002 -6.400000e+001 6.163466e+002
         vertex -9.991469e+001 -6.400000e+001 6.131547e+002
         vertex -1.069324e+002 -6.400000e+001 6.073421e+002
      endloop
   endfacet
   facet normal 1.428161e-033 1.000000e+000 -3.921583e-018
      outer loop
         vertex -1.069324e+002 -6.400000e+001 6.073421e+002
         vertex -9.991469e+001 -6.400000e+001 6.131547e+002
         vertex -9.790327e+001 -6.400000e+001 6.060853e+002
      endloop
   endfacet
   facet normal 1.428161e-033 1.000000e+000 -3.921583e-018
      outer loop
         vertex -1.069324e+002 -6.400000e+001 6.073421e+002
         vertex -9.790327e+001 -6.400000e+001 6.060853e+002
         vertex -1.030752e+002 -6.400000e+001 5.991401e+002
      endloop
   endfacet
   facet normal 1.428161e-033 1.000000e+000 -3.921583e-018
      outer loop
         vertex -1.030752e+002 -6.400000e+001 5.991401e+002
         vertex -9.790327e+001 -6.400000e+001 6.060853e+002
         vertex -9.680000e+001 -6.400000e+001 5.926000e+002
      endloop
   endfacet
   facet normal 1.428161e-033 1.000000e+000 -3.921583e-018
      outer loop
         vertex -3.526934e+001 -6.400000e+001 5.884827e+002
         vertex -6.209673e+001 -6.400000e+001 6.060853e+002
         vertex -3.086076e+001 -6.400000e+001 5.979902e+002
      endloop
   endfacet
   facet normal 1.428161e-033 1.000000e+000 -3.921583e-018
      outer loop
         vertex -3.086076e+001 -6.400000e+001 5.979902e+002
         vertex -6.209673e+001 -6.400000e+001 6.060853e+002
         vertex -6.008532e+001 -6.400000e+001 6.131547e+002
      endloop
   endfacet
   facet normal 1.428161e-033 1.000000e+000 -3.921583e-018
      outer loop
         vertex -3.086076e+001 -6.400000e+001 5.979902e+002
         vertex -6.008532e+001 -6.400000e+001 6.131547e+002
         vertex -2.844806e+001 -6.400000e+001 6.081885e+002
      endloop
   endfacet
   facet normal 1.428161e-033 1.000000e+000 -3.921583e-018
      outer loop
         vertex -9.680000e+001 -6.400000e+001 5.926000e+002
         vertex -9.347391e+001 -6.400000e+001 6.002198e+002
         vertex -8.000000e+001 -6.400000e+001 5.800000e+002
      endloop
   endfacet
   facet normal 1.428161e-033 1.000000e+000 -3.921583e-018
      outer loop
         vertex -9.790327e+001 -6.400000e+001 6.060853e+002
         vertex -9.347391e+001 -6.400000e+001 6.002198e+002
         vertex -9.680000e+001 -6.400000e+001 5.926000e+002
      endloop
   endfacet
   facet normal 1.428161e-033 1.000000e+000 -3.921583e-018
      outer loop
         vertex -6.652608e+001 -6.400000e+001 6.002198e+002
         vertex -6.209673e+001 -6.400000e+001 6.060853e+002
         vertex -3.526934e+001 -6.400000e+001 5.884827e+002
      endloop
   endfacet
   facet normal -6.000000e-001 -1.906826e-016 -8.000000e-001
      outer loop
         vertex -9.680000e+001 -9.300000e+001 5.926000e+002
         vertex -9.680000e+001 -6.400000e+001 5.926000e+002
         vertex -8.000000e+001 -9.300000e+001 5.800000e+002
      endloop
   endfacet
   facet normal -6.000000e-001 -1.906826e-016 -8.000000e-001
      outer loop
         vertex -8.000000e+001 -9.300000e+001 5.800000e+002
         vertex -9.680000e+001 -6.400000e+001 5.926000e+002
         vertex -8.000000e+001 -6.400000e+001 5.800000e+002
      endloop
   endfacet
   facet normal -9.915938e-001 -7.082815e-016 1.293897e-001
      outer loop
         vertex -2.847248e+001 -4.400000e+001 6.081942e+002
         vertex -2.844806e+001 -6.400000e+001 6.081885e+002
         vertex -2.841566e+001 -4.400000e+001 6.084383e+002
      endloop
   endfacet
   facet normal -9.980438e-001 -7.238464e-016 6.251810e-002
      outer loop
         vertex -2.841566e+001 -4.400000e+001 6.084383e+002
         vertex -2.844806e+001 -6.400000e+001 6.081885e+002
         vertex -2.812921e+001 -5.400000e+001 6.186635e+002
      endloop
   endfacet
   facet normal -9.999879e-001 -6.896142e-016 -4.926691e-003
      outer loop
         vertex -2.841566e+001 -4.400000e+001 6.084383e+002
         vertex -2.812921e+001 -5.400000e+001 6.186635e+002
         vertex -2.812921e+001 -4.400000e+001 6.186635e+002
      endloop
   endfacet
   facet normal -7.839383e-001 -5.564256e-016 6.208386e-001
      outer loop
         vertex -4.150492e+001 -4.400000e+001 5.800598e+002
         vertex -4.149472e+001 -6.400000e+001 5.800522e+002
         vertex -3.526934e+001 -4.400000e+001 5.884827e+002
      endloop
   endfacet
   facet normal -8.240260e-001 -6.198833e-016 5.665520e-001
      outer loop
         vertex -3.526934e+001 -4.400000e+001 5.884827e+002
         vertex -4.149472e+001 -6.400000e+001 5.800522e+002
         vertex -3.526934e+001 -6.400000e+001 5.884827e+002
      endloop
   endfacet
   facet normal -8.925021e-001 -6.346011e-016 4.510432e-001
      outer loop
         vertex -3.526934e+001 -4.400000e+001 5.884827e+002
         vertex -3.526934e+001 -6.400000e+001 5.884827e+002
         vertex -3.087229e+001 -4.400000e+001 5.979955e+002
      endloop
   endfacet
   facet normal -9.208906e-001 -6.945744e-016 3.898212e-001
      outer loop
         vertex -3.087229e+001 -4.400000e+001 5.979955e+002
         vertex -3.526934e+001 -6.400000e+001 5.884827e+002
         vertex -3.086076e+001 -6.400000e+001 5.979902e+002
      endloop
   endfacet
   facet normal -9.452491e-001 -6.851436e-016 3.263496e-001
      outer loop
         vertex -3.087229e+001 -4.400000e+001 5.979955e+002
         vertex -3.086076e+001 -6.400000e+001 5.979902e+002
         vertex -3.081970e+001 -4.400000e+001 5.981093e+002
      endloop
   endfacet
   facet normal -9.650279e-001 -7.422692e-016 2.621471e-001
      outer loop
         vertex -3.081970e+001 -4.400000e+001 5.981093e+002
         vertex -3.086076e+001 -6.400000e+001 5.979902e+002
         vertex -2.844806e+001 -6.400000e+001 6.081885e+002
      endloop
   endfacet
   facet normal -9.805101e-001 -7.114209e-016 1.964690e-001
      outer loop
         vertex -3.081970e+001 -4.400000e+001 5.981093e+002
         vertex -2.844806e+001 -6.400000e+001 6.081885e+002
         vertex -2.847248e+001 -4.400000e+001 6.081942e+002
      endloop
   endfacet
   facet normal -6.429182e-001 -4.680567e-016 7.659348e-001
      outer loop
         vertex -4.930076e+001 -4.400000e+001 5.730601e+002
         vertex -4.928405e+001 -6.400000e+001 5.730413e+002
         vertex -4.157949e+001 -4.400000e+001 5.799591e+002
      endloop
   endfacet
   facet normal -6.931091e-001 -5.324434e-016 7.208327e-001
      outer loop
         vertex -4.157949e+001 -4.400000e+001 5.799591e+002
         vertex -4.928405e+001 -6.400000e+001 5.730413e+002
         vertex -4.149472e+001 -6.400000e+001 5.800522e+002
      endloop
   endfacet
   facet normal -7.399433e-001 -5.397084e-016 6.726693e-001
      outer loop
         vertex -4.157949e+001 -4.400000e+001 5.799591e+002
         vertex -4.149472e+001 -6.400000e+001 5.800522e+002
         vertex -4.150492e+001 -4.400000e+001 5.800598e+002
      endloop
   endfacet
   facet normal -4.755773e-001 -3.375460e-016 8.796739e-001
      outer loop
         vertex -5.832096e+001 -4.400000e+001 5.677346e+002
         vertex -5.832096e+001 -6.400000e+001 5.677346e+002
         vertex -4.948770e+001 -4.400000e+001 5.728930e+002
      endloop
   endfacet
   facet normal -5.338150e-001 -4.002335e-016 8.456013e-001
      outer loop
         vertex -4.948770e+001 -4.400000e+001 5.728930e+002
         vertex -5.832096e+001 -6.400000e+001 5.677346e+002
         vertex -4.928405e+001 -6.400000e+001 5.730413e+002
      endloop
   endfacet
   facet normal -5.893874e-001 -4.215110e-016 8.078505e-001
      outer loop
         vertex -4.948770e+001 -4.400000e+001 5.728930e+002
         vertex -4.928405e+001 -6.400000e+001 5.730413e+002
         vertex -4.930076e+001 -4.400000e+001 5.730601e+002
      endloop
   endfacet
   facet normal -9.999945e-001 -7.322825e-016 -3.318858e-003
      outer loop
         vertex -2.844806e+001 -6.400000e+001 6.081885e+002
         vertex -2.812921e+001 -6.400000e+001 6.186635e+002
         vertex -2.812921e+001 -5.400000e+001 6.186635e+002
      endloop
   endfacet
   facet normal -1.428161e-033 -1.000000e+000 3.921583e-018
      outer loop
         vertex -1.079676e+002 -9.300000e+001 6.163466e+002
         vertex -1.069324e+002 -9.300000e+001 6.073421e+002
         vertex -1.014448e+002 -9.300000e+001 6.330034e+002
      endloop
   endfacet
   facet normal -1.428161e-033 -1.000000e+000 3.921583e-018
      outer loop
         vertex -1.014448e+002 -9.300000e+001 6.330034e+002
         vertex -1.069324e+002 -9.300000e+001 6.073421e+002
         vertex -9.680000e+001 -9.300000e+001 5.926000e+002
      endloop
   endfacet
   facet normal -1.428161e-033 -1.000000e+000 3.921583e-018
      outer loop
         vertex -1.014448e+002 -9.300000e+001 6.330034e+002
         vertex -9.680000e+001 -9.300000e+001 5.926000e+002
         vertex -9.457033e+001 -9.300000e+001 6.389103e+002
      endloop
   endfacet
   facet normal -1.428161e-033 -1.000000e+000 3.921583e-018
      outer loop
         vertex -9.457033e+001 -9.300000e+001 6.389103e+002
         vertex -9.680000e+001 -9.300000e+001 5.926000e+002
         vertex -7.712147e+001 -9.300000e+001 6.428516e+002
      endloop
   endfacet
   facet normal -1.428161e-033 -1.000000e+000 3.921583e-018
      outer loop
         vertex -9.457033e+001 -9.300000e+001 6.389103e+002
         vertex -7.712147e+001 -9.300000e+001 6.428516e+002
         vertex -8.616911e+001 -9.300000e+001 6.423120e+002
      endloop
   endfacet
   facet normal -1.428161e-033 -1.000000e+000 3.921583e-018
      outer loop
         vertex -4.428016e+001 -9.300000e+001 6.262271e+002
         vertex -5.200000e+001 -9.300000e+001 6.330000e+002
         vertex -9.680000e+001 -9.300000e+001 5.926000e+002
      endloop
   endfacet
   facet normal -1.428161e-033 -1.000000e+000 3.921583e-018
      outer loop
         vertex -9.680000e+001 -9.300000e+001 5.926000e+002
         vertex -5.200000e+001 -9.300000e+001 6.330000e+002
         vertex -6.837545e+001 -9.300000e+001 6.404730e+002
      endloop
   endfacet
   facet normal -1.428161e-033 -1.000000e+000 3.921583e-018
      outer loop
         vertex -9.680000e+001 -9.300000e+001 5.926000e+002
         vertex -6.837545e+001 -9.300000e+001 6.404730e+002
         vertex -7.712147e+001 -9.300000e+001 6.428516e+002
      endloop
   endfacet
   facet normal -1.428161e-033 -1.000000e+000 3.921583e-018
      outer loop
         vertex -1.500000e+001 -9.300000e+001 6.170000e+002
         vertex -1.533939e+001 -9.300000e+001 6.170000e+002
         vertex -1.500000e+001 -9.300000e+001 5.432247e+002
      endloop
   endfacet
   facet normal -1.428161e-033 -1.000000e+000 3.921583e-018
      outer loop
         vertex -1.500000e+001 -9.300000e+001 5.432247e+002
         vertex -1.533939e+001 -9.300000e+001 6.170000e+002
         vertex -2.555488e+001 -9.300000e+001 6.180547e+002
      endloop
   endfacet
   facet normal -1.428161e-033 -1.000000e+000 3.921583e-018
      outer loop
         vertex -1.500000e+001 -9.300000e+001 5.432247e+002
         vertex -2.555488e+001 -9.300000e+001 6.180547e+002
         vertex -8.000000e+001 -9.300000e+001 5.800000e+002
      endloop
   endfacet
   facet normal -1.428161e-033 -1.000000e+000 3.921583e-018
      outer loop
         vertex -8.000000e+001 -9.300000e+001 5.800000e+002
         vertex -2.555488e+001 -9.300000e+001 6.180547e+002
         vertex -3.533939e+001 -9.300000e+001 6.211742e+002
      endloop
   endfacet
   facet normal -1.428161e-033 -1.000000e+000 3.921583e-018
      outer loop
         vertex -8.000000e+001 -9.300000e+001 5.800000e+002
         vertex -3.533939e+001 -9.300000e+001 6.211742e+002
         vertex -4.428016e+001 -9.300000e+001 6.262271e+002
      endloop
   endfacet
   facet normal -1.428161e-033 -1.000000e+000 3.921583e-018
      outer loop
         vertex -1.014448e+002 -9.300000e+001 6.330034e+002
         vertex -1.060722e+002 -9.300000e+001 6.252098e+002
         vertex -1.079676e+002 -9.300000e+001 6.163466e+002
      endloop
   endfacet
   facet normal -1.428161e-033 -1.000000e+000 3.921583e-018
      outer loop
         vertex -1.069324e+002 -9.300000e+001 6.073421e+002
         vertex -1.030752e+002 -9.300000e+001 5.991401e+002
         vertex -9.680000e+001 -9.300000e+001 5.926000e+002
      endloop
   endfacet
   facet normal -1.428161e-033 -1.000000e+000 3.921583e-018
      outer loop
         vertex -9.680000e+001 -9.300000e+001 5.926000e+002
         vertex -8.000000e+001 -9.300000e+001 5.800000e+002
         vertex -4.428016e+001 -9.300000e+001 6.262271e+002
      endloop
   endfacet
   facet normal -7.057665e-001 7.084399e-001 2.571173e-003
      outer loop
         vertex -2.610927e+001 -4.201590e+001 6.181736e+002
         vertex -2.555022e+001 -4.146197e+001 6.180818e+002
         vertex -2.841566e+001 -4.400000e+001 6.084383e+002
      endloop
   endfacet
   facet normal -7.042708e-001 7.084233e-001 4.625136e-002
      outer loop
         vertex -2.841566e+001 -4.400000e+001 6.084383e+002
         vertex -2.555022e+001 -4.146197e+001 6.180818e+002
         vertex -1.452757e+001 -3.000000e+001 6.066717e+002
      endloop
   endfacet
   facet normal -7.013101e-001 7.071077e-001 9.034871e-002
      outer loop
         vertex -2.841566e+001 -4.400000e+001 6.084383e+002
         vertex -1.452757e+001 -3.000000e+001 6.066717e+002
         vertex -2.847248e+001 -4.400000e+001 6.081942e+002
      endloop
   endfacet
   facet normal -6.919765e-001 7.087088e-001 1.374784e-001
      outer loop
         vertex -2.847248e+001 -4.400000e+001 6.081942e+002
         vertex -1.452757e+001 -3.000000e+001 6.066717e+002
         vertex -1.757885e+001 -3.000000e+001 5.935617e+002
      endloop
   endfacet
   facet normal -6.810179e-001 7.086703e-001 1.843935e-001
      outer loop
         vertex -2.847248e+001 -4.400000e+001 6.081942e+002
         vertex -1.757885e+001 -3.000000e+001 5.935617e+002
         vertex -3.081970e+001 -4.400000e+001 5.981093e+002
      endloop
   endfacet
   facet normal -6.685799e-001 7.071070e-001 2.302187e-001
      outer loop
         vertex -3.081970e+001 -4.400000e+001 5.981093e+002
         vertex -1.757885e+001 -3.000000e+001 5.935617e+002
         vertex -3.087229e+001 -4.400000e+001 5.979955e+002
      endloop
   endfacet
   facet normal -5.813486e-001 7.087082e-001 3.997082e-001
      outer loop
         vertex -4.150492e+001 -4.400000e+001 5.800598e+002
         vertex -3.526934e+001 -4.400000e+001 5.884827e+002
         vertex -2.322647e+001 -3.000000e+001 5.813434e+002
      endloop
   endfacet
   facet normal -6.296644e-001 7.087082e-001 3.182068e-001
      outer loop
         vertex -2.322647e+001 -3.000000e+001 5.813434e+002
         vertex -3.526934e+001 -4.400000e+001 5.884827e+002
         vertex -3.087229e+001 -4.400000e+001 5.979955e+002
      endloop
   endfacet
   facet normal -6.498967e-001 7.087274e-001 2.744808e-001
      outer loop
         vertex -2.322647e+001 -3.000000e+001 5.813434e+002
         vertex -3.087229e+001 -4.400000e+001 5.979955e+002
         vertex -1.757885e+001 -3.000000e+001 5.935617e+002
      endloop
   endfacet
   facet normal -4.885964e-001 7.086703e-001 5.089794e-001
      outer loop
         vertex -4.930076e+001 -4.400000e+001 5.730601e+002
         vertex -4.157949e+001 -4.400000e+001 5.799591e+002
         vertex -3.123551e+001 -3.000000e+001 5.705250e+002
      endloop
   endfacet
   facet normal -5.228306e-001 7.071070e-001 4.760755e-001
      outer loop
         vertex -3.123551e+001 -3.000000e+001 5.705250e+002
         vertex -4.157949e+001 -4.400000e+001 5.799591e+002
         vertex -4.150492e+001 -4.400000e+001 5.800598e+002
      endloop
   endfacet
   facet normal -5.526965e-001 7.087274e-001 4.384427e-001
      outer loop
         vertex -3.123551e+001 -3.000000e+001 5.705250e+002
         vertex -4.150492e+001 -4.400000e+001 5.800598e+002
         vertex -2.322647e+001 -3.000000e+001 5.813434e+002
      endloop
   endfacet
   facet normal -4.050830e-001 7.072085e-001 5.794513e-001
      outer loop
         vertex -4.404157e+001 -3.000000e+001 5.596557e+002
         vertex -4.948770e+001 -4.400000e+001 5.728930e+002
         vertex -4.127285e+001 -3.000000e+001 5.615565e+002
      endloop
   endfacet
   facet normal -4.158273e-001 7.071077e-001 5.719147e-001
      outer loop
         vertex -4.127285e+001 -3.000000e+001 5.615565e+002
         vertex -4.948770e+001 -4.400000e+001 5.728930e+002
         vertex -4.930076e+001 -4.400000e+001 5.730601e+002
      endloop
   endfacet
   facet normal -4.526959e-001 7.087088e-001 5.411083e-001
      outer loop
         vertex -4.127285e+001 -3.000000e+001 5.615565e+002
         vertex -4.930076e+001 -4.400000e+001 5.730601e+002
         vertex -3.123551e+001 -3.000000e+001 5.705250e+002
      endloop
   endfacet
   facet normal -3.747189e-001 7.078213e-001 5.988111e-001
      outer loop
         vertex -5.468786e+001 -4.056303e+001 5.656791e+002
         vertex -4.948770e+001 -4.400000e+001 5.728930e+002
         vertex -4.404157e+001 -3.000000e+001 5.596557e+002
      endloop
   endfacet
   facet normal -7.059547e-001 7.081311e-001 1.335226e-002
      outer loop
         vertex -2.075866e+001 -3.671424e+001 6.172946e+002
         vertex -1.533939e+001 -3.130847e+001 6.170000e+002
         vertex -1.452757e+001 -3.000000e+001 6.066717e+002
      endloop
   endfacet
   facet normal -7.059686e-001 7.080786e-001 1.526233e-002
      outer loop
         vertex -1.452757e+001 -3.000000e+001 6.066717e+002
         vertex -1.533939e+001 -3.130847e+001 6.170000e+002
         vertex -1.468485e+001 -3.065424e+001 6.170000e+002
      endloop
   endfacet
   facet normal -7.059693e-001 7.080749e-001 1.540692e-002
      outer loop
         vertex -1.452757e+001 -3.000000e+001 6.066717e+002
         vertex -1.468485e+001 -3.065424e+001 6.170000e+002
         vertex -1.403031e+001 -3.000000e+001 6.170000e+002
      endloop
   endfacet
   facet normal -7.056635e-001 7.085468e-001 -7.213622e-004
      outer loop
         vertex -2.841566e+001 -4.400000e+001 6.084383e+002
         vertex -2.812921e+001 -4.400000e+001 6.186635e+002
         vertex -2.610927e+001 -4.201590e+001 6.181736e+002
      endloop
   endfacet
   facet normal -7.058661e-001 7.083075e-001 7.313016e-003
      outer loop
         vertex -2.555022e+001 -4.146197e+001 6.180818e+002
         vertex -2.075866e+001 -3.671424e+001 6.172946e+002
         vertex -1.452757e+001 -3.000000e+001 6.066717e+002
      endloop
   endfacet
   facet normal -3.448029e-001 7.083668e-001 6.158956e-001
      outer loop
         vertex -5.468786e+001 -4.056303e+001 5.656791e+002
         vertex -5.832096e+001 -4.400000e+001 5.677346e+002
         vertex -4.948770e+001 -4.400000e+001 5.728930e+002
      endloop
   endfacet
   facet normal 3.885781e-016 4.445229e-018 1.000000e+000
      outer loop
         vertex -1.533939e+001 -9.300000e+001 6.170000e+002
         vertex -1.500000e+001 -9.300000e+001 6.170000e+002
         vertex -1.533939e+001 -3.130847e+001 6.170000e+002
      endloop
   endfacet
   facet normal 3.885781e-016 4.445229e-018 1.000000e+000
      outer loop
         vertex -1.533939e+001 -3.130847e+001 6.170000e+002
         vertex -1.500000e+001 -9.300000e+001 6.170000e+002
         vertex -5.924501e+000 -8.140353e+001 6.170000e+002
      endloop
   endfacet
   facet normal 3.885781e-016 4.445229e-018 1.000000e+000
      outer loop
         vertex -1.533939e+001 -3.130847e+001 6.170000e+002
         vertex -5.924501e+000 -8.140353e+001 6.170000e+002
         vertex -1.468485e+001 -3.065424e+001 6.170000e+002
      endloop
   endfacet
   facet normal 3.885781e-016 4.445229e-018 1.000000e+000
      outer loop
         vertex -1.468485e+001 -3.065424e+001 6.170000e+002
         vertex -5.924501e+000 -8.140353e+001 6.170000e+002
         vertex -1.403031e+001 -3.000000e+001 6.170000e+002
      endloop
   endfacet
   facet normal 3.885781e-016 4.445229e-018 1.000000e+000
      outer loop
         vertex -5.924501e+000 -8.140353e+001 6.170000e+002
         vertex -5.924501e+000 -3.000000e+001 6.170000e+002
         vertex -1.403031e+001 -3.000000e+001 6.170000e+002
      endloop
   endfacet
   facet normal -4.924236e-001 -1.573327e-016 -8.703557e-001
      outer loop
         vertex -4.979946e+000 -3.000000e+001 5.375557e+002
         vertex -4.979946e+000 -8.019659e+001 5.375557e+002
         vertex -4.404157e+001 -3.000000e+001 5.596557e+002
      endloop
   endfacet
   facet normal -4.924236e-001 -1.573327e-016 -8.703557e-001
      outer loop
         vertex -4.404157e+001 -3.000000e+001 5.596557e+002
         vertex -4.979946e+000 -8.019659e+001 5.375557e+002
         vertex -1.500000e+001 -9.300000e+001 5.432247e+002
      endloop
   endfacet
   facet normal -4.924236e-001 -1.573327e-016 -8.703557e-001
      outer loop
         vertex -4.404157e+001 -3.000000e+001 5.596557e+002
         vertex -1.500000e+001 -9.300000e+001 5.432247e+002
         vertex -5.468786e+001 -4.056303e+001 5.656791e+002
      endloop
   endfacet
   facet normal -4.924236e-001 -1.573327e-016 -8.703557e-001
      outer loop
         vertex -5.468786e+001 -4.056303e+001 5.656791e+002
         vertex -1.500000e+001 -9.300000e+001 5.432247e+002
         vertex -5.832096e+001 -4.400000e+001 5.677346e+002
      endloop
   endfacet
   facet normal -4.924236e-001 -1.573327e-016 -8.703557e-001
      outer loop
         vertex -8.000000e+001 -9.300000e+001 5.800000e+002
         vertex -8.000000e+001 -6.400000e+001 5.800000e+002
         vertex -1.500000e+001 -9.300000e+001 5.432247e+002
      endloop
   endfacet
   facet normal -4.924236e-001 -1.573327e-016 -8.703557e-001
      outer loop
         vertex -1.500000e+001 -9.300000e+001 5.432247e+002
         vertex -8.000000e+001 -6.400000e+001 5.800000e+002
         vertex -5.832096e+001 -6.400000e+001 5.677346e+002
      endloop
   endfacet
   facet normal -4.924236e-001 -1.573327e-016 -8.703557e-001
      outer loop
         vertex -1.500000e+001 -9.300000e+001 5.432247e+002
         vertex -5.832096e+001 -6.400000e+001 5.677346e+002
         vertex -5.832096e+001 -4.400000e+001 5.677346e+002
      endloop
   endfacet
   facet normal 7.875050e-001 -6.163083e-001 -3.906981e-016
      outer loop
         vertex -1.500000e+001 -9.300000e+001 6.170000e+002
         vertex -1.500000e+001 -9.300000e+001 5.432247e+002
         vertex -5.924501e+000 -8.140353e+001 6.170000e+002
      endloop
   endfacet
   facet normal 7.875050e-001 -6.163083e-001 -3.906981e-016
      outer loop
         vertex -5.924501e+000 -8.140353e+001 6.170000e+002
         vertex -1.500000e+001 -9.300000e+001 5.432247e+002
         vertex -4.979946e+000 -8.019659e+001 5.375557e+002
      endloop
   endfacet
   facet normal 7.875050e-001 -6.163083e-001 -3.906981e-016
      outer loop
         vertex -5.924501e+000 -8.140353e+001 6.170000e+002
         vertex -4.979946e+000 -8.019659e+001 5.375557e+002
         vertex -1.444228e+000 -7.567873e+001 6.172012e+002
      endloop
   endfacet
   facet normal 7.875050e-001 -6.163083e-001 -3.906981e-016
      outer loop
         vertex -1.444228e+000 -7.567873e+001 6.172012e+002
         vertex -4.979946e+000 -8.019659e+001 5.375557e+002
         vertex 3.000000e+000 -7.000000e+001 5.382538e+002
      endloop
   endfacet
   facet normal 7.875050e-001 -6.163083e-001 -3.906981e-016
      outer loop
         vertex -1.444228e+000 -7.567873e+001 6.172012e+002
         vertex 3.000000e+000 -7.000000e+001 5.382538e+002
         vertex 3.000000e+000 -7.000000e+001 6.178029e+002
      endloop
   endfacet
   facet normal 1.428161e-033 1.000000e+000 -3.921583e-018
      outer loop
         vertex 1.661641e+002 -3.000000e+001 5.993056e+002
         vertex 1.614843e+002 -3.000000e+001 5.859539e+002
         vertex 1.679797e+002 -3.000000e+001 6.133368e+002
      endloop
   endfacet
   facet normal 1.428161e-033 1.000000e+000 -3.921583e-018
      outer loop
         vertex 1.679797e+002 -3.000000e+001 6.133368e+002
         vertex 1.614843e+002 -3.000000e+001 5.859539e+002
         vertex 1.541429e+002 -3.000000e+001 5.738594e+002
      endloop
   endfacet
   facet normal 1.428161e-033 1.000000e+000 -3.921583e-018
      outer loop
         vertex 1.679797e+002 -3.000000e+001 6.133368e+002
         vertex 1.541429e+002 -3.000000e+001 5.738594e+002
         vertex 1.668524e+002 -3.000000e+001 6.274401e+002
      endloop
   endfacet
   facet normal 1.428161e-033 1.000000e+000 -3.921583e-018
      outer loop
         vertex 1.668524e+002 -3.000000e+001 6.274401e+002
         vertex 1.541429e+002 -3.000000e+001 5.738594e+002
         vertex 1.628312e+002 -3.000000e+001 6.410047e+002
      endloop
   endfacet
   facet normal 1.428161e-033 1.000000e+000 -3.921583e-018
      outer loop
         vertex 1.357202e+002 -3.000000e+001 6.728625e+002
         vertex 1.469207e+002 -3.000000e+001 6.642184e+002
         vertex 1.541429e+002 -3.000000e+001 5.738594e+002
      endloop
   endfacet
   facet normal 1.428161e-033 1.000000e+000 -3.921583e-018
      outer loop
         vertex 1.541429e+002 -3.000000e+001 5.738594e+002
         vertex 1.469207e+002 -3.000000e+001 6.642184e+002
         vertex 1.560900e+002 -3.000000e+001 6.534437e+002
      endloop
   endfacet
   facet normal 1.428161e-033 1.000000e+000 -3.921583e-018
      outer loop
         vertex 1.541429e+002 -3.000000e+001 5.738594e+002
         vertex 1.560900e+002 -3.000000e+001 6.534437e+002
         vertex 1.628312e+002 -3.000000e+001 6.410047e+002
      endloop
   endfacet
   facet normal 1.428161e-033 1.000000e+000 -3.921583e-018
      outer loop
         vertex 9.509125e+001 -3.000000e+001 6.828226e+002
         vertex 1.092322e+002 -3.000000e+001 6.823704e+002
         vertex 8.116280e+001 -3.000000e+001 6.803388e+002
      endloop
   endfacet
   facet normal 1.428161e-033 1.000000e+000 -3.921583e-018
      outer loop
         vertex 8.116280e+001 -3.000000e+001 6.803388e+002
         vertex 1.092322e+002 -3.000000e+001 6.823704e+002
         vertex 1.541429e+002 -3.000000e+001 5.738594e+002
      endloop
   endfacet
   facet normal 1.428161e-033 1.000000e+000 -3.921583e-018
      outer loop
         vertex 8.116280e+001 -3.000000e+001 6.803388e+002
         vertex 1.541429e+002 -3.000000e+001 5.738594e+002
         vertex 6.804982e+001 -3.000000e+001 6.750266e+002
      endloop
   endfacet
   facet normal 1.428161e-033 1.000000e+000 -3.921583e-018
      outer loop
         vertex 6.804982e+001 -3.000000e+001 6.750266e+002
         vertex 1.541429e+002 -3.000000e+001 5.738594e+002
         vertex 5.631993e+001 -3.000000e+001 6.671157e+002
      endloop
   endfacet
   facet normal 1.428161e-033 1.000000e+000 -3.921583e-018
      outer loop
         vertex 1.229735e+002 -3.000000e+001 6.790017e+002
         vertex 1.357202e+002 -3.000000e+001 6.728625e+002
         vertex 1.092322e+002 -3.000000e+001 6.823704e+002
      endloop
   endfacet
   facet normal 1.428161e-033 1.000000e+000 -3.921583e-018
      outer loop
         vertex 1.092322e+002 -3.000000e+001 6.823704e+002
         vertex 1.357202e+002 -3.000000e+001 6.728625e+002
         vertex 1.541429e+002 -3.000000e+001 5.738594e+002
      endloop
   endfacet
   facet normal 1.428161e-033 1.000000e+000 -3.921583e-018
      outer loop
         vertex 5.631993e+001 -3.000000e+001 6.671157e+002
         vertex 1.541429e+002 -3.000000e+001 5.738594e+002
         vertex 3.895876e+001 -3.000000e+001 6.449661e+002
      endloop
   endfacet
   facet normal 1.428161e-033 1.000000e+000 -3.921583e-018
      outer loop
         vertex 3.895876e+001 -3.000000e+001 6.449661e+002
         vertex 1.541429e+002 -3.000000e+001 5.738594e+002
         vertex 1.444577e+002 -3.000000e+001 5.635460e+002
      endloop
   endfacet
   facet normal 1.428161e-033 1.000000e+000 -3.921583e-018
      outer loop
         vertex 3.895876e+001 -3.000000e+001 6.449661e+002
         vertex 1.444577e+002 -3.000000e+001 5.635460e+002
         vertex 3.297795e+001 -3.000000e+001 6.355898e+002
      endloop
   endfacet
   facet normal 1.428161e-033 1.000000e+000 -3.921583e-018
      outer loop
         vertex 3.297795e+001 -3.000000e+001 6.355898e+002
         vertex 1.444577e+002 -3.000000e+001 5.635460e+002
         vertex 1.328479e+002 -3.000000e+001 5.554600e+002
      endloop
   endfacet
   facet normal 1.428161e-033 1.000000e+000 -3.921583e-018
      outer loop
         vertex 3.297795e+001 -3.000000e+001 6.355898e+002
         vertex 1.328479e+002 -3.000000e+001 5.554600e+002
         vertex 1.198162e+002 -3.000000e+001 5.499514e+002
      endloop
   endfacet
   facet normal 1.428161e-033 1.000000e+000 -3.921583e-018
      outer loop
         vertex -1.403031e+001 -3.000000e+001 6.170000e+002
         vertex -5.924501e+000 -3.000000e+001 6.170000e+002
         vertex -1.452757e+001 -3.000000e+001 6.066717e+002
      endloop
   endfacet
   facet normal 1.428161e-033 1.000000e+000 -3.921583e-018
      outer loop
         vertex -1.452757e+001 -3.000000e+001 6.066717e+002
         vertex -5.924501e+000 -3.000000e+001 6.170000e+002
         vertex 5.127878e+000 -3.000000e+001 6.182368e+002
      endloop
   endfacet
   facet normal 1.428161e-033 1.000000e+000 -3.921583e-018
      outer loop
         vertex -1.452757e+001 -3.000000e+001 6.066717e+002
         vertex 5.127878e+000 -3.000000e+001 6.182368e+002
         vertex -1.757885e+001 -3.000000e+001 5.935617e+002
      endloop
   endfacet
   facet normal 1.428161e-033 1.000000e+000 -3.921583e-018
      outer loop
         vertex -1.757885e+001 -3.000000e+001 5.935617e+002
         vertex 5.127878e+000 -3.000000e+001 6.182368e+002
         vertex -4.979946e+000 -3.000000e+001 5.375557e+002
      endloop
   endfacet
   facet normal 1.428161e-033 1.000000e+000 -3.921583e-018
      outer loop
         vertex -1.757885e+001 -3.000000e+001 5.935617e+002
         vertex -4.979946e+000 -3.000000e+001 5.375557e+002
         vertex -2.322647e+001 -3.000000e+001 5.813434e+002
      endloop
   endfacet
   facet normal 1.428161e-033 1.000000e+000 -3.921583e-018
      outer loop
         vertex -2.322647e+001 -3.000000e+001 5.813434e+002
         vertex -4.979946e+000 -3.000000e+001 5.375557e+002
         vertex -3.123551e+001 -3.000000e+001 5.705250e+002
      endloop
   endfacet
   facet normal 1.428161e-033 1.000000e+000 -3.921583e-018
      outer loop
         vertex 5.127878e+000 -3.000000e+001 6.182368e+002
         vertex 1.563345e+001 -3.000000e+001 6.218862e+002
         vertex 1.059266e+002 -3.000000e+001 5.472587e+002
      endloop
   endfacet
   facet normal 1.428161e-033 1.000000e+000 -3.921583e-018
      outer loop
         vertex 1.059266e+002 -3.000000e+001 5.472587e+002
         vertex 1.563345e+001 -3.000000e+001 6.218862e+002
         vertex 2.507247e+001 -3.000000e+001 6.277675e+002
      endloop
   endfacet
   facet normal 1.428161e-033 1.000000e+000 -3.921583e-018
      outer loop
         vertex 1.059266e+002 -3.000000e+001 5.472587e+002
         vertex 2.507247e+001 -3.000000e+001 6.277675e+002
         vertex 1.198162e+002 -3.000000e+001 5.499514e+002
      endloop
   endfacet
   facet normal 1.428161e-033 1.000000e+000 -3.921583e-018
      outer loop
         vertex 1.198162e+002 -3.000000e+001 5.499514e+002
         vertex 2.507247e+001 -3.000000e+001 6.277675e+002
         vertex 3.297795e+001 -3.000000e+001 6.355898e+002
      endloop
   endfacet
   facet normal 1.428161e-033 1.000000e+000 -3.921583e-018
      outer loop
         vertex -4.404157e+001 -3.000000e+001 5.596557e+002
         vertex -4.127285e+001 -3.000000e+001 5.615565e+002
         vertex -4.979946e+000 -3.000000e+001 5.375557e+002
      endloop
   endfacet
   facet normal 1.428161e-033 1.000000e+000 -3.921583e-018
      outer loop
         vertex -4.979946e+000 -3.000000e+001 5.375557e+002
         vertex -4.127285e+001 -3.000000e+001 5.615565e+002
         vertex -3.123551e+001 -3.000000e+001 5.705250e+002
      endloop
   endfacet
   facet normal 1.428161e-033 1.000000e+000 -3.921583e-018
      outer loop
         vertex 3.895876e+001 -3.000000e+001 6.449661e+002
         vertex 4.648094e+001 -3.000000e+001 6.569489e+002
         vertex 5.631993e+001 -3.000000e+001 6.671157e+002
      endloop
   endfacet
   facet normal 1.428161e-033 1.000000e+000 -3.921583e-018
      outer loop
         vertex 1.059266e+002 -3.000000e+001 5.472587e+002
         vertex -4.979946e+000 -3.000000e+001 5.375557e+002
         vertex 5.127878e+000 -3.000000e+001 6.182368e+002
      endloop
   endfacet
   facet normal -2.069051e-001 -5.438982e-017 9.783610e-001
      outer loop
         vertex 3.000000e+000 -7.000000e+001 6.178029e+002
         vertex 5.127878e+000 -7.000000e+001 6.182368e+002
         vertex 5.127878e+000 -3.000000e+001 6.182368e+002
      endloop
   endfacet
   facet normal -2.926982e-001 -1.011955e-016 9.562049e-001
      outer loop
         vertex 5.127878e+000 -3.000000e+001 6.182368e+002
         vertex 5.127878e+000 -7.000000e+001 6.182368e+002
         vertex 1.563345e+001 -7.000000e+001 6.218862e+002
      endloop
   endfacet
   facet normal -3.631236e-001 -1.271828e-016 9.317410e-001
      outer loop
         vertex 5.127878e+000 -3.000000e+001 6.182368e+002
         vertex 1.563345e+001 -7.000000e+001 6.218862e+002
         vertex 1.563345e+001 -3.000000e+001 6.218862e+002
      endloop
   endfacet
   facet normal -4.968245e-001 -1.928743e-016 8.678510e-001
      outer loop
         vertex 1.563345e+001 -3.000000e+001 6.218862e+002
         vertex 1.563345e+001 -7.000000e+001 6.218862e+002
         vertex 2.507247e+001 -7.000000e+001 6.277675e+002
      endloop
   endfacet
   facet normal -5.601001e-001 -2.230348e-016 8.284249e-001
      outer loop
         vertex 1.563345e+001 -3.000000e+001 6.218862e+002
         vertex 2.507247e+001 -7.000000e+001 6.277675e+002
         vertex 2.507247e+001 -3.000000e+001 6.277675e+002
      endloop
   endfacet
   facet normal -6.763710e-001 -2.627390e-016 7.365611e-001
      outer loop
         vertex 2.507247e+001 -3.000000e+001 6.277675e+002
         vertex 2.507247e+001 -7.000000e+001 6.277675e+002
         vertex 3.297795e+001 -7.000000e+001 6.355898e+002
      endloop
   endfacet
   facet normal -7.293662e-001 -2.659393e-016 6.841235e-001
      outer loop
         vertex 2.507247e+001 -3.000000e+001 6.277675e+002
         vertex 3.297795e+001 -7.000000e+001 6.355898e+002
         vertex 3.297795e+001 -3.000000e+001 6.355898e+002
      endloop
   endfacet
   facet normal -8.224546e-001 -3.002894e-016 5.688307e-001
      outer loop
         vertex 3.297795e+001 -3.000000e+001 6.355898e+002
         vertex 3.297795e+001 -7.000000e+001 6.355898e+002
         vertex 3.895876e+001 -7.000000e+001 6.449661e+002
      endloop
   endfacet
   facet normal -8.625478e-001 -3.182843e-016 5.059757e-001
      outer loop
         vertex 3.297795e+001 -3.000000e+001 6.355898e+002
         vertex 3.895876e+001 -7.000000e+001 6.449661e+002
         vertex 3.895876e+001 -3.000000e+001 6.449661e+002
      endloop
   endfacet
   facet normal -2.989522e-002 1.319597e-031 9.995530e-001
      outer loop
         vertex -5.924501e+000 -8.140353e+001 6.170000e+002
         vertex -1.444228e+000 -7.567873e+001 6.172012e+002
         vertex -5.924501e+000 -3.000000e+001 6.170000e+002
      endloop
   endfacet
   facet normal -8.960547e-002 1.321962e-031 9.959773e-001
      outer loop
         vertex -5.924501e+000 -3.000000e+001 6.170000e+002
         vertex -1.444228e+000 -7.567873e+001 6.172012e+002
         vertex 3.000000e+000 -7.000000e+001 6.178029e+002
      endloop
   endfacet
   facet normal -1.338012e-001 -2.731619e-017 9.910082e-001
      outer loop
         vertex -5.924501e+000 -3.000000e+001 6.170000e+002
         vertex 3.000000e+000 -7.000000e+001 6.178029e+002
         vertex 5.127878e+000 -3.000000e+001 6.182368e+002
      endloop
   endfacet
   facet normal -8.286522e-034 -1.000000e+000 4.445228e-018
      outer loop
         vertex 1.679797e+002 -7.000000e+001 6.133368e+002
         vertex 1.668524e+002 -7.000000e+001 6.274401e+002
         vertex 1.661641e+002 -7.000000e+001 5.993056e+002
      endloop
   endfacet
   facet normal -8.286522e-034 -1.000000e+000 4.445228e-018
      outer loop
         vertex 1.661641e+002 -7.000000e+001 5.993056e+002
         vertex 1.668524e+002 -7.000000e+001 6.274401e+002
         vertex 1.628312e+002 -7.000000e+001 6.410047e+002
      endloop
   endfacet
   facet normal -8.286522e-034 -1.000000e+000 4.445228e-018
      outer loop
         vertex 1.661641e+002 -7.000000e+001 5.993056e+002
         vertex 1.628312e+002 -7.000000e+001 6.410047e+002
         vertex 1.614843e+002 -7.000000e+001 5.859539e+002
      endloop
   endfacet
   facet normal -8.286522e-034 -1.000000e+000 4.445228e-018
      outer loop
         vertex 1.614843e+002 -7.000000e+001 5.859539e+002
         vertex 1.628312e+002 -7.000000e+001 6.410047e+002
         vertex 1.541429e+002 -7.000000e+001 5.738594e+002
      endloop
   endfacet
   facet normal -8.286522e-034 -1.000000e+000 4.445228e-018
      outer loop
         vertex 6.804982e+001 -7.000000e+001 6.750266e+002
         vertex 5.631993e+001 -7.000000e+001 6.671157e+002
         vertex 1.541429e+002 -7.000000e+001 5.738594e+002
      endloop
   endfacet
   facet normal -8.286522e-034 -1.000000e+000 4.445228e-018
      outer loop
         vertex 1.541429e+002 -7.000000e+001 5.738594e+002
         vertex 5.631993e+001 -7.000000e+001 6.671157e+002
         vertex 3.895876e+001 -7.000000e+001 6.449661e+002
      endloop
   endfacet
   facet normal -8.286522e-034 -1.000000e+000 4.445228e-018
      outer loop
         vertex 1.541429e+002 -7.000000e+001 5.738594e+002
         vertex 3.895876e+001 -7.000000e+001 6.449661e+002
         vertex 1.444577e+002 -7.000000e+001 5.635460e+002
      endloop
   endfacet
   facet normal -8.286522e-034 -1.000000e+000 4.445228e-018
      outer loop
         vertex 1.444577e+002 -7.000000e+001 5.635460e+002
         vertex 3.895876e+001 -7.000000e+001 6.449661e+002
         vertex 3.297795e+001 -7.000000e+001 6.355898e+002
      endloop
   endfacet
   facet normal -8.286522e-034 -1.000000e+000 4.445228e-018
      outer loop
         vertex 1.444577e+002 -7.000000e+001 5.635460e+002
         vertex 3.297795e+001 -7.000000e+001 6.355898e+002
         vertex 1.328479e+002 -7.000000e+001 5.554600e+002
      endloop
   endfacet
   facet normal -8.286522e-034 -1.000000e+000 4.445228e-018
      outer loop
         vertex 1.328479e+002 -7.000000e+001 5.554600e+002
         vertex 3.297795e+001 -7.000000e+001 6.355898e+002
         vertex 1.198162e+002 -7.000000e+001 5.499514e+002
      endloop
   endfacet
   facet normal -8.286522e-034 -1.000000e+000 4.445228e-018
      outer loop
         vertex 1.229735e+002 -7.000000e+001 6.790017e+002
         vertex 1.092322e+002 -7.000000e+001 6.823704e+002
         vertex 1.357202e+002 -7.000000e+001 6.728625e+002
      endloop
   endfacet
   facet normal -8.286522e-034 -1.000000e+000 4.445228e-018
      outer loop
         vertex 1.357202e+002 -7.000000e+001 6.728625e+002
         vertex 1.092322e+002 -7.000000e+001 6.823704e+002
         vertex 1.541429e+002 -7.000000e+001 5.738594e+002
      endloop
   endfacet
   facet normal -8.286522e-034 -1.000000e+000 4.445228e-018
      outer loop
         vertex 1.357202e+002 -7.000000e+001 6.728625e+002
         vertex 1.541429e+002 -7.000000e+001 5.738594e+002
         vertex 1.469207e+002 -7.000000e+001 6.642184e+002
      endloop
   endfacet
   facet normal -8.286522e-034 -1.000000e+000 4.445228e-018
      outer loop
         vertex 1.469207e+002 -7.000000e+001 6.642184e+002
         vertex 1.541429e+002 -7.000000e+001 5.738594e+002
         vertex 1.628312e+002 -7.000000e+001 6.410047e+002
      endloop
   endfacet
   facet normal -8.286522e-034 -1.000000e+000 4.445228e-018
      outer loop
         vertex 1.469207e+002 -7.000000e+001 6.642184e+002
         vertex 1.628312e+002 -7.000000e+001 6.410047e+002
         vertex 1.560900e+002 -7.000000e+001 6.534437e+002
      endloop
   endfacet
   facet normal -8.286522e-034 -1.000000e+000 4.445228e-018
      outer loop
         vertex 6.804982e+001 -7.000000e+001 6.750266e+002
         vertex 1.541429e+002 -7.000000e+001 5.738594e+002
         vertex 8.116280e+001 -7.000000e+001 6.803388e+002
      endloop
   endfacet
   facet normal -8.286522e-034 -1.000000e+000 4.445228e-018
      outer loop
         vertex 8.116280e+001 -7.000000e+001 6.803388e+002
         vertex 1.541429e+002 -7.000000e+001 5.738594e+002
         vertex 1.092322e+002 -7.000000e+001 6.823704e+002
      endloop
   endfacet
   facet normal -8.286522e-034 -1.000000e+000 4.445228e-018
      outer loop
         vertex 8.116280e+001 -7.000000e+001 6.803388e+002
         vertex 1.092322e+002 -7.000000e+001 6.823704e+002
         vertex 9.509125e+001 -7.000000e+001 6.828226e+002
      endloop
   endfacet
   facet normal -8.286522e-034 -1.000000e+000 4.445228e-018
      outer loop
         vertex 5.127878e+000 -7.000000e+001 6.182368e+002
         vertex 3.000000e+000 -7.000000e+001 5.382538e+002
         vertex 1.563345e+001 -7.000000e+001 6.218862e+002
      endloop
   endfacet
   facet normal -8.286522e-034 -1.000000e+000 4.445228e-018
      outer loop
         vertex 1.563345e+001 -7.000000e+001 6.218862e+002
         vertex 3.000000e+000 -7.000000e+001 5.382538e+002
         vertex 1.059266e+002 -7.000000e+001 5.472587e+002
      endloop
   endfacet
   facet normal -8.286522e-034 -1.000000e+000 4.445228e-018
      outer loop
         vertex 1.563345e+001 -7.000000e+001 6.218862e+002
         vertex 1.059266e+002 -7.000000e+001 5.472587e+002
         vertex 2.507247e+001 -7.000000e+001 6.277675e+002
      endloop
   endfacet
   facet normal -8.286522e-034 -1.000000e+000 4.445228e-018
      outer loop
         vertex 2.507247e+001 -7.000000e+001 6.277675e+002
         vertex 1.059266e+002 -7.000000e+001 5.472587e+002
         vertex 1.198162e+002 -7.000000e+001 5.499514e+002
      endloop
   endfacet
   facet normal -8.286522e-034 -1.000000e+000 4.445228e-018
      outer loop
         vertex 2.507247e+001 -7.000000e+001 6.277675e+002
         vertex 1.198162e+002 -7.000000e+001 5.499514e+002
         vertex 3.297795e+001 -7.000000e+001 6.355898e+002
      endloop
   endfacet
   facet normal -8.286522e-034 -1.000000e+000 4.445228e-018
      outer loop
         vertex 5.631993e+001 -7.000000e+001 6.671157e+002
         vertex 4.648094e+001 -7.000000e+001 6.569489e+002
         vertex 3.895876e+001 -7.000000e+001 6.449661e+002
      endloop
   endfacet
   facet normal -8.286522e-034 -1.000000e+000 4.445228e-018
      outer loop
         vertex 5.127878e+000 -7.000000e+001 6.182368e+002
         vertex 3.000000e+000 -7.000000e+001 6.178029e+002
         vertex 3.000000e+000 -7.000000e+001 5.382538e+002
      endloop
   endfacet
   facet normal 8.715574e-002 2.333609e-017 -9.961947e-001
      outer loop
         vertex 1.059266e+002 -3.000000e+001 5.472587e+002
         vertex 1.059266e+002 -7.000000e+001 5.472587e+002
         vertex -4.979946e+000 -3.000000e+001 5.375557e+002
      endloop
   endfacet
   facet normal 8.715574e-002 2.333609e-017 -9.961947e-001
      outer loop
         vertex -4.979946e+000 -3.000000e+001 5.375557e+002
         vertex 1.059266e+002 -7.000000e+001 5.472587e+002
         vertex 3.000000e+000 -7.000000e+001 5.382538e+002
      endloop
   endfacet
   facet normal 8.715574e-002 2.333609e-017 -9.961947e-001
      outer loop
         vertex -4.979946e+000 -3.000000e+001 5.375557e+002
         vertex 3.000000e+000 -7.000000e+001 5.382538e+002
         vertex -4.979946e+000 -8.019659e+001 5.375557e+002
      endloop
   endfacet
   facet normal 1.559940e-001 4.421228e-017 -9.877580e-001
      outer loop
         vertex 1.059266e+002 -7.000000e+001 5.472587e+002
         vertex 1.059266e+002 -3.000000e+001 5.472587e+002
         vertex 1.198162e+002 -7.000000e+001 5.499514e+002
      endloop
   endfacet
   facet normal 2.244101e-001 7.475944e-017 -9.744948e-001
      outer loop
         vertex 1.198162e+002 -7.000000e+001 5.499514e+002
         vertex 1.059266e+002 -3.000000e+001 5.472587e+002
         vertex 1.198162e+002 -3.000000e+001 5.499514e+002
      endloop
   endfacet
   facet normal 3.570167e-001 1.115058e-016 -9.340980e-001
      outer loop
         vertex 1.198162e+002 -7.000000e+001 5.499514e+002
         vertex 1.198162e+002 -3.000000e+001 5.499514e+002
         vertex 1.328479e+002 -7.000000e+001 5.554600e+002
      endloop
   endfacet
   facet normal 4.212073e-001 1.500505e-016 -9.069644e-001
      outer loop
         vertex 1.328479e+002 -7.000000e+001 5.554600e+002
         vertex 1.198162e+002 -3.000000e+001 5.499514e+002
         vertex 1.328479e+002 -3.000000e+001 5.554600e+002
      endloop
   endfacet
   facet normal 5.425843e-001 1.771392e-016 -8.400013e-001
      outer loop
         vertex 1.328479e+002 -7.000000e+001 5.554600e+002
         vertex 1.328479e+002 -3.000000e+001 5.554600e+002
         vertex 1.444577e+002 -7.000000e+001 5.635460e+002
      endloop
   endfacet
   facet normal 5.997707e-001 2.118846e-016 -8.001719e-001
      outer loop
         vertex 1.444577e+002 -7.000000e+001 5.635460e+002
         vertex 1.328479e+002 -3.000000e+001 5.554600e+002
         vertex 1.444577e+002 -3.000000e+001 5.635460e+002
      endloop
   endfacet
   facet normal 7.046637e-001 2.351044e-016 -7.095414e-001
      outer loop
         vertex 1.444577e+002 -7.000000e+001 5.635460e+002
         vertex 1.444577e+002 -3.000000e+001 5.635460e+002
         vertex 1.541429e+002 -7.000000e+001 5.738594e+002
      endloop
   endfacet
   facet normal 7.523703e-001 2.645464e-016 -6.587405e-001
      outer loop
         vertex 1.541429e+002 -7.000000e+001 5.738594e+002
         vertex 1.444577e+002 -3.000000e+001 5.635460e+002
         vertex 1.541429e+002 -3.000000e+001 5.738594e+002
      endloop
   endfacet
   facet normal 8.362385e-001 2.828920e-016 -5.483659e-001
      outer loop
         vertex 1.541429e+002 -7.000000e+001 5.738594e+002
         vertex 1.541429e+002 -3.000000e+001 5.738594e+002
         vertex 1.614843e+002 -7.000000e+001 5.859539e+002
      endloop
   endfacet
   facet normal 8.724002e-001 3.057561e-016 -4.887924e-001
      outer loop
         vertex 1.614843e+002 -7.000000e+001 5.859539e+002
         vertex 1.541429e+002 -3.000000e+001 5.738594e+002
         vertex 1.614843e+002 -3.000000e+001 5.859539e+002
      endloop
   endfacet
   facet normal 9.316130e-001 3.184334e-016 -3.634518e-001
      outer loop
         vertex 1.614843e+002 -7.000000e+001 5.859539e+002
         vertex 1.614843e+002 -3.000000e+001 5.859539e+002
         vertex 1.661641e+002 -7.000000e+001 5.993056e+002
      endloop
   endfacet
   facet normal 9.546642e-001 3.337297e-016 -2.976848e-001
      outer loop
         vertex 1.661641e+002 -7.000000e+001 5.993056e+002
         vertex 1.614843e+002 -3.000000e+001 5.859539e+002
         vertex 1.661641e+002 -3.000000e+001 5.993056e+002
      endloop
   endfacet
   facet normal 9.866585e-001 3.401899e-016 -1.628041e-001
      outer loop
         vertex 1.661641e+002 -7.000000e+001 5.993056e+002
         vertex 1.661641e+002 -3.000000e+001 5.993056e+002
         vertex 1.679797e+002 -7.000000e+001 6.133368e+002
      endloop
   endfacet
   facet normal 9.956014e-001 3.472564e-016 -9.369047e-002
      outer loop
         vertex 1.679797e+002 -7.000000e+001 6.133368e+002
         vertex 1.661641e+002 -3.000000e+001 5.993056e+002
         vertex 1.679797e+002 -3.000000e+001 6.133368e+002
      endloop
   endfacet
   facet normal 9.989918e-001 3.472198e-016 4.489137e-002
      outer loop
         vertex 1.679797e+002 -7.000000e+001 6.133368e+002
         vertex 1.679797e+002 -3.000000e+001 6.133368e+002
         vertex 1.668524e+002 -7.000000e+001 6.274401e+002
      endloop
   endfacet
   facet normal 9.934394e-001 3.457505e-016 1.143596e-001
      outer loop
         vertex 1.668524e+002 -7.000000e+001 6.274401e+002
         vertex 1.679797e+002 -3.000000e+001 6.133368e+002
         vertex 1.668524e+002 -3.000000e+001 6.274401e+002
      endloop
   endfacet
   facet normal 9.680794e-001 3.392187e-016 2.506435e-001
      outer loop
         vertex 1.668524e+002 -7.000000e+001 6.274401e+002
         vertex 1.668524e+002 -3.000000e+001 6.274401e+002
         vertex 1.628312e+002 -7.000000e+001 6.410047e+002
      endloop
   endfacet
   facet normal 9.482719e-001 3.292772e-016 3.174591e-001
      outer loop
         vertex 1.628312e+002 -7.000000e+001 6.410047e+002
         vertex 1.668524e+002 -3.000000e+001 6.274401e+002
         vertex 1.628312e+002 -3.000000e+001 6.410047e+002
      endloop
   endfacet
   facet normal 8.952594e-001 3.165330e-016 4.455453e-001
      outer loop
         vertex 1.628312e+002 -7.000000e+001 6.410047e+002
         vertex 1.628312e+002 -3.000000e+001 6.410047e+002
         vertex 1.560900e+002 -7.000000e+001 6.534437e+002
      endloop
   endfacet
   facet normal 8.620543e-001 2.985497e-016 5.068159e-001
      outer loop
         vertex 1.560900e+002 -7.000000e+001 6.534437e+002
         vertex 1.628312e+002 -3.000000e+001 6.410047e+002
         vertex 1.560900e+002 -3.000000e+001 6.534437e+002
      endloop
   endfacet
   facet normal 7.836839e-001 2.801448e-016 6.211598e-001
      outer loop
         vertex 1.560900e+002 -7.000000e+001 6.534437e+002
         vertex 1.560900e+002 -3.000000e+001 6.534437e+002
         vertex 1.469207e+002 -7.000000e+001 6.642184e+002
      endloop
   endfacet
   facet normal 7.385187e-001 2.548981e-016 6.742330e-001
      outer loop
         vertex 1.469207e+002 -7.000000e+001 6.642184e+002
         vertex 1.560900e+002 -3.000000e+001 6.534437e+002
         vertex 1.469207e+002 -3.000000e+001 6.642184e+002
      endloop
   endfacet
   facet normal 6.381832e-001 2.316292e-016 7.698846e-001
      outer loop
         vertex 1.469207e+002 -7.000000e+001 6.642184e+002
         vertex 1.469207e+002 -3.000000e+001 6.642184e+002
         vertex 1.357202e+002 -7.000000e+001 6.728625e+002
      endloop
   endfacet
   facet normal 5.830129e-001 2.002121e-016 8.124629e-001
      outer loop
         vertex 1.357202e+002 -7.000000e+001 6.728625e+002
         vertex 1.469207e+002 -3.000000e+001 6.642184e+002
         vertex 1.357202e+002 -3.000000e+001 6.728625e+002
      endloop
   endfacet
   facet normal 4.650558e-001 1.730865e-016 8.852813e-001
      outer loop
         vertex 1.357202e+002 -7.000000e+001 6.728625e+002
         vertex 1.357202e+002 -3.000000e+001 6.728625e+002
         vertex 1.229735e+002 -7.000000e+001 6.790017e+002
      endloop
   endfacet
   facet normal 4.022689e-001 1.368590e-016 9.155215e-001
      outer loop
         vertex 1.229735e+002 -7.000000e+001 6.790017e+002
         vertex 1.357202e+002 -3.000000e+001 6.728625e+002
         vertex 1.229735e+002 -3.000000e+001 6.790017e+002
      endloop
   endfacet
   facet normal 2.717964e-001 1.070509e-016 9.623548e-001
      outer loop
         vertex 1.229735e+002 -7.000000e+001 6.790017e+002
         vertex 1.229735e+002 -3.000000e+001 6.790017e+002
         vertex 1.092322e+002 -7.000000e+001 6.823704e+002
      endloop
   endfacet
   facet normal 2.041108e-001 6.758140e-017 9.789478e-001
      outer loop
         vertex 1.092322e+002 -7.000000e+001 6.823704e+002
         vertex 1.229735e+002 -3.000000e+001 6.790017e+002
         vertex 1.092322e+002 -3.000000e+001 6.823704e+002
      endloop
   endfacet
   facet normal 6.677110e-002 3.638123e-017 9.977683e-001
      outer loop
         vertex 1.092322e+002 -7.000000e+001 6.823704e+002
         vertex 1.092322e+002 -3.000000e+001 6.823704e+002
         vertex 9.509125e+001 -7.000000e+001 6.828226e+002
      endloop
   endfacet
   facet normal -2.883080e-003 -4.621813e-018 9.999958e-001
      outer loop
         vertex 9.509125e+001 -7.000000e+001 6.828226e+002
         vertex 1.092322e+002 -3.000000e+001 6.823704e+002
         vertex 9.509125e+001 -3.000000e+001 6.828226e+002
      endloop
   endfacet
   facet normal -1.411447e-001 -3.586341e-017 9.899890e-001
      outer loop
         vertex 9.509125e+001 -7.000000e+001 6.828226e+002
         vertex 9.509125e+001 -3.000000e+001 6.828226e+002
         vertex 8.116280e+001 -7.000000e+001 6.803388e+002
      endloop
   endfacet
   facet normal -2.097522e-001 -7.662495e-017 9.777546e-001
      outer loop
         vertex 8.116280e+001 -7.000000e+001 6.803388e+002
         vertex 9.509125e+001 -3.000000e+001 6.828226e+002
         vertex 8.116280e+001 -3.000000e+001 6.803388e+002
      endloop
   endfacet
   facet normal -3.429505e-001 -1.065555e-016 9.393535e-001
      outer loop
         vertex 8.116280e+001 -7.000000e+001 6.803388e+002
         vertex 8.116280e+001 -3.000000e+001 6.803388e+002
         vertex 6.804982e+001 -7.000000e+001 6.750266e+002
      endloop
   endfacet
   facet normal -4.075412e-001 -1.453110e-016 9.131868e-001
      outer loop
         vertex 6.804982e+001 -7.000000e+001 6.750266e+002
         vertex 8.116280e+001 -3.000000e+001 6.803388e+002
         vertex 6.804982e+001 -3.000000e+001 6.750266e+002
      endloop
   endfacet
   facet normal -5.299100e-001 -1.726349e-016 8.480539e-001
      outer loop
         vertex 6.804982e+001 -7.000000e+001 6.750266e+002
         vertex 6.804982e+001 -3.000000e+001 6.750266e+002
         vertex 5.631993e+001 -7.000000e+001 6.671157e+002
      endloop
   endfacet
   facet normal -5.876880e-001 -2.077067e-016 8.090876e-001
      outer loop
         vertex 5.631993e+001 -7.000000e+001 6.671157e+002
         vertex 6.804982e+001 -3.000000e+001 6.750266e+002
         vertex 5.631993e+001 -3.000000e+001 6.671157e+002
      endloop
   endfacet
   facet normal -6.939301e-001 -2.312411e-016 7.200424e-001
      outer loop
         vertex 5.631993e+001 -7.000000e+001 6.671157e+002
         vertex 5.631993e+001 -3.000000e+001 6.671157e+002
         vertex 4.648094e+001 -7.000000e+001 6.569489e+002
      endloop
   endfacet
   facet normal -7.423941e-001 -2.611108e-016 6.699634e-001
      outer loop
         vertex 4.648094e+001 -7.000000e+001 6.569489e+002
         vertex 5.631993e+001 -3.000000e+001 6.671157e+002
         vertex 4.648094e+001 -3.000000e+001 6.569489e+002
      endloop
   endfacet
   facet normal -8.279102e-001 -2.798368e-016 5.608606e-001
      outer loop
         vertex 4.648094e+001 -7.000000e+001 6.569489e+002
         vertex 4.648094e+001 -3.000000e+001 6.569489e+002
         vertex 3.895876e+001 -7.000000e+001 6.449661e+002
      endloop
   endfacet
   facet normal -8.649623e-001 -3.032115e-016 5.018368e-001
      outer loop
         vertex 3.895876e+001 -7.000000e+001 6.449661e+002
         vertex 4.648094e+001 -3.000000e+001 6.569489e+002
         vertex 3.895876e+001 -3.000000e+001 6.449661e+002
      endloop
   endfacet
endsolid